<?xml version="1.0" standalone="no"?>
<!DOCTYPE svg PUBLIC "-//W3C//DTD SVG 1.1//EN" "http://www.w3.org/Graphics/SVG/1.1/DTD/svg11.dtd" >
<svg xmlns="http://www.w3.org/2000/svg" xmlns:xlink="http://www.w3.org/1999/xlink" version="1.1">
<metadata></metadata>
<defs>
<font id="intro_blackregular" horiz-adv-x="1171" >
<font-face units-per-em="2048" ascent="1536" descent="-512" />
<missing-glyph horiz-adv-x="489" />
<glyph unicode=" "  horiz-adv-x="489" />
<glyph unicode="&#x09;" horiz-adv-x="489" />
<glyph unicode="&#xa0;" horiz-adv-x="489" />
<glyph unicode="!" horiz-adv-x="665" d="M127 1438h408l-23 -1041h-354zM133 156q0 85 57 136.5t144 51.5q88 0 145.5 -51.5t57.5 -136.5q0 -84 -57.5 -135.5t-145.5 -51.5q-86 0 -143.5 52t-57.5 135z" />
<glyph unicode="&#x22;" horiz-adv-x="884" d="M131 913v521h277l-43 -521h-234zM502 913v521h276l-43 -521h-233z" />
<glyph unicode="#" horiz-adv-x="1486" d="M86 346v242h221l33 211h-188v243h225l59 390h307l-55 -390h240l59 390h307l-55 -390h156v-243h-191l-30 -211h153v-242h-188l-49 -346h-322l53 346h-233l-47 -346h-324l53 346h-184zM610 580h256l35 229h-258z" />
<glyph unicode="$" horiz-adv-x="1333" d="M80 440h360q0 -52 39 -87t99 -48v279q-77 7 -144.5 24.5t-130.5 50t-108 78t-72 112t-27 148.5q0 104 38.5 189t105.5 141.5t152.5 90.5t185.5 44v142h182v-148q91 -13 171 -48.5t142.5 -91.5t97.5 -138.5t33 -180.5h-350q0 82 -94 121v-252q89 -11 157.5 -28t135 -49.5 t109.5 -79t69 -118.5t26 -165q0 -98 -40.5 -180t-110 -137t-157.5 -90t-189 -48v-143h-182v141q-104 13 -192 48t-157.5 91.5t-109 142t-39.5 189.5zM467 1006q0 -47 26.5 -73t84.5 -44v239q-111 -30 -111 -122zM760 307q123 39 123 119q0 106 -123 137v-256z" />
<glyph unicode="%" horiz-adv-x="1972" d="M70 1090q0 91 33 165.5t86.5 120t122 70t140.5 24.5t140.5 -24.5t122 -70t86.5 -120t33 -165.5t-33 -165.5t-86.5 -120t-122 -70t-140.5 -24.5t-140.5 24.5t-122 70t-86.5 120t-33 165.5zM348 1090q0 -43 15.5 -75t38.5 -46.5t50.5 -14.5t50.5 14.5t38.5 46.5t15.5 75 q0 65 -32.5 102t-72 37t-72 -37t-32.5 -102zM465 0l704 1432h338l-706 -1432h-336zM1141 338q0 91 32.5 165.5t86.5 120t122.5 70t139.5 24.5t139.5 -24.5t122.5 -70t86.5 -120t32.5 -165.5t-32.5 -165.5t-86.5 -120t-122.5 -70t-139.5 -24.5t-139.5 24.5t-122.5 70 t-86.5 120t-32.5 165.5zM1415 338q0 -44 15.5 -77t39 -47.5t51 -14.5t51 14.5t39 47.5t15.5 77q0 43 -15.5 75t-39 46.5t-51 14.5t-51 -14.5t-39 -46.5t-15.5 -75z" />
<glyph unicode="&#x26;" horiz-adv-x="1331" d="M90 449q2 115 54 211.5t147 152.5q-37 34 -60 70q-58 88 -55 192q0 72 31.5 140t88.5 122.5t147.5 87.5t199.5 33q95 0 175.5 -23.5t142 -69.5t95 -121t29.5 -171h-317q0 39 -35.5 63.5t-81.5 24.5q-56 0 -92.5 -30t-36.5 -82q0 -33 15 -54q13 -24 41.5 -39.5t68.5 -15.5 h60v-303h-64q-86 0 -136 -52.5t-50 -123.5q0 -72 49 -124t137 -52q81 0 133.5 49t52.5 129v481h433v-307h-127v-174q0 -226 -132 -357t-360 -131q-114 0 -208.5 27.5t-158 74t-107 108t-62.5 128t-17 136.5z" />
<glyph unicode="'" horiz-adv-x="514" d="M131 913v521h277l-43 -521h-234z" />
<glyph unicode="(" horiz-adv-x="774" d="M66 577.5q1 171.5 38 340.5t106 310.5t178.5 250.5t246.5 161l108 -208q-100 -47 -172.5 -181.5t-106 -306.5t-34 -368.5t32.5 -367.5t105.5 -304t174.5 -178l-108 -211q-139 52 -249.5 161t-179 250.5t-105 310.5t-35.5 340.5z" />
<glyph unicode=")" horiz-adv-x="774" d="M31 -274q102 45 174.5 178t105.5 304t32.5 367.5t-34 368.5t-106 306.5t-172.5 181.5l108 208q137 -52 246.5 -161t178.5 -250.5t106 -310.5t38 -340.5t-35.5 -340.5t-105 -310.5t-179 -250.5t-249.5 -161z" />
<glyph unicode="*" horiz-adv-x="911" d="M84 1133l74 239l188 -74l-22 187h264l-25 -187l185 74l79 -237l-194 -43l143 -154l-215 -156l-104 166l-105 -168l-211 160l142 147z" />
<glyph unicode="+" horiz-adv-x="1044" d="M125 600v297h258v244h276v-244h263v-297h-263v-244h-276v244h-258z" />
<glyph unicode="," horiz-adv-x="602" d="M98 150q0 85 57.5 136.5t145.5 51.5q87 0 144 -51.5t57 -136.5q0 -34 -15 -72l-96 -295h-203l54 186q-64 18 -104 66t-40 115z" />
<glyph unicode="-" horiz-adv-x="972" d="M117 532v299h739v-299h-739z" />
<glyph unicode="." horiz-adv-x="602" d="M98 150q0 84 58 136t145 52q88 0 145.5 -51.5t57.5 -136.5t-57.5 -136t-145.5 -51q-87 0 -145 51.5t-58 135.5z" />
<glyph unicode="/" horiz-adv-x="1157" d="M53 2l692 1432h359l-692 -1432h-359z" />
<glyph unicode="0" horiz-adv-x="1327" d="M127 463v504q0 151 73 264.5t194.5 171t271.5 57.5q149 0 269 -57.5t192.5 -171t72.5 -264.5v-504q0 -152 -72.5 -266t-192.5 -171t-269 -57q-150 0 -271 57t-194.5 171t-73.5 266zM477 469q0 -83 52 -127.5t137 -44.5q82 0 134 44.5t52 127.5v489q0 85 -52 131t-134 46 q-85 0 -137 -46t-52 -131v-489z" />
<glyph unicode="1" horiz-adv-x="974" d="M102 0v287h224v854h-195v293h553v-1147h229v-287h-811z" />
<glyph unicode="2" horiz-adv-x="1132" d="M82 0v80l498 729q38 57 58.5 112.5t21.5 103t-29 78t-90 32.5q-55 2 -94 -35t-39 -105h-310q-4 220 119 343.5t340 123.5q113 0 206 -42.5t149 -116t78.5 -165t-1 -199t-92.5 -208.5q0 -15 -279 -399h404v-332h-940z" />
<glyph unicode="3" horiz-adv-x="1183" d="M84 436h328q0 -68 43 -104.5t116 -36.5t115.5 48.5t44.5 123.5q-1 46 -14 80.5t-31.5 56.5t-48.5 36.5t-58 20.5t-68.5 7.5t-70.5 -0.5t-73 -6v47l213 421h-441v304h914v-54l-262 -483q81 -21 140 -64.5t91 -102.5t46.5 -123t14.5 -138q0 -93 -33 -180.5t-94.5 -158.5 t-159.5 -114t-218 -43q-139 0 -250 55.5t-176 161.5t-68 246z" />
<glyph unicode="4" horiz-adv-x="1245" d="M43 248v162l578 1003h393v-864h125v-301h-125v-268h-338v268h-633zM451 535h249v229l19 244h-4z" />
<glyph unicode="5" horiz-adv-x="1198" d="M106 436h326q1 -70 43.5 -104.5t116.5 -34.5q72 0 115 48t43 122q0 187 -308 199q-72 2 -114.5 0.5t-104 -6t-82.5 -5.5v779h895v-312h-590v-178q78 4 117 4q94 -2 171.5 -16.5t147.5 -49t118 -88t76 -136.5t28 -191q0 -93 -32.5 -180t-93.5 -158.5t-159 -114.5t-219 -43 q-139 0 -250 56t-176 162.5t-68 246.5z" />
<glyph unicode="6" horiz-adv-x="1263" d="M84 467q0 74 26.5 159.5t67.5 155.5l397 664h408l-305 -518q4 2 20 2q220 12 353 -113.5t133 -349.5q0 -123 -41.5 -218t-116 -154.5t-174 -89.5t-219.5 -30q-119 0 -217.5 30t-173.5 89.5t-116.5 154.5t-41.5 218zM451 467q0 -176 182 -176q180 0 180 176 q0 180 -180 180q-182 0 -182 -180z" />
<glyph unicode="7" horiz-adv-x="1130" d="M70 1106v328h1054v-54l-585 -1380h-375l461 1106h-555z" />
<glyph unicode="8" horiz-adv-x="1275" d="M88 453q0 106 47.5 202t138.5 162q-93 107 -96 240q-2 75 26.5 146t84 128.5t146.5 92t204 34.5q90 0 167 -22t130 -60t91 -89t55.5 -107.5t17.5 -116.5q0 -137 -99 -248q177 -130 187 -358q2 -91 -32.5 -176t-100.5 -154t-174.5 -110.5t-241.5 -41.5t-240.5 41t-174 109 t-101.5 152.5t-35 175.5zM455 463q0 -73 48.5 -125.5t135.5 -52.5t135.5 54.5t48.5 129.5t-48.5 130.5t-135.5 55.5q-88 0 -136 -56.5t-48 -135.5zM504 1044q0 -50 36 -85t99 -35q64 0 98.5 37t34.5 88q0 47 -35.5 82.5t-97.5 35.5q-65 0 -100 -37t-35 -86z" />
<glyph unicode="9" horiz-adv-x="1261" d="M78 979q0 123 41.5 218t116 154t174 89t219.5 30q119 0 217.5 -30t173.5 -89t116.5 -154t41.5 -218q0 -159 -101 -326l-393 -653h-405l321 518q-2 0 -12 -1t-15 -1q-229 -8 -362 114t-133 349zM446 979q0 -180 183 -180q180 0 180 180q0 176 -180 176q-183 0 -183 -176z " />
<glyph unicode=":" horiz-adv-x="655" d="M125 150q0 84 58 136t145 52q88 0 145 -51.5t57 -136.5t-57 -136t-145 -51q-87 0 -145 51.5t-58 135.5zM125 764q0 84 58 136t145 52q88 0 145 -51.5t57 -136.5t-57 -135.5t-145 -50.5q-87 0 -145 51t-58 135z" />
<glyph unicode=";" horiz-adv-x="655" d="M125 150q0 85 57.5 136.5t145.5 51.5q86 0 143 -51.5t57 -136.5q0 -37 -14 -72l-96 -295h-203l53 186q-64 18 -103.5 66t-39.5 115zM125 764q0 84 58 136t145 52q88 0 145 -51.5t57 -136.5t-57 -135.5t-145 -50.5q-87 0 -145 51t-58 135z" />
<glyph unicode="&#x3c;" horiz-adv-x="1150" d="M82 575v256l915 381v-305l-514 -205l514 -202v-305z" />
<glyph unicode="=" horiz-adv-x="1140" d="M133 313v287h875v-287h-875zM133 766v287h875v-287h-875z" />
<glyph unicode="&#x3e;" horiz-adv-x="1150" d="M154 195v305l514 202l-514 205v305l915 -381v-256z" />
<glyph unicode="?" horiz-adv-x="1101" d="M70 981q-4 219 124.5 339.5t329.5 125.5q218 4 351 -121t133 -311q0 -71 -22.5 -134t-55.5 -106.5t-71.5 -90t-70.5 -85.5t-51.5 -91.5t-15.5 -109.5h-363q-7 66 5 122.5t36.5 98.5t56 80t65.5 72.5t62.5 69t48.5 78t23 90.5q1 53 -41 82.5t-98 29.5q-59 -2 -99 -36.5 t-40 -102.5h-307zM336 156q0 85 58.5 136.5t146.5 51.5q87 0 142.5 -51.5t55.5 -136.5q0 -84 -55.5 -135.5t-142.5 -51.5q-88 0 -146.5 52t-58.5 135z" />
<glyph unicode="@" horiz-adv-x="1935" d="M94 492q24 255 157.5 456.5t346.5 312.5t467 111q199 0 356.5 -61.5t259 -174.5t147 -275.5t27.5 -360.5q-12 -138 -62 -247t-122.5 -174t-155 -98.5t-167.5 -33.5q-93 0 -149 48t-50 132v12q-43 -76 -118.5 -119.5t-164.5 -48.5q-110 -2 -195 39.5t-134.5 114.5 t-70.5 167t-11 200q16 171 105.5 293t226 179t305.5 54q97 -5 215 -47.5t190 -102.5l-51 -561q-8 -110 39 -110q59 0 106.5 87t59.5 216q26 319 -131 492t-476 173q-300 0 -509 -186.5t-234 -486.5q-12 -128 9.5 -238.5t70 -191.5t124 -136.5t168 -78t205 -10t232.5 62.5 l-18 -197q-146 -51 -283.5 -58t-251.5 26.5t-207.5 106.5t-154.5 176.5t-88 241.5t-13 296zM805 492q-8 -90 27 -151.5t120 -57.5q70 1 115.5 52.5t50.5 121.5q4 38 23 248q-62 26 -119 26q-89 -6 -148 -68.5t-69 -170.5z" />
<glyph unicode="A" horiz-adv-x="1433" d="M-25 0v51l658 1397h172l651 -1397v-51h-387l-84 178h-536l-82 -178h-392zM569 492h297l-149 346z" />
<glyph unicode="B" horiz-adv-x="1380" d="M156 8v1432h632q201 0 327 -121.5t126 -319.5q0 -67 -33 -136t-86 -111q86 -43 132 -125t46 -183q0 -191 -120 -313.5t-334 -122.5h-690zM530 334h289q51 0 78.5 31.5t32.5 78.5v8q0 68 -51 105q-31 14 -62 14h-287v-237zM530 874h232q51 0 79.5 33.5t30.5 79.5v7 q0 47 -27 82q-29 38 -83 38h-232v-240z" />
<glyph unicode="C" horiz-adv-x="1556" d="M80 715q0 144 41 265.5t111.5 206.5t164 144.5t199 88t217.5 28.5q91 0 178.5 -19.5t170.5 -62t149 -104.5t113 -154t63 -203h-361q-71 205 -313 205q-163 0 -260.5 -107t-97.5 -286q0 -161 99.5 -275t258.5 -114q121 0 205 57t112 170h361q-16 -119 -62.5 -215.5 t-112 -161.5t-149 -109t-172 -63.5t-182.5 -19.5q-140 0 -269.5 47t-234 135.5t-167 230t-62.5 316.5z" />
<glyph unicode="D" horiz-adv-x="1488" d="M156 0v1432h546q136 0 252.5 -40t199 -108.5t141 -159t86.5 -192.5t28 -209v-15q0 -100 -25 -198q-27 -104 -85 -197t-140.5 -162.5t-200.5 -110t-256 -40.5h-546zM530 338h168q108 0 186.5 56.5t114 141t35.5 183.5q0 72 -22 138.5t-62.5 120t-106 86t-145.5 32.5h-168 v-758z" />
<glyph unicode="E" d="M154 0v1434h895v-326h-521v-205h480v-328h-480v-233h539v-342h-913z" />
<glyph unicode="F" horiz-adv-x="1118" d="M154 0v1434h895v-326h-521v-317h459v-328h-459v-463h-374z" />
<glyph unicode="G" horiz-adv-x="1568" d="M78 715q0 178 63.5 321.5t169 232.5t235 136t269.5 47q110 0 213 -29t193.5 -86.5t157 -155t94.5 -223.5h-365q-46 85 -116.5 121.5t-176.5 36.5q-167 0 -262.5 -114.5t-95.5 -284.5q0 -180 97 -286.5t261 -106.5q116 0 188 37.5t121 136.5h-305v315h676q4 -60 4 -114 q0 -174 -43 -302q-38 -109 -106 -191t-154.5 -130t-182 -71t-198.5 -23q-111 0 -217 28.5t-200.5 89t-165.5 145.5t-112.5 206.5t-41.5 263.5z" />
<glyph unicode="H" horiz-adv-x="1501" d="M154 0v1434h374v-519h445v519h375v-1434h-375v573h-445v-573h-374z" />
<glyph unicode="I" horiz-adv-x="935" d="M98 0v303h183v827h-166v304h706v-304h-166v-827h183v-303h-740z" />
<glyph unicode="J" horiz-adv-x="1284" d="M47 473v186h348v-180q0 -83 53.5 -125.5t139.5 -42.5q83 0 131.5 42.5t48.5 125.5v633h-211v322h586v-961q0 -114 -45 -208.5t-121 -156t-176 -95t-211 -33.5q-151 0 -273 57t-196 170.5t-74 265.5z" />
<glyph unicode="K" horiz-adv-x="1480" d="M154 0v1434h374v-562h27h32t31 0.5t34.5 2t30.5 4t30 6.5t24 10q46 23 70 83t59 208q14 55 38.5 99t66 82.5t98.5 58t136 24.5q14 1 29 1q68 0 150 -19v-252q-13 1 -25 1q-55 -1 -90 -19q-43 -22 -59 -85q-37 -136 -78 -227t-98 -154q48 -74 189.5 -297t220.5 -344v-55 h-424l-313 553q-43 -6 -179 -6v-547h-374z" />
<glyph unicode="L" horiz-adv-x="1081" d="M154 0v1434h374v-1098h519v-336h-893z" />
<glyph unicode="M" horiz-adv-x="1710" d="M154 0v1438h133l569 -621l567 621h133v-1438h-374v662l-305 -320h-43l-306 320v-662h-374z" />
<glyph unicode="N" horiz-adv-x="1546" d="M154 0v1440h116l748 -707v701h375v-1438h-111l-754 743v-739h-374z" />
<glyph unicode="O" horiz-adv-x="1626" d="M78 717q0 144 41 267t111.5 210t165 148t201.5 90.5t220 29.5q112 0 217 -29.5t198.5 -90.5t163.5 -148t111 -210t41 -267q0 -162 -54.5 -300.5t-151 -236t-233.5 -152.5t-298 -55q-115 0 -221.5 29t-200 90t-162.5 147.5t-109 209.5t-40 268zM453 717q0 -93 30 -168.5 t81 -122.5t115 -72.5t134 -25.5q68 0 131.5 25.5t115.5 72.5t83 122.5t31 168.5t-30.5 168.5t-81.5 122.5t-114 72.5t-131 25.5q-71 0 -135.5 -24.5t-116 -71t-82 -122.5t-30.5 -171z" />
<glyph unicode="P" horiz-adv-x="1347" d="M156 2v1434h632q125 0 226 -46t164 -122q62 -76 94 -172q31 -90 31 -187v-12q0 -100 -33.5 -192.5t-96 -167.5t-162.5 -119.5t-223 -44.5h-258v-371h-374zM524 698h264q70 0 113 63t43 146q0 82 -41.5 142.5t-114.5 60.5h-264v-412z" />
<glyph unicode="Q" horiz-adv-x="1628" d="M78 717q0 336 203 540.5t532 204.5q112 0 217.5 -29.5t199 -90.5t164 -148t111.5 -210t41 -267q0 -249 -110 -422l149 -256v-55h-338l-55 94q-181 -98 -383 -98h-12q-142 2 -271 53.5t-229 143.5t-159.5 232t-59.5 308zM453 717q0 -93 30 -168.5t81 -122.5t115 -72.5 t134 -25.5q68 0 131 25t114.5 71.5t82 122.5t30.5 170q0 95 -30.5 171t-82 122.5t-115 71t-132.5 24.5q-146 0 -252 -103.5t-106 -285.5z" />
<glyph unicode="R" horiz-adv-x="1425" d="M156 2v1434h630q125 0 226 -43.5t163 -116.5t95 -162t33 -186q-2 -127 -56 -237.5t-157 -180.5l280 -455v-53h-397l-246 449h-197v-449h-374zM524 756h260q74 0 115 53.5t41 126.5t-40.5 123.5t-115.5 50.5h-260v-354z" />
<glyph unicode="S" horiz-adv-x="1329" d="M82 440h356q0 -70 67.5 -108.5t160.5 -38.5q86 0 152.5 37t66.5 98q0 28 -10 51t-23 37.5t-39 26t-43.5 17t-51.5 10t-49 5.5t-48 3q-83 5 -155.5 20.5t-142 48t-118.5 78.5t-79 115.5t-30 156.5q0 113 45.5 204t123.5 148t177 87t211 30q106 0 204 -30.5t177 -87.5 q80 -56 126 -148q45 -88 44 -194v-9h-350q-1 69 -57 104.5t-138 35.5q-36 0 -66.5 -5.5t-61 -19t-48.5 -40.5t-18 -66q0 -67 52.5 -94.5t166.5 -39.5q71 -6 128 -14.5t118 -24.5t107 -38t88.5 -56t70 -77t43.5 -103t16 -133q0 -109 -50 -198t-133 -145t-186.5 -86 t-215.5 -30q-92 0 -178 18t-161.5 56t-131.5 93q-55 56 -87 134q-30 74 -30 161v11z" />
<glyph unicode="T" horiz-adv-x="1142" d="M39 1106v328h1065v-328h-350v-1106h-363v1106h-352z" />
<glyph unicode="U" horiz-adv-x="1445" d="M141 473v961h375v-953q0 -84 61.5 -127t149.5 -43q84 0 145.5 43.5t61.5 126.5v953h371v-961q0 -117 -48 -212t-129.5 -155t-185 -92t-217.5 -32q-115 0 -219 32t-186 92t-130.5 155t-48.5 212z" />
<glyph unicode="V" horiz-adv-x="1388" d="M-6 1378v56h399l180 -426l121 -375h6l117 375l176 426h400v-56l-619 -1392h-156z" />
<glyph unicode="W" horiz-adv-x="1947" d="M12 1378v56h394l135 -392l108 -417h6l242 784h154l252 -784h6l100 417l133 392h393v-56l-512 -1392h-198l-248 655h-6l-238 -655h-209z" />
<glyph unicode="X" horiz-adv-x="1415" d="M18 0v53l465 707l-415 618v56h405l232 -392h8l231 392h404v-56l-414 -618l463 -707v-53h-418l-264 449h-13l-262 -449h-422z" />
<glyph unicode="Y" horiz-adv-x="1312" d="M-12 1378v56h401l260 -476h17l260 476h397v-56l-479 -811v-567h-375v567z" />
<glyph unicode="Z" horiz-adv-x="1257" d="M49 0v53l578 1055h-527v326h1076v-56l-576 -1044h582v-334h-1133z" />
<glyph unicode="[" horiz-adv-x="716" d="M137 -406v1999h500v-280h-176v-1409h176v-310h-500z" />
<glyph unicode="\" horiz-adv-x="1157" d="M53 1434h359l692 -1432h-359z" />
<glyph unicode="]" horiz-adv-x="716" d="M80 -96h176v1409h-176v280h500v-1999h-500v310z" />
<glyph unicode="^" horiz-adv-x="1196" d="M86 809l387 645h250l387 -645h-303l-211 350l-207 -350h-303z" />
<glyph unicode="_" horiz-adv-x="1269" d="M119 -25h1032v-299h-1032v299z" />
<glyph unicode="`" horiz-adv-x="688" d="M106 1335v31l322 115l168 -371v-33h-283z" />
<glyph unicode="a" horiz-adv-x="1146" d="M66 293v22q0 164 98 251q106 93 285 93q136 0 221 -55v31q0 35 -21.5 59.5t-57.5 35t-67.5 14.5t-66.5 4q-168 0 -273 -54l-41 248q159 72 375 72q106 0 191 -20t154.5 -63.5t108 -121t38.5 -184.5v-318q0 -28 0.5 -41t4.5 -30.5t12.5 -24.5t24.5 -12.5t40 -5.5v-191 q-86 -20 -151 -20q-181 0 -200 155q-38 -80 -127.5 -117.5t-189.5 -37.5q-143 0 -248.5 86.5t-109.5 224.5zM406 317q4 -34 29.5 -51.5t62.5 -17.5q62 0 116 32.5t54 90.5v20q-63 45 -146 45h-10q-56 -6 -86 -36q-22 -23 -22 -58q-1 -12 2 -25z" />
<glyph unicode="b" horiz-adv-x="1193" d="M119 39v1456h346v-522q96 37 201 37q201 -3 330.5 -156t129.5 -379q0 -114 -31 -203.5t-84 -147t-127 -94.5q-76 -38 -158 -53q-77 -14 -165 -14h-12q-214 3 -430 76zM457 270q74 -18 133 -18q188 0 188 223q0 105 -56.5 165t-146.5 60q-59 0 -118 -26v-404z" />
<glyph unicode="c" horiz-adv-x="1153" d="M66 498q0 126 45.5 228t121.5 165t169 96t194 33q89 0 171.5 -26.5t151.5 -77t116.5 -132t60.5 -182.5h-330q-18 55 -60.5 84t-95.5 29h-5q-75 0 -132 -56q-59 -58 -59 -161q0 -100 56.5 -158.5t131.5 -60.5h6q50 0 94 30q46 32 64 94h332q-13 -103 -61 -186t-119.5 -134 t-156.5 -77q-82 -26 -170 -26h-7q-100 1 -191 34.5t-165 95.5t-118 163t-44 225z" />
<glyph unicode="d" horiz-adv-x="1245" d="M66 492q0 145 66 265t176 187.5t239 67.5q95 0 190 -39v522h348v-1190q0 -68 8 -84q14 -28 74 -28v-193q-37 -9 -73 -14.5t-78 -7.5q-10 -1 -21 -1q-30 -1 -57 5q-36 8 -66 23t-48 46t-19 74v12q-38 -77 -108.5 -119.5t-157.5 -44.5h-12q-138 1 -243 67 q-109 70 -163.5 187t-54.5 265zM424 492q0 -97 42 -154t130 -57q69 0 109 51t40 123v219q-73 31 -133 31q-84 -2 -136 -58t-52 -155z" />
<glyph unicode="e" horiz-adv-x="1126" d="M68 498q0 104 30 191t81 146t119 100t142 60t152 19q111 -2 198.5 -31.5t143.5 -82.5t87.5 -127.5t31.5 -165t-25 -195.5h-612q6 -47 28 -79t57 -48.5t73.5 -23.5t87.5 -7q86 0 182.5 19t150.5 44l39 -251q-198 -90 -395 -93q-254 0 -412.5 139.5t-158.5 385.5zM418 621 h319q1 8 1 16q0 51 -40 79q-46 32 -108 32q-60 0 -110.5 -33.5t-61.5 -93.5z" />
<glyph unicode="f" horiz-adv-x="880" d="M51 741v246h172l2 105q0 90 20 160t55 117t85.5 77.5t108.5 44t127 14.5h13l125 -9q69 -10 144 -30l-33 -258q-42 13 -79 20q-32 5 -68 5h-11q-43 -1 -73 -14.5t-50 -48t-20 -87.5v-96h287v-246h-287v-741h-350v741h-168z" />
<glyph unicode="g" horiz-adv-x="1204" d="M70 471q2 116 34.5 207t86 150.5t128.5 97.5t157 54q74 13 156 13h21q197 -3 432 -90v-930q0 -134 -40.5 -238t-111.5 -167.5t-163 -95.5q-88 -31 -192 -31h-7q-202 0 -417 113l41 260q168 -88 313 -88h10q106 2 169 61.5t63 192.5v16q-116 -45 -222 -45h-8 q-197 0 -322 141q-128 143 -128 379zM418 471q0 -104 50.5 -161.5t147.5 -57.5q61 0 129 29v409q-91 17 -127 17q-96 0 -148 -66.5t-52 -169.5z" />
<glyph unicode="h" horiz-adv-x="1241" d="M123 0v1495h350v-635q36 71 110.5 110.5t161.5 39.5q84 0 150 -22t109.5 -61t72 -96t41 -122t12.5 -144v-565h-352v565q1 81 -38.5 125.5t-98.5 44.5q-67 0 -117.5 -47.5t-50.5 -128.5v-559h-350z" />
<glyph unicode="i" horiz-adv-x="593" d="M96 1251q0 95 61 147q59 51 138 50h6q81 -2 140 -54t59 -143q0 -93 -59 -144.5t-140 -53.5h-6q-79 0 -138 51q-61 53 -61 147zM123 0l2 973h346v-973h-348z" />
<glyph unicode="j" horiz-adv-x="587" d="M-63 -518l10 256q24 -2 44 -2q70 0 97 22q35 27 35 129v1096h344l-2 -1100q0 -111 -25.5 -192.5t-72 -129t-111.5 -73.5q-62 -24 -137 -24h-9q-80 2 -173 18zM90 1251q0 93 60 145t141 52q82 0 142.5 -52t60.5 -145t-59 -144.5t-140 -53.5h-6q-79 0 -138 51 q-61 53 -61 147z" />
<glyph unicode="k" d="M123 2v1495h346v-850h41q60 0 103.5 20t67.5 50t38 78t18 91.5t4 102.5h330q1 -17 1 -34q0 -147 -40 -255q-44 -120 -172 -202l258 -461v-35h-352l-199 385q-27 -12 -63 -12h-35v-373h-346z" />
<glyph unicode="l" horiz-adv-x="661" d="M111 391v1106h344v-1104q0 -94 44 -125q31 -22 82 -22q21 0 46 4l10 -260q-93 -15 -173 -16h-6q-76 0 -139 24q-65 25 -111.5 71.5t-71.5 128t-25 193.5z" />
<glyph unicode="m" horiz-adv-x="1859" d="M70 799v190q40 13 92 21q39 6 80 6h29q58 -2 106.5 -17.5t80 -53t31.5 -93.5q40 75 118.5 116.5t166.5 41.5q235 0 313 -176q46 82 133.5 129t182.5 47q84 0 146.5 -23t100.5 -61.5t61 -97t31 -121.5q6 -50 5 -109v-33v-565h-352v565q1 82 -37 126q-36 42 -87 42h-5 q-55 -2 -95 -46t-41 -122v-565h-344v565q1 83 -39 127q-38 42 -95 41h-5q-59 -2 -103 -48t-44 -126v-559h-346v686q0 31 -0.5 42t-4.5 29.5t-12.5 24.5t-25 11.5t-41.5 5.5z" />
<glyph unicode="n" horiz-adv-x="1271" d="M70 799v190q46 11 96 17q36 5 77 5q17 -1 33 -1q60 -2 105.5 -16.5t77 -50.5t33.5 -91q40 75 118 116.5t166 41.5q105 0 182 -34t121 -96t64 -140q18 -71 18 -158v-17v-565h-350v565q1 80 -40.5 124t-102.5 46q-67 0 -116.5 -46t-49.5 -130v-559h-348v686v9 q0 27 -0.5 38.5t-4.5 27.5t-13 22t-25 11t-41 5z" />
<glyph unicode="o" horiz-adv-x="1181" d="M66 498q0 125 44.5 226.5t118.5 164t166.5 96t192.5 33.5q80 0 156 -20.5t144 -63t118.5 -103t80 -146.5t29.5 -187t-29 -186.5t-79 -146t-117 -103.5t-142 -63.5t-155 -21.5h-6q-98 1 -188 33q-93 34 -168.5 96t-120.5 164t-45 228zM414 498q0 -103 54 -160 q52 -55 121 -55h5q72 2 124 58.5t52 156.5t-52 156.5t-124 58.5h-5q-69 0 -121 -55q-54 -57 -54 -160z" />
<glyph unicode="p" horiz-adv-x="1226" d="M70 801v190q42 10 84 16q34 5 75 5h20q52 -2 91 -15.5t65.5 -47.5t26.5 -87v-8q40 79 117.5 121.5t167.5 42.5q140 -3 242 -75.5t151 -186.5t49 -254q0 -90 -25.5 -172.5t-69.5 -147t-106.5 -111.5t-134.5 -71q-60 -19 -129 -19q-13 0 -26 1q-84 4 -168 38v-526h-348 v1190q0 70 -9 87q-14 30 -73 30zM492 317q63 -28 121 -30h9q52 0 92 21q44 23 69.5 73t25.5 121q0 85 -44 149q-41 60 -115 60h-9q-68 0 -108.5 -52.5t-40.5 -121.5v-220z" />
<glyph unicode="q" horiz-adv-x="1193" d="M68 502q0 117 31.5 209t84.5 150.5t128 95.5t158 51q72 12 153 12h24q209 -6 428 -80v-1456h-348v524q-98 -39 -192 -39h-3q-200 0 -332 153q-132 155 -132 380zM418 487q0 -100 52 -156.5t136 -58.5q59 0 129 31v408q-66 16 -114 16h-6q-95 0 -147 -57q-50 -55 -50 -170 v-13z" />
<glyph unicode="r" horiz-adv-x="966" d="M68 801v190q46 11 95 17q37 4 78 4h29q58 -2 103 -16.5t77 -50t37 -89.5q28 78 102.5 120t164.5 42h10q108 0 190 -60l-69 -282q-70 49 -160 49h-10q-94 -5 -155.5 -63.5t-61.5 -165.5v-496h-342v688q0 65 -15 89t-73 24z" />
<glyph unicode="s" horiz-adv-x="1056" d="M68 313h340q0 -44 33 -66t81 -22q46 0 80.5 21t34.5 57q0 22 -8.5 36.5t-26 22.5t-33.5 11t-41 6q-53 6 -87 11t-85.5 16.5t-85 24.5t-72 36t-61.5 51.5t-38 70t-15 91.5q0 83 37.5 148.5t100 105.5t140 61t162.5 21q86 0 165 -22.5t141.5 -63.5t98.5 -106 q32 -58 32 -128v-16h-306q-4 36 -41 56q-34 19 -74 18h-8q-44 -2 -74 -19.5t-30 -46.5q-1 -10 0.5 -18.5t6.5 -14.5t9.5 -11t14 -8.5t15 -6t18 -4.5t17 -3t18 -2.5t16.5 -1.5q45 -5 73.5 -8.5t71 -10.5t70 -14.5t63 -21t57.5 -29t46 -38.5t37 -50.5t21 -63.5q7 -32 7 -70v-9 q-3 -107 -70 -184t-166 -112.5t-216 -35.5q-462 0 -469 342z" />
<glyph unicode="t" horiz-adv-x="942" d="M33 764v223h174l39 305h303v-305h301v-246h-301v-344q0 -64 31 -101q30 -37 80 -45q27 -4 56 -5q23 0 46 4q52 6 104 24l29 -260q-87 -24 -169 -34q-52 -6 -103 -6q-29 0 -57 2q-78 6 -142.5 34t-113.5 75t-76 124.5t-27 179.5v352z" />
<glyph unicode="u" horiz-adv-x="1251" d="M113 428v559h352v-559v-16q-1 -72 33 -111q38 -43 96 -43q64 0 111 48.5t47 127.5v553h348v-696q0 -56 13 -76t69 -20v-191q-33 -8 -65.5 -14t-76.5 -10q-32 -3 -60 -3q-10 1 -20 1q-38 2 -75.5 11t-64.5 27.5t-43.5 52t-16.5 78.5q-37 -75 -116 -118t-167 -43 q-107 0 -180.5 33t-112.5 96t-55 138t-16 175z" />
<glyph unicode="v" horiz-adv-x="1138" d="M2 948v39h375l188 -444h4l195 444h373v-39l-498 -966h-137z" />
<glyph unicode="w" horiz-adv-x="1562" d="M10 948v39h373l92 -237l57 -181h7l174 396h133l176 -396h8l57 181l89 237h376v-39l-422 -966h-118l-234 415l-229 -415h-119z" />
<glyph unicode="x" horiz-adv-x="1107" d="M20 0v39l336 485l-282 424v39h332l143 -223h8l137 223h357v-39l-299 -446l325 -463v-39h-340l-174 274h-8l-174 -274h-361z" />
<glyph unicode="y" horiz-adv-x="1155" d="M2 948v39h373l211 -579h8l186 579h346v-39l-409 -1059q-53 -136 -111 -221t-134 -130q-67 -39 -148 -39q-13 0 -26 1q-97 7 -222 64l30 223q69 -31 121 -31q32 0 58 12q69 29 110 150l27 82z" />
<glyph unicode="z" horiz-adv-x="999" d="M53 0v39l383 661h-346v287h832v-39l-375 -639h377v-309h-871z" />
<glyph unicode="{" horiz-adv-x="702" d="M59 510v256q67 4 91 43.5t24 110.5v376q0 67 13 118.5t30.5 85t54 56.5t64.5 35t83 17.5t88 6.5t99 1h17v-246q-58 2 -90.5 -16t-32.5 -70v-397q0 -87 -53 -155.5t-138 -94.5q92 -29 141.5 -97.5t49.5 -162.5v-434q0 -53 33.5 -67t89.5 -5v-277h-21q-70 0 -104 1t-89 7 t-81.5 18t-62 36t-51.5 59.5t-28 89t-12 123.5v418q0 32 -5.5 59t-18 51.5t-36 39t-55.5 14.5z" />
<glyph unicode="|" horiz-adv-x="602" d="M143 -186v1646h316v-1646h-316z" />
<glyph unicode="}" horiz-adv-x="702" d="M80 -129q56 -9 89.5 5t33.5 67v434q0 95 49 163t141 97q-85 26 -137.5 94.5t-52.5 155.5v397q0 52 -32.5 70t-90.5 16v246q171 0 235 -12q136 -26 183 -131q30 -69 30 -177v-376q0 -71 24 -110.5t91 -43.5v-256q-32 0 -55.5 -14.5t-36 -39t-18 -51.5t-5.5 -59v-418 q0 -70 -12 -123.5t-27.5 -89t-51 -59.5t-62 -36t-82 -18t-88.5 -7t-104 -1h-21v277z" />
<glyph unicode="~" horiz-adv-x="1290" d="M76 627q24 99 83 169.5t137 102.5t171.5 26t185.5 -53q11 -5 35 -17t37.5 -18.5t36.5 -16.5t38 -14.5t36.5 -8.5t36 -2t32.5 8t31.5 18t27 31t23.5 45q44 -20 115 -55.5t115 -55.5q-48 -152 -127 -227.5t-184.5 -77.5t-241.5 56q-19 8 -51.5 22.5t-53.5 23.5t-51.5 19.5 t-52 13.5t-47.5 1t-46 -13t-40.5 -33.5t-36.5 -56.5z" />
<glyph unicode="&#xa1;" horiz-adv-x="626" d="M111 817q0 84 57 135.5t145 51.5q86 0 143.5 -52t57.5 -135q0 -85 -57 -136.5t-144 -51.5q-88 0 -145 51.5t-57 136.5zM113 -465l22 1040h354l31 -1040h-407z" />
<glyph unicode="&#xa2;" horiz-adv-x="1234" d="M104 496q0 96 27 179t73 141.5t108.5 103.5t133 66.5t146.5 29.5t149 -8l54 151h143l-68 -192q108 -51 177 -144.5t86 -224.5h-326q-12 34 -39 64l-133 -388q58 -2 105.5 31t66.5 96h330q-14 -117 -72.5 -207.5t-142.5 -140.5t-184 -68.5t-201 -2.5l-52 -148h-151l63 189 q-131 58 -212 179t-81 294zM451 496q0 -95 57 -162l129 377q-77 -5 -131.5 -61t-54.5 -154z" />
<glyph unicode="&#xa3;" horiz-adv-x="1386" d="M92 647v187h131q-6 155 42.5 275t137 192.5t203 109.5t248.5 37q96 0 202 -22.5t189 -63.5l-108 -281q-53 26 -128 40t-137 14q-138 -5 -215 -77t-73 -224h417v-187h-393q25 -142 -4 -237q-1 -2 -5 -15.5t-5.5 -17t-5.5 -15.5t-6 -17t-6.5 -15t-8.5 -16.5t-9 -15 t-11 -15.5q48 29 112.5 29.5t140.5 -13.5t107 -14q59 -2 84.5 35t14.5 135h290q13 -79 13.5 -149t-21 -129t-59.5 -102t-101.5 -67t-146.5 -24q-41 0 -123.5 14t-150 26t-138.5 8t-108 -34h-359v31q94 83 133 174.5t39 199.5q0 88 -26 244h-156z" />
<glyph unicode="&#xa4;" horiz-adv-x="1202" d="M121 418l125 125q-29 76 -29 153q0 93 37 172l-121 121l189 187l131 -132q75 26 157 24.5t154 -32.5l127 127l186 -188l-125 -125q29 -78 29 -154q0 -93 -37 -172l121 -121l-188 -186l-129 133q-76 -29 -158.5 -27t-155.5 33l-125 -127zM461 696q0 -48 20.5 -84t51.5 -52 t67 -16t67 16t51.5 52t20.5 84t-20.5 84t-51.5 52t-67 16t-67 -16t-51.5 -52t-20.5 -84z" />
<glyph unicode="&#xa5;" horiz-adv-x="1341" d="M68 1380v54h399l199 -476h12l196 476h400v-54l-352 -684h198v-172h-262v-108h262v-174h-262v-242h-375v242h-262v174h262v108h-262v172h197z" />
<glyph unicode="&#xa6;" horiz-adv-x="606" d="M145 -51v684h316v-684h-316zM145 784v676h316v-676h-316z" />
<glyph unicode="&#xa7;" horiz-adv-x="1329" d="M102 94h340q0 -60 66 -92.5t156 -32.5q81 0 144.5 31.5t63.5 81.5q0 28 -9 49.5t-33.5 35t-39 22t-55 13.5t-51 6t-54.5 4q-8 1 -12 1q-80 5 -149 18t-135.5 40t-113 65.5t-75 97.5t-28.5 133q0 151 135 250q-135 91 -135 254q0 97 43.5 174.5t118 125t169 72.5t201.5 25 q103 0 197.5 -25.5t170.5 -73.5t120.5 -125.5t42.5 -172.5h-336q0 58 -54.5 88.5t-132.5 30.5q-34 0 -64 -4.5t-59.5 -16t-47 -35.5t-17.5 -57q0 -56 51 -79t160 -31q82 -6 144 -15.5t128.5 -27t113.5 -45t85.5 -66.5t58 -96.5t19.5 -130.5q0 -145 -113 -244 q113 -86 113 -260q0 -93 -47.5 -168.5t-127 -122.5t-179 -72.5t-207.5 -25.5q-112 0 -213 25.5t-181.5 73.5t-127 126t-44.5 176zM446 604q1 -65 58.5 -98.5t175.5 -44.5q77 -3 147 -15q76 50 76 127q0 123 -285 142q-62 4 -94 10q-78 -50 -78 -121z" />
<glyph unicode="&#xa8;" horiz-adv-x="1183" d="M117 1286q0 78 55.5 127t136.5 49t137 -49t56 -127t-55.5 -126t-137.5 -48q-81 0 -136.5 48t-55.5 126zM674 1286q0 78 54.5 127t137.5 49q81 0 136 -49t55 -127t-55 -126t-136 -48q-83 0 -137.5 48t-54.5 126z" />
<glyph unicode="&#xa9;" horiz-adv-x="1607" d="M94 711q0 172 61 311t160.5 224.5t227 131.5t261 46t261 -46t227 -131.5t160.5 -224.5t61 -311t-61 -311.5t-160.5 -225t-227 -132t-261 -46.5t-261 46.5t-227 132t-160.5 225t-61 311.5zM344 711q0 -120 39.5 -216.5t104 -156.5t147.5 -92t169 -32t169 32t147.5 92 t104 156.5t39.5 216.5t-39.5 217t-104 156.5t-147.5 92t-169 32.5t-169 -32.5t-147.5 -92t-104 -156.5t-39.5 -217zM487 709q0 77 25 140t66.5 103.5t95.5 64.5t111 28t113 -11t101.5 -47.5t77 -87t39.5 -123.5h-198q-14 42 -50 60t-72.5 11t-65 -44t-28.5 -94 q0 -45 18.5 -79t47 -47.5t58.5 -13.5t55.5 21.5t36.5 58.5h200q-10 -91 -61 -156.5t-121 -92.5t-149 -22t-145.5 41.5t-110.5 112.5t-44 177z" />
<glyph unicode="&#xaa;" horiz-adv-x="1026" d="M111 928q-16 125 72 198.5t220 73.5q89 0 160 -41v12q0 25 -15.5 43t-41 26t-48.5 11.5t-48 3.5q-124 0 -193 -36l-31 174q119 55 267 55q74 0 138 -15t118 -46.5t85 -88t31 -133.5v-225q0 -24 1 -35.5t6.5 -24t18.5 -17.5t34 -5v-137q-25 -6 -50 -9.5t-57 -6t-59 2 t-51 14.5t-38.5 32t-15.5 53q0 10 -2 12q-23 -56 -88.5 -83t-140.5 -27q-111 0 -183.5 52t-88.5 167zM170 373v217h694v-217h-694zM371 954q3 -55 67 -55q43 0 83 23.5t40 64.5v14q-46 34 -112 31q-41 -4 -62 -27t-16 -51z" />
<glyph unicode="&#xab;" horiz-adv-x="1083" d="M86 709l324 520l153 -78l-192 -442l192 -437l-153 -79zM500 709l323 520l154 -78l-193 -442l193 -437l-154 -79z" />
<glyph unicode="&#xac;" horiz-adv-x="1200" d="M123 532v299h934v-593h-279v294h-655z" />
<glyph unicode="&#xad;" horiz-adv-x="972" d="M117 532v299h739v-299h-739z" />
<glyph unicode="&#xae;" horiz-adv-x="1607" d="M94 717q0 172 61 311t160.5 224.5t227 131.5t261 46t261 -46t227 -131.5t160.5 -224.5t61 -311t-61 -311.5t-160.5 -225t-227 -132t-261 -46.5t-261 46.5t-227 132t-160.5 225t-61 311.5zM346 717q0 -120 39.5 -216.5t104 -156.5t147 -92t168.5 -32t168.5 32t147 92 t104 156.5t39.5 216.5t-39.5 217t-104 157t-147 92.5t-168.5 32.5t-168.5 -32.5t-147 -92.5t-104 -157t-39.5 -217zM549 391v662h305q114 0 184 -61t70 -175q0 -146 -109 -188l125 -201v-37h-206l-113 207h-53v-207h-203zM752 760h82q34 0 52.5 17t18.5 42t-18 42.5 t-53 17.5h-82v-119z" />
<glyph unicode="&#xaf;" horiz-adv-x="1021" d="M170 1155v277h680v-277h-680z" />
<glyph unicode="&#xb0;" horiz-adv-x="923" d="M78 1104q0 86 33 156t87 113t123 66t141 23t141 -23t123 -66t87 -113t33 -156t-33 -156t-87 -113t-123 -66t-141 -23t-141 23t-123 66t-87 113t-33 156zM330 1104q0 -43 19 -74t48 -45t62 -14t62 14t48 45t19 74t-19 74.5t-48 46t-62 14.5t-62 -14.5t-48 -46t-19 -74.5z " />
<glyph unicode="&#xb1;" horiz-adv-x="1083" d="M137 4v299h805v-299h-805zM145 604v285h258v252h277v-252h262v-285h-262v-194h-277v194h-258z" />
<glyph unicode="&#xb2;" horiz-adv-x="858" d="M111 614v58l329 450q54 75 42 129t-76 54q-30 0 -49 -21.5t-19 -56.5h-217q-4 141 79.5 223t225.5 82q110 0 182.5 -48.5t95.5 -120t9.5 -154.5t-64.5 -152l-160 -211h252v-232h-630z" />
<glyph unicode="&#xb3;" horiz-adv-x="825" d="M82 899h231q-1 -35 25 -55.5t68 -20.5q38 0 60.5 27.5t22.5 60.5q0 32 -9 53.5t-19 32t-34.5 16t-39 5.5t-49.5 -1t-49 -1v31l117 270h-287v201h602v-37l-154 -297q101 -34 139.5 -104t38.5 -167q0 -57 -21.5 -111.5t-61.5 -100.5t-105.5 -74.5t-146.5 -28.5 q-141 0 -234.5 83t-93.5 218z" />
<glyph unicode="&#xb4;" horiz-adv-x="620" d="M53 1077v33l168 371l322 -115v-31l-207 -258h-283z" />
<glyph unicode="&#xb5;" horiz-adv-x="1212" d="M135 -512v1501h334v-581q1 -74 41.5 -114t99.5 -40q66 0 116 47t50 127v561h334v-989h-334v129q-12 -61 -54 -98t-101 -37q-55 0 -88.5 20.5t-63.5 69.5v-596h-334z" />
<glyph unicode="&#xb6;" horiz-adv-x="1671" d="M72.5 817q-8.5 88 0 175.5t50 166.5t101 140t153.5 97t207 36h915v-1893h-348v1575h-252v-1575h-348v826q-102 3 -189 41t-144 100.5t-97 142.5t-48.5 168z" />
<glyph unicode="&#xb7;" horiz-adv-x="606" d="M100 735q0 85 58 137t145 52q88 0 145.5 -52t57.5 -137t-57.5 -135.5t-145.5 -50.5q-87 0 -145 51t-58 135z" />
<glyph unicode="&#xb8;" horiz-adv-x="802" d="M147 -438l21 188q43 -29 116 -31.5t89 35.5q11 39 -33 60.5t-92 21.5l53 197h258l-35 -139q99 -16 132 -85.5t6 -156.5q-21 -69 -83 -108t-138 -44.5t-155 11t-139 51.5z" />
<glyph unicode="&#xb9;" horiz-adv-x="749" d="M115 614v209h141v486h-123v209h383v-695h143v-209h-544z" />
<glyph unicode="&#xba;" horiz-adv-x="1114" d="M111 1092q0 97 38 176t99.5 127.5t140.5 75t162 26.5t162 -26.5t140.5 -75t99.5 -127.5t38 -176t-38 -176t-99.5 -127.5t-140.5 -75t-162 -26.5t-162 26.5t-140.5 75t-99.5 127.5t-38 176zM119 289v293h882v-293h-882zM403 1094q0 -44 16.5 -78.5t43.5 -52t59 -26t64 0 t59 26t43.5 52t16.5 78.5q0 43 -16.5 77.5t-43.5 52t-59 25.5t-64 0t-59 -25.5t-43.5 -52t-16.5 -77.5z" />
<glyph unicode="&#xbb;" horiz-adv-x="1083" d="M106 272l193 437l-193 442l154 78l324 -520l-324 -516zM520 272l193 437l-193 442l154 78l323 -520l-323 -516z" />
<glyph unicode="&#xbc;" horiz-adv-x="2052" d="M94 545v209h142v485h-123v209h383v-694h143v-209h-545zM530 2l693 1432h307l-692 -1432h-308zM1247 158v116l363 627h286v-526h80v-217h-80v-160h-245v160h-404zM1542 365h127v120l14 125h-2z" />
<glyph unicode="&#xbd;" horiz-adv-x="2060" d="M92 545v209h141v485h-122v209h383v-694h143v-209h-545zM528 2l693 1432h307l-692 -1432h-308zM1352 -2v57l329 451q54 75 42 128.5t-76 53.5q-30 0 -49 -21.5t-19 -56.5h-217q-4 141 79.5 223t225.5 82q110 0 182.5 -48.5t95.5 -120t9.5 -154.5t-64.5 -152l-159 -211h251 v-231h-630z" />
<glyph unicode="&#xbe;" horiz-adv-x="2103" d="M74 825h231q-1 -35 24.5 -55t67.5 -20q38 0 61 27.5t23 60.5q0 27 -5 47t-17 31t-24 17.5t-33 8.5t-36 2t-42.5 -1t-42.5 -1v31l116 270h-286v201h602v-37l-154 -297q101 -34 139.5 -103.5t38.5 -166.5q0 -57 -21.5 -112t-61.5 -101t-106 -74.5t-147 -28.5 q-141 0 -234 83t-93 218zM580 2l692 1432h307l-692 -1432h-307zM1296 158v116l363 627h287v-526h79v-217h-79v-160h-246v160h-404zM1591 365h127v120l15 125h-2z" />
<glyph unicode="&#xbf;" horiz-adv-x="1077" d="M78 -39q0 71 22.5 133.5t55.5 105t71.5 87.5t70.5 82.5t51.5 89.5t15.5 108h362q7 -66 -5 -122t-36.5 -97t-56 -77t-65.5 -69.5t-62.5 -67t-48.5 -76.5t-23 -91q-4 -53 39.5 -82.5t99.5 -29.5q59 2 99.5 36.5t40.5 102.5h307q4 -219 -125 -339.5t-330 -125.5 q-218 -4 -350.5 121t-132.5 311zM346 819q0 84 56 135.5t143 51.5q88 0 146.5 -52t58.5 -135q0 -85 -58.5 -136.5t-146.5 -51.5q-87 0 -143 51.5t-56 136.5z" />
<glyph unicode="&#xc0;" horiz-adv-x="1433" d="M-25 0v51l658 1397h172l651 -1397v-51h-387l-84 178h-536l-82 -178h-392zM389 1817v30l322 115l168 -371v-32h-283zM569 492h297l-149 346z" />
<glyph unicode="&#xc1;" horiz-adv-x="1433" d="M-25 0v51l658 1397h172l651 -1397v-51h-387l-84 178h-536l-82 -178h-392zM569 492h297l-149 346zM575 1554v33l168 371l322 -115v-31l-207 -258h-283z" />
<glyph unicode="&#xc2;" horiz-adv-x="1433" d="M-25 0v51l658 1397h172l651 -1397v-51h-387l-84 178h-536l-82 -178h-392zM246 1554v33l297 320h350l295 -320v-33h-336l-135 146l-131 -146h-340zM569 492h297l-149 346z" />
<glyph unicode="&#xc3;" horiz-adv-x="1433" d="M-25 0v51l658 1397h172l651 -1397v-51h-387l-84 178h-536l-82 -178h-392zM301 1653q61 171 170 228t266 -11q6 -3 24.5 -11t28 -12t27 -10t28.5 -7t25.5 0t24.5 8t19.5 20t15.5 32l186 -88q-37 -157 -153 -225t-248 -4q-5 2 -25 11.5t-28.5 13t-27.5 11.5t-30 9.5 t-27.5 4t-27.5 -1t-23.5 -9.5t-22 -18.5t-16.5 -30.5q-22 10 -87.5 42.5t-98.5 47.5zM569 492h297l-149 346z" />
<glyph unicode="&#xc4;" horiz-adv-x="1433" d="M-25 0v51l658 1397h172l651 -1397v-51h-387l-84 178h-536l-82 -178h-392zM244 1690q0 78 55.5 127t136.5 49t137 -49t56 -127t-55.5 -126t-137.5 -48q-81 0 -136.5 48t-55.5 126zM569 492h297l-149 346zM801 1690q0 78 54.5 127t137.5 49q81 0 136 -49t55 -127t-55 -126 t-136 -48q-83 0 -137.5 48t-54.5 126z" />
<glyph unicode="&#xc5;" horiz-adv-x="1433" d="M-25 0v51l637 1354q-85 27 -138.5 92t-53.5 164q0 73 32 130.5t83 87.5t112.5 43.5t123.5 0t113 -43.5t83 -87.5t32 -130.5q0 -95 -49 -158.5t-129 -91.5l635 -1360v-51h-387l-84 178h-536l-82 -178h-392zM569 492h297l-149 346zM618 1661q0 -39 29 -61.5t63.5 -22.5 t63.5 22.5t29 61.5t-29 61t-63.5 22t-63.5 -22t-29 -61z" />
<glyph unicode="&#xc6;" horiz-adv-x="1693" d="M-20 0v55l636 1375h957v-326h-467v-205h424v-309h-424v-266h485v-324h-803v313h-321l-129 -313h-358zM582 618h206l15 496h-4z" />
<glyph unicode="&#xc7;" horiz-adv-x="1556" d="M80 715q0 144 41 265.5t111.5 206.5t164 144.5t199 88t217.5 28.5q91 0 178.5 -19.5t170.5 -62t149 -104.5t113 -154t63 -203h-361q-71 205 -313 205q-163 0 -260.5 -107.5t-97.5 -287.5q0 -161 99.5 -275t258.5 -114q121 0 205 57t112 170h361q-16 -123 -64.5 -222.5 t-120.5 -165.5t-158 -107t-183 -58l-27 -106q99 -16 131.5 -85.5t5.5 -156.5q-21 -69 -82.5 -108t-137.5 -44.5t-155 11t-139 51.5l21 188q43 -29 115.5 -31.5t88.5 35.5q7 27 -14.5 47t-51.5 27.5t-58 7.5l40 158q-125 16 -235 70t-197.5 142t-138.5 219.5t-51 289.5z" />
<glyph unicode="&#xc8;" d="M154 0v1434h895v-326h-521v-205h480v-328h-480v-233h539v-342h-913zM309 1794v31l322 114l168 -370v-33h-283z" />
<glyph unicode="&#xc9;" d="M154 0v1434h895v-326h-521v-205h480v-328h-480v-233h539v-342h-913zM451 1540v33l167 371l322 -115v-31l-207 -258h-282z" />
<glyph unicode="&#xca;" d="M154 0v1434h895v-326h-521v-205h480v-328h-480v-233h539v-342h-913zM162 1536v31l284 315h334l281 -315v-31h-320l-129 143l-125 -143h-325z" />
<glyph unicode="&#xcb;" d="M135 1716q0 78 56 127t137 49t136.5 -49t55.5 -127t-55.5 -126t-136.5 -48q-82 0 -137.5 48t-55.5 126zM154 0v1434h895v-326h-521v-205h480v-328h-480v-233h539v-342h-913zM692 1716q0 78 55 127t138 49q81 0 135.5 -49t54.5 -127t-54.5 -126t-135.5 -48q-83 0 -138 48 t-55 126z" />
<glyph unicode="&#xcc;" horiz-adv-x="935" d="M98 0v303h183v827h-166v304h706v-304h-166v-827h183v-303h-740zM150 1796v31l321 115l168 -371v-33h-283z" />
<glyph unicode="&#xcd;" horiz-adv-x="935" d="M98 0v303h183v827h-166v304h706v-304h-166v-827h183v-303h-740zM293 1542v33l168 371l321 -115v-31l-207 -258h-282z" />
<glyph unicode="&#xce;" horiz-adv-x="935" d="M20 1552v31l283 311h336l283 -311v-31h-322l-129 142l-127 -142h-324zM98 0v303h183v827h-166v304h706v-304h-166v-827h183v-303h-740z" />
<glyph unicode="&#xcf;" horiz-adv-x="935" d="M2 1716q0 78 56 127t137 49t136.5 -49t55.5 -127t-55.5 -126t-136.5 -48q-82 0 -137.5 48t-55.5 126zM98 0v303h183v827h-166v304h706v-304h-166v-827h183v-303h-740zM559 1716q0 78 55 127t138 49q81 0 135.5 -49t54.5 -127t-54.5 -126t-135.5 -48q-83 0 -138 48 t-55 126z" />
<glyph unicode="&#xd0;" horiz-adv-x="1511" d="M27 559v293h151v580h547q136 0 252.5 -40t199 -108.5t141 -159t86.5 -192.5t28 -209q2 -109 -25 -213.5t-85 -197t-140.5 -162t-200.5 -110t-256 -40.5h-547v559h-151zM553 338h168q108 0 186.5 56.5t114 141t35.5 183.5q0 72 -22 138.5t-62.5 120t-106 86t-145.5 32.5 h-168v-244h215v-293h-215v-221z" />
<glyph unicode="&#xd1;" horiz-adv-x="1546" d="M154 0v1440h116l748 -707v701h375v-1438h-111l-754 743v-739h-374zM338 1638q61 171 170 228t266 -11q6 -2 24.5 -10.5t28 -12.5t27.5 -10t28.5 -6.5t25.5 0.5t24.5 8t19 20t15.5 32l186 -88q-37 -157 -153 -225t-248 -4q-4 2 -25 12t-28.5 13l-27.5 11t-30 9t-27.5 4 t-28 -1t-23 -10t-22 -18.5t-16.5 -30.5q-22 10 -87.5 42.5t-98.5 47.5z" />
<glyph unicode="&#xd2;" horiz-adv-x="1626" d="M78 717q0 144 41 267t111.5 210t165 148t201.5 90.5t220 29.5q112 0 217 -29.5t198.5 -90.5t163.5 -148t111 -210t41 -267q0 -162 -54.5 -300.5t-151 -236t-233.5 -152.5t-298 -55q-115 0 -221.5 29t-200 90t-162.5 147.5t-109 209.5t-40 268zM453 717q0 -93 30 -168.5 t81 -122.5t115 -72.5t134 -25.5q68 0 131.5 25.5t115.5 72.5t83 122.5t31 168.5t-30.5 168.5t-81.5 122.5t-114 72.5t-131 25.5q-71 0 -135.5 -24.5t-116 -71t-82 -122.5t-30.5 -171zM483 1821v30l322 115l168 -371v-32h-283z" />
<glyph unicode="&#xd3;" horiz-adv-x="1626" d="M78 717q0 144 41 267t111.5 210t165 148t201.5 90.5t220 29.5q112 0 217 -29.5t198.5 -90.5t163.5 -148t111 -210t41 -267q0 -162 -54.5 -300.5t-151 -236t-233.5 -152.5t-298 -55q-115 0 -221.5 29t-200 90t-162.5 147.5t-109 209.5t-40 268zM453 717q0 -93 30 -168.5 t81 -122.5t115 -72.5t134 -25.5q68 0 131.5 25.5t115.5 72.5t83 122.5t31 168.5t-30.5 168.5t-81.5 122.5t-114 72.5t-131 25.5q-71 0 -135.5 -24.5t-116 -71t-82 -122.5t-30.5 -171zM641 1565v32l168 371l321 -115v-30l-206 -258h-283z" />
<glyph unicode="&#xd4;" horiz-adv-x="1626" d="M78 717q0 144 41 267t111.5 210t165 148t201.5 90.5t220 29.5q112 0 217 -29.5t198.5 -90.5t163.5 -148t111 -210t41 -267q0 -162 -54.5 -300.5t-151 -236t-233.5 -152.5t-298 -55q-115 0 -221.5 29t-200 90t-162.5 147.5t-109 209.5t-40 268zM340 1563v32l297 320h350 l295 -320v-32h-336l-135 145l-131 -145h-340zM453 717q0 -93 30 -168.5t81 -122.5t115 -72.5t134 -25.5q68 0 131.5 25.5t115.5 72.5t83 122.5t31 168.5t-30.5 168.5t-81.5 122.5t-114 72.5t-131 25.5q-71 0 -135.5 -24.5t-116 -71t-82 -122.5t-30.5 -171z" />
<glyph unicode="&#xd5;" horiz-adv-x="1626" d="M78 717q0 144 41 267t111.5 210t165 148t201.5 90.5t220 29.5q112 0 217 -29.5t198.5 -90.5t163.5 -148t111 -210t41 -267q0 -162 -54.5 -300.5t-151 -236t-233.5 -152.5t-298 -55q-115 0 -221.5 29t-200 90t-162.5 147.5t-109 209.5t-40 268zM403 1681q61 171 170.5 228 t266.5 -11q6 -3 24.5 -11t28 -12t27 -10t28 -6.5t25.5 0.5t24.5 8t19 20t15.5 32l187 -88q-37 -157 -153.5 -225t-248.5 -4q-4 2 -24.5 11.5t-28.5 13t-27.5 11.5t-30 9t-27.5 4t-27.5 -1t-23 -10t-22 -18.5t-16.5 -30.5q-20 10 -87 42.5t-100 47.5zM453 717 q0 -93 30 -168.5t81 -122.5t115 -72.5t134 -25.5q68 0 131.5 25.5t115.5 72.5t83 122.5t31 168.5t-30.5 168.5t-81.5 122.5t-114 72.5t-131 25.5q-71 0 -135.5 -24.5t-116 -71t-82 -122.5t-30.5 -171z" />
<glyph unicode="&#xd6;" horiz-adv-x="1626" d="M78 717q0 144 41 267t111.5 210t165 148t201.5 90.5t220 29.5q112 0 217 -29.5t198.5 -90.5t163.5 -148t111 -210t41 -267q0 -162 -54.5 -300.5t-151 -236t-233.5 -152.5t-298 -55q-115 0 -221.5 29t-200 90t-162.5 147.5t-109 209.5t-40 268zM342 1733q0 78 56 127 t137 49t136.5 -49t55.5 -127t-55.5 -126t-136.5 -48q-82 0 -137.5 48t-55.5 126zM453 717q0 -93 30 -168.5t81 -122.5t115 -72.5t134 -25.5q68 0 131.5 25.5t115.5 72.5t83 122.5t31 168.5t-30.5 168.5t-81.5 122.5t-114 72.5t-131 25.5q-71 0 -135.5 -24.5t-116 -71 t-82 -122.5t-30.5 -171zM899 1733q0 78 55 127t138 49q81 0 135.5 -49t54.5 -127t-54.5 -126t-135.5 -48q-83 0 -138 48t-55 126z" />
<glyph unicode="&#xd7;" horiz-adv-x="1085" d="M141 901l209 211l193 -190l188 186l209 -209l-188 -188l190 -191l-211 -209l-188 189l-189 -187l-211 209l189 189z" />
<glyph unicode="&#xd8;" horiz-adv-x="1619" d="M78 717q0 145 41 268t111.5 209t164.5 146.5t200 89t218 28.5q145 0 248 -39l80 137h350v-34l-160 -265q211 -201 211 -540q0 -145 -41 -268t-111 -209t-163.5 -146.5t-199.5 -89.5t-218 -29q-122 0 -225 33l-84 -139q-38 0 -109 -0.5t-129.5 -0.5t-109.5 1v39l153 256 q-227 201 -227 553zM453 717q0 -134 65 -234l369 615q-37 6 -76 6q-68 0 -131 -25t-114.5 -72t-82 -122t-30.5 -168zM758 334q36 -4 55 -4q66 0 128.5 25.5t113.5 72.5t81.5 122t30.5 167q0 125 -51 215z" />
<glyph unicode="&#xd9;" horiz-adv-x="1445" d="M141 473v961h375v-953q0 -84 61.5 -127t149.5 -43q84 0 145.5 43.5t61.5 126.5v953h371v-961q0 -117 -48 -212t-129.5 -155t-185 -92t-217.5 -32q-115 0 -219 32t-186 92t-130.5 155t-48.5 212zM393 1794v31l322 114l168 -370v-33h-283z" />
<glyph unicode="&#xda;" horiz-adv-x="1445" d="M141 473v961h375v-953q0 -84 61.5 -127t149.5 -43q84 0 145.5 43.5t61.5 126.5v953h371v-961q0 -117 -48 -212t-129.5 -155t-185 -92t-217.5 -32q-115 0 -219 32t-186 92t-130.5 155t-48.5 212zM569 1530v33l168 370l322 -114v-31l-207 -258h-283z" />
<glyph unicode="&#xdb;" horiz-adv-x="1445" d="M141 473v961h375v-953q0 -84 61.5 -127t149.5 -43q84 0 145.5 43.5t61.5 126.5v953h371v-961q0 -117 -48 -212t-129.5 -155t-185 -92t-217.5 -32q-115 0 -219 32t-186 92t-130.5 155t-48.5 212zM238 1569v33l297 319h350l295 -319v-33h-336l-135 145l-131 -145h-340z" />
<glyph unicode="&#xdc;" horiz-adv-x="1445" d="M141 473v961h375v-953q0 -84 61.5 -127t149.5 -43q84 0 145.5 43.5t61.5 126.5v953h371v-961q0 -117 -48 -212t-129.5 -155t-185 -92t-217.5 -32q-115 0 -219 32t-186 92t-130.5 155t-48.5 212zM270 1743q0 78 56 127t137 49t136.5 -49t55.5 -127t-55.5 -126t-136.5 -48 q-82 0 -137.5 48t-55.5 126zM827 1743q0 78 55 127t138 49q81 0 135.5 -49t54.5 -127t-54.5 -126t-135.5 -48q-83 0 -138 48t-55 126z" />
<glyph unicode="&#xdd;" horiz-adv-x="1312" d="M-12 1378v56h401l260 -476h17l260 476h397v-56l-479 -811v-567h-375v567zM469 1544v33l168 371l321 -115v-31l-206 -258h-283z" />
<glyph unicode="&#xde;" horiz-adv-x="1378" d="M154 0v1434h374v-172h258q125 0 226 -46t163 -122.5t94.5 -172t30.5 -198.5q0 -100 -33.5 -192.5t-95.5 -167.5t-162 -119.5t-223 -44.5h-258v-199h-374zM522 524h264q70 0 113 63t43 146q0 82 -41.5 142.5t-114.5 60.5h-264v-412z" />
<glyph unicode="&#xdf;" horiz-adv-x="1275" d="M123 0v1006q0 623 1032 346v-54l-203 -450q119 -31 187.5 -137.5t68.5 -241.5q0 -136 -46 -242t-127 -164t-192 -71.5t-241 33.5v278q62 -15 104 -8.5t69 36.5t39.5 64t14.5 74q-1 40 -8.5 69t-24.5 47.5t-33.5 29t-48 15.5t-56 6t-68.5 1v55l164 443q-73 30 -136.5 25.5 t-106 -48.5t-42.5 -113v-999h-346z" />
<glyph unicode="&#xe0;" horiz-adv-x="1146" d="M66 293q-7 180 98.5 273t284.5 93q136 0 221 -55v31q0 35 -21.5 59.5t-57.5 35t-67.5 14.5t-66.5 4q-168 0 -273 -54l-41 248q159 72 375 72q106 0 191 -20t154.5 -63.5t108 -121t38.5 -184.5v-318q0 -28 0.5 -41t4.5 -30.5t12.5 -24.5t24.5 -12.5t40 -5.5v-191 q-325 -76 -351 135q-38 -80 -127.5 -117.5t-189.5 -37.5q-143 0 -248.5 86.5t-109.5 224.5zM270 1360v29l295 104l154 -340v-31h-260zM406 317q4 -34 29.5 -51.5t62.5 -17.5q62 0 116 32.5t54 90.5v20q-67 48 -156 45q-57 -5 -86.5 -35.5t-19.5 -83.5z" />
<glyph unicode="&#xe1;" horiz-adv-x="1146" d="M66 293q-7 180 98.5 273t284.5 93q136 0 221 -55v31q0 35 -21.5 59.5t-57.5 35t-67.5 14.5t-66.5 4q-168 0 -273 -54l-41 248q159 72 375 72q106 0 191 -20t154.5 -63.5t108 -121t38.5 -184.5v-318q0 -28 0.5 -41t4.5 -30.5t12.5 -24.5t24.5 -12.5t40 -5.5v-191 q-325 -76 -351 135q-38 -80 -127.5 -117.5t-189.5 -37.5q-143 0 -248.5 86.5t-109.5 224.5zM397 1116v31l160 348l301 -109v-28l-194 -242h-267zM406 317q4 -34 29.5 -51.5t62.5 -17.5q62 0 116 32.5t54 90.5v20q-67 48 -156 45q-57 -5 -86.5 -35.5t-19.5 -83.5z" />
<glyph unicode="&#xe2;" horiz-adv-x="1146" d="M66 293q-7 180 98.5 273t284.5 93q136 0 221 -55v31q0 35 -21.5 59.5t-57.5 35t-67.5 14.5t-66.5 4q-168 0 -273 -54l-41 248q159 72 375 72q106 0 191 -20t154.5 -63.5t108 -121t38.5 -184.5v-318q0 -28 0.5 -41t4.5 -30.5t12.5 -24.5t24.5 -12.5t40 -5.5v-191 q-325 -76 -351 135q-38 -80 -127.5 -117.5t-189.5 -37.5q-143 0 -248.5 86.5t-109.5 224.5zM135 1122v33l262 305h310l260 -305v-33h-297l-119 142l-115 -142h-301zM406 317q4 -34 29.5 -51.5t62.5 -17.5q62 0 116 32.5t54 90.5v20q-67 48 -156 45q-57 -5 -86.5 -35.5 t-19.5 -83.5z" />
<glyph unicode="&#xe3;" horiz-adv-x="1146" d="M66 293q-7 180 98.5 273t284.5 93q136 0 221 -55v31q0 35 -21.5 59.5t-57.5 35t-67.5 14.5t-66.5 4q-168 0 -273 -54l-41 248q159 72 375 72q106 0 191 -20t154.5 -63.5t108 -121t38.5 -184.5v-318q0 -28 0.5 -41t4.5 -30.5t12.5 -24.5t24.5 -12.5t40 -5.5v-191 q-325 -76 -351 135q-38 -80 -127.5 -117.5t-189.5 -37.5q-143 0 -248.5 86.5t-109.5 224.5zM180 1233q57 161 159 214.5t249 -11.5q3 -2 20 -9.5t23 -10t21.5 -9t23.5 -7t21.5 -2t21.5 2t18.5 9.5t17.5 17t13 27q34 -16 95.5 -45.5t76.5 -36.5q-21 -93 -79 -157t-134 -79 t-160 23q-7 3 -30 13.5t-35 15t-33.5 11.5t-35 6t-30 -4.5t-28.5 -17t-21 -34.5q-85 45 -174 84zM406 317q4 -34 29.5 -51.5t62.5 -17.5q62 0 116 32.5t54 90.5v20q-67 48 -156 45q-57 -5 -86.5 -35.5t-19.5 -83.5z" />
<glyph unicode="&#xe4;" horiz-adv-x="1146" d="M66 293q-7 180 98.5 273t284.5 93q136 0 221 -55v31q0 35 -21.5 59.5t-57.5 35t-67.5 14.5t-66.5 4q-168 0 -273 -54l-41 248q159 72 375 72q106 0 191 -20t154.5 -63.5t108 -121t38.5 -184.5v-318q0 -28 0.5 -41t4.5 -30.5t12.5 -24.5t24.5 -12.5t40 -5.5v-191 q-325 -76 -351 135q-38 -80 -127.5 -117.5t-189.5 -37.5q-143 0 -248.5 86.5t-109.5 224.5zM119 1286q0 78 55.5 127t136.5 49t137 -49t56 -127t-55.5 -126t-137.5 -48q-81 0 -136.5 48t-55.5 126zM406 317q4 -34 29.5 -51.5t62.5 -17.5q62 0 116 32.5t54 90.5v20 q-67 48 -156 45q-57 -5 -86.5 -35.5t-19.5 -83.5zM614 1286q0 78 55 127t138 49q81 0 135.5 -49t54.5 -127t-54.5 -126t-135.5 -48q-83 0 -138 48t-55 126z" />
<glyph unicode="&#xe5;" horiz-adv-x="1146" d="M66 293q-7 180 98.5 273t284.5 93q136 0 221 -55v31q0 35 -21.5 59.5t-57.5 35t-67.5 14.5t-66.5 4q-168 0 -273 -54l-41 248q159 72 375 72q106 0 191 -20t154.5 -63.5t108 -121t38.5 -184.5v-318q0 -28 0.5 -41t4.5 -30.5t12.5 -24.5t24.5 -12.5t40 -5.5v-191 q-325 -76 -351 135q-38 -80 -127.5 -117.5t-189.5 -37.5q-143 0 -248.5 86.5t-109.5 224.5zM293 1315q0 62 29.5 110t76.5 73t103.5 36.5t113 0t103.5 -36.5t76.5 -73t29.5 -110q0 -55 -23 -99t-60.5 -71.5t-85 -42t-97.5 -14.5t-97.5 15t-85 42t-60.5 71.5t-23 98.5z M406 317q4 -34 29.5 -51.5t62.5 -17.5q62 0 116 32.5t54 90.5v20q-67 48 -156 45q-57 -5 -86.5 -35.5t-19.5 -83.5zM477 1315q0 -43 42 -61t84 0t42 61t-42 61t-84 0t-42 -61z" />
<glyph unicode="&#xe6;" horiz-adv-x="1628" d="M66 291q-7 179 98.5 271.5t284.5 92.5q135 0 223 -57v23q0 37 -23 64t-59.5 39.5t-71 18t-69.5 5.5q-74 0 -146.5 -18t-118.5 -40l-41 244q178 76 373 76q254 0 318 -152q39 73 126 112.5t177 39.5q105 -2 186 -34t130.5 -87.5t75 -131t25.5 -163t-24 -184.5h-574 q20 -163 199 -172q86 -4 185 15t157 48l41 -238q-209 -90 -385 -90q-246 0 -358 172q-146 -165 -373 -165q-141 0 -246.5 86t-109.5 225zM406 315q4 -35 29.5 -53t62.5 -18q64 0 118 32.5t54 90.5v20q-76 50 -158 47q-56 -5 -84.5 -35.5t-21.5 -83.5zM961 616h278 q6 58 -30 91.5t-93 33.5q-53 5 -98.5 -28.5t-56.5 -96.5z" />
<glyph unicode="&#xe7;" horiz-adv-x="1157" d="M68 498q0 119 41 217t109 161t155.5 100t180 43.5t184 -17t166.5 -73.5t127.5 -135t66.5 -192h-330q-15 44 -47.5 72t-71 37t-80 -0.5t-75.5 -35t-56 -72t-22 -105.5q0 -60 22 -107.5t56 -73.5t76 -35t80.5 0.5t71 41t46.5 79.5h332q-19 -163 -120.5 -268t-248.5 -139 l-22 -88q62 -8 100 -44t42.5 -82.5t-9.5 -96.5q-21 -63 -78.5 -99t-127 -41.5t-142 9t-127.5 47.5l18 174q40 -27 106.5 -28.5t81.5 32.5q7 25 -11 43.5t-43 25.5t-50 7l35 131q-88 13 -165 52t-138.5 101.5t-97 155t-35.5 203.5z" />
<glyph unicode="&#xe8;" horiz-adv-x="1126" d="M68 498q0 104 30 191t81 146t119 100t142 60t152 19q111 -2 198.5 -31.5t143.5 -82.5t87.5 -127.5t31.5 -165t-25 -195.5h-612q6 -47 28 -79t57 -48.5t73.5 -23.5t87.5 -7q86 0 182.5 19t150.5 44l39 -251q-198 -90 -395 -93q-254 0 -412.5 139.5t-158.5 385.5zM260 1362 v29l301 108l158 -348v-31h-266zM418 621h319q7 62 -39 94.5t-108 32.5q-60 0 -110.5 -33.5t-61.5 -93.5z" />
<glyph unicode="&#xe9;" horiz-adv-x="1126" d="M68 498q0 104 30 191t81 146t119 100t142 60t152 19q111 -2 198.5 -31.5t143.5 -82.5t87.5 -127.5t31.5 -165t-25 -195.5h-612q6 -47 28 -79t57 -48.5t73.5 -23.5t87.5 -7q86 0 182.5 19t150.5 44l39 -251q-198 -90 -395 -93q-254 0 -412.5 139.5t-158.5 385.5zM418 621 h319q7 62 -39 94.5t-108 32.5q-60 0 -110.5 -33.5t-61.5 -93.5zM430 1112v31l156 344l299 -107v-28l-193 -240h-262z" />
<glyph unicode="&#xea;" horiz-adv-x="1126" d="M68 498q0 104 30 191t81 146t119 100t142 60t152 19q111 -2 198.5 -31.5t143.5 -82.5t87.5 -127.5t31.5 -165t-25 -195.5h-612q6 -47 28 -79t57 -48.5t73.5 -23.5t87.5 -7q86 0 182.5 19t150.5 44l39 -251q-198 -90 -395 -93q-254 0 -412.5 139.5t-158.5 385.5zM160 1110 v31l276 295h324l272 -295v-31h-309l-127 135l-121 -135h-315zM418 621h319q7 62 -39 94.5t-108 32.5q-60 0 -110.5 -33.5t-61.5 -93.5z" />
<glyph unicode="&#xeb;" horiz-adv-x="1126" d="M68 498q0 104 30 191t81 146t119 100t142 60t152 19q111 -2 198.5 -31.5t143.5 -82.5t87.5 -127.5t31.5 -165t-25 -195.5h-612q6 -47 28 -79t57 -48.5t73.5 -23.5t87.5 -7q86 0 182.5 19t150.5 44l39 -251q-198 -90 -395 -93q-254 0 -412.5 139.5t-158.5 385.5zM150 1278 q0 72 51.5 118t126.5 46t126.5 -46t51.5 -118t-51.5 -116t-126.5 -44t-126.5 44t-51.5 116zM418 621h319q7 62 -39 94.5t-108 32.5q-60 0 -110.5 -33.5t-61.5 -93.5zM666 1278q0 72 51 118t127 46q75 0 125.5 -46t50.5 -118t-50.5 -116t-125.5 -44q-77 0 -127.5 44 t-50.5 116z" />
<glyph unicode="&#xec;" horiz-adv-x="593" d="M-10 1341v29l311 111l162 -357v-32h-273zM123 0v987h348v-987h-348z" />
<glyph unicode="&#xed;" horiz-adv-x="593" d="M123 0v987h348v-987h-348zM125 1098v30l160 357l309 -111v-28l-199 -248h-270z" />
<glyph unicode="&#xee;" horiz-adv-x="593" d="M-96 1083v35l250 330h295l249 -330v-35h-284l-113 152l-111 -152h-286zM123 0v987h348v-987h-348z" />
<glyph unicode="&#xef;" horiz-adv-x="593" d="M-111 1286q0 74 53 121t130 47q79 0 131.5 -47t52.5 -121q0 -76 -52 -121t-132 -45q-78 0 -130.5 45t-52.5 121zM123 0v987h348v-987h-348zM342 1286q0 74 51.5 121t130.5 47t131 -47t52 -121q0 -76 -51.5 -121t-131.5 -45t-131 45t-51 121z" />
<glyph unicode="&#xf0;" horiz-adv-x="1191" d="M68 494q0 114 43.5 206.5t117 150.5t164 90t189.5 34q36 0 47 -4q-39 70 -72 121l-98 -68l-88 125l96 65q-84 112 -176 201v17h276q58 -43 95 -80l106 69l86 -123l-82 -59q156 -170 253 -363t97 -382q0 -125 -45.5 -227t-119.5 -164t-168.5 -96t-193.5 -34t-193.5 34 t-168.5 96t-119.5 164t-45.5 227zM414 494q0 -52 15.5 -94.5t40.5 -68.5t57 -40t66 -14t66 14t57 40t40.5 68.5t15.5 94.5q0 54 -19.5 97t-51.5 65t-70 32t-76 0t-70 -32t-51.5 -65t-19.5 -97z" />
<glyph unicode="&#xf1;" horiz-adv-x="1271" d="M70 799v190q46 11 96 17.5t109.5 4t105.5 -17t77.5 -50.5t33.5 -91q40 75 118 116.5t166 41.5q105 0 182 -34t121 -96t64 -140.5t18 -174.5v-565h-350v565q1 80 -40.5 124t-102.5 46q-67 0 -116.5 -46t-49.5 -130v-559h-348v686v9q0 27 -0.5 38.5t-4.5 27.5t-13 22 t-25 11t-41 5zM248 1217q57 161 159.5 214.5t251.5 -10.5q3 -1 18 -8.5t20.5 -9.5t20.5 -8t22 -7.5t20 -4t20.5 -0.5t18 5t17.5 10t14 17.5t12 24.5q36 -16 97 -45t79 -37q-37 -149 -146 -213t-233 -4q-4 2 -23.5 11t-27 12t-26.5 10.5t-28.5 9t-26 4t-26.5 -1.5t-21.5 -9.5 t-20.5 -17.5t-15 -29q-14 7 -78.5 39t-97.5 48z" />
<glyph unicode="&#xf2;" horiz-adv-x="1185" d="M68 498q0 125 45 227t119 164t168.5 96t192.5 34t192.5 -34t168.5 -96t119 -164t45 -227t-45 -227t-119 -164t-168.5 -96t-192.5 -34t-192.5 34t-168.5 96t-119 164t-45 227zM297 1360v29l297 106l156 -342v-31h-263zM416 498q0 -59 19.5 -105.5t51 -70.5t69.5 -35t76 0 t69.5 35t51 70.5t19.5 105.5t-19.5 105.5t-51 70.5t-69.5 35t-76 0t-69.5 -35t-51 -70.5t-19.5 -105.5z" />
<glyph unicode="&#xf3;" horiz-adv-x="1185" d="M68 498q0 125 45 227t119 164t168.5 96t192.5 34t192.5 -34t168.5 -96t119 -164t45 -227t-45 -227t-119 -164t-168.5 -96t-192.5 -34t-192.5 34t-168.5 96t-119 164t-45 227zM416 498q0 -59 19.5 -105.5t51 -70.5t69.5 -35t76 0t69.5 35t51 70.5t19.5 105.5t-19.5 105.5 t-51 70.5t-69.5 35t-76 0t-69.5 -35t-51 -70.5t-19.5 -105.5zM434 1120v31l156 344l299 -106v-29l-193 -240h-262z" />
<glyph unicode="&#xf4;" horiz-adv-x="1185" d="M68 498q0 125 45 227t119 164t168.5 96t192.5 34t192.5 -34t168.5 -96t119 -164t45 -227t-45 -227t-119 -164t-168.5 -96t-192.5 -34t-192.5 34t-168.5 96t-119 164t-45 227zM154 1133v32l272 305h319l271 -305v-32h-307l-123 141l-121 -141h-311zM416 498 q0 -59 19.5 -105.5t51 -70.5t69.5 -35t76 0t69.5 35t51 70.5t19.5 105.5t-19.5 105.5t-51 70.5t-69.5 35t-76 0t-69.5 -35t-51 -70.5t-19.5 -105.5z" />
<glyph unicode="&#xf5;" horiz-adv-x="1185" d="M68 498q0 125 45 227t119 164t168.5 96t192.5 34t192.5 -34t168.5 -96t119 -164t45 -227t-45 -227t-119 -164t-168.5 -96t-192.5 -34t-192.5 34t-168.5 96t-119 164t-45 227zM209 1241q57 161 160 215t252 -10q3 -2 20 -10t23.5 -10.5t22.5 -8.5t24 -7t21.5 -2.5t22 2.5 t18.5 9.5t17.5 17t12.5 27.5q36 -16 97 -45t79 -37q-37 -149 -146 -213t-233 -4q-5 2 -23.5 11t-27 12.5t-26.5 10.5t-28 9t-26 4t-26.5 -1.5t-22 -9t-20.5 -17.5t-15 -29q-153 75 -176 86zM416 498q0 -59 19.5 -105.5t51 -70.5t69.5 -35t76 0t69.5 35t51 70.5t19.5 105.5 t-19.5 105.5t-51 70.5t-69.5 35t-76 0t-69.5 -35t-51 -70.5t-19.5 -105.5z" />
<glyph unicode="&#xf6;" horiz-adv-x="1185" d="M68 498q0 125 45 227t119 164t168.5 96t192.5 34t192.5 -34t168.5 -96t119 -164t45 -227t-45 -227t-119 -164t-168.5 -96t-192.5 -34t-192.5 34t-168.5 96t-119 164t-45 227zM162 1282q0 72 51.5 118t126.5 46t126.5 -46t51.5 -118t-51.5 -116t-126.5 -44t-126.5 44 t-51.5 116zM416 498q0 -59 19.5 -105.5t51 -70.5t69.5 -35t76 0t69.5 35t51 70.5t19.5 105.5t-19.5 105.5t-51 70.5t-69.5 35t-76 0t-69.5 -35t-51 -70.5t-19.5 -105.5zM678 1282q0 72 51 118t127 46q75 0 125.5 -46t50.5 -118t-50.5 -116t-125.5 -44q-77 0 -127.5 44 t-50.5 116z" />
<glyph unicode="&#xf7;" horiz-adv-x="1118" d="M88 584v299h942v-299h-942zM358 313q0 85 58 137t145 52q88 0 145.5 -52t57.5 -137t-57.5 -135.5t-145.5 -50.5q-87 0 -145 51t-58 135zM358 1161q0 85 58 137t145 52q88 0 145.5 -52t57.5 -137t-57.5 -135.5t-145.5 -50.5q-87 0 -145 51t-58 135z" />
<glyph unicode="&#xf8;" horiz-adv-x="1181" d="M68 498q0 84 20.5 158.5t57 130t86 101t107.5 72t122.5 43.5t130 15t129.5 -14l55 110h268l-106 -213q180 -149 180 -403q0 -83 -20 -156.5t-56 -129t-85 -100.5t-106.5 -72.5t-121 -44.5t-128 -16t-128.5 11l-51 -105h-268l102 201q-188 144 -188 412zM401 498 q0 -70 21 -113l174 344q-80 0 -137.5 -60.5t-57.5 -170.5zM596 266q77 0 133.5 62t56.5 170q0 50 -18 106z" />
<glyph unicode="&#xf9;" horiz-adv-x="1251" d="M113 428v559h352v-559q-4 -84 33.5 -127t95.5 -43q64 0 111 48.5t47 127.5v553h348v-696q0 -56 13 -76t69 -20v-191q-33 -8 -65.5 -14t-76 -10t-81 -2.5t-75 11t-64.5 28t-43.5 52t-16.5 78.5q-37 -75 -116 -118t-167 -43q-107 0 -180.5 33t-112.5 96t-55 138t-16 175z M289 1356v28l307 109l158 -352v-31h-269z" />
<glyph unicode="&#xfa;" horiz-adv-x="1251" d="M113 428v559h352v-559q-4 -84 33.5 -127t95.5 -43q64 0 111 48.5t47 127.5v553h348v-696q0 -56 13 -76t69 -20v-191q-33 -8 -65.5 -14t-76 -10t-81 -2.5t-75 11t-64.5 28t-43.5 52t-16.5 78.5q-37 -75 -116 -118t-167 -43q-107 0 -180.5 33t-112.5 96t-55 138t-16 175z M453 1118v31l159 348l301 -108v-29l-194 -242h-266z" />
<glyph unicode="&#xfb;" horiz-adv-x="1251" d="M113 428v559h352v-559q-4 -84 33.5 -127t95.5 -43q64 0 111 48.5t47 127.5v553h348v-696q0 -56 13 -76t69 -20v-191q-33 -8 -65.5 -14t-76 -10t-81 -2.5t-75 11t-64.5 28t-43.5 52t-16.5 78.5q-37 -75 -116 -118t-167 -43q-107 0 -180.5 33t-112.5 96t-55 138t-16 175z M156 1133v32l284 303h334l281 -303v-32h-320l-129 139l-125 -139h-325z" />
<glyph unicode="&#xfc;" horiz-adv-x="1251" d="M113 428v559h352v-559q-4 -84 33.5 -127t95.5 -43q64 0 111 48.5t47 127.5v553h348v-696q0 -56 13 -76t69 -20v-191q-33 -8 -65.5 -14t-76 -10t-81 -2.5t-75 11t-64.5 28t-43.5 52t-16.5 78.5q-37 -75 -116 -118t-167 -43q-107 0 -180.5 33t-112.5 96t-55 138t-16 175z M158 1303q0 77 53 124.5t133 47.5t134 -48t54 -124t-54 -123t-134 -47t-133 47t-53 123zM700 1303q0 77 54 124.5t135 47.5q80 0 133 -47.5t53 -124.5q0 -76 -53 -123t-133 -47q-81 0 -135 47t-54 123z" />
<glyph unicode="&#xfd;" horiz-adv-x="1155" d="M2 948v39h373l211 -579h8l186 579h346v-39l-409 -1059q-53 -136 -111 -221t-134.5 -130t-173.5 -38t-222 64l30 223q110 -49 179 -19.5t110 150.5l27 82zM406 1100v33l167 370l322 -114v-31l-207 -258h-282z" />
<glyph unicode="&#xfe;" horiz-adv-x="1198" d="M123 -506v1979h348v-490q197 64 343.5 17.5t231 -181t84.5 -317.5q0 -180 -84.5 -314.5t-231 -183t-343.5 15.5v-526h-348zM463 317q63 -28 121 -30t101.5 21t69 73t25.5 121q0 94 -44.5 150.5t-115 62.5t-157.5 -29v-369z" />
<glyph unicode="&#xff;" horiz-adv-x="1155" d="M2 948v39h373l211 -579h8l186 579h346v-39l-409 -1059q-53 -136 -111 -221t-134.5 -130t-173.5 -38t-222 64l30 223q110 -49 179 -19.5t110 150.5l27 82zM115 1282q0 78 55.5 127t136.5 49t137 -49t56 -127t-55.5 -126t-137.5 -48q-81 0 -136.5 48t-55.5 126zM672 1282 q0 78 54.5 127t137.5 49q81 0 136 -49t55 -127t-55 -126t-136 -48q-83 0 -137.5 48t-54.5 126z" />
<glyph unicode="&#x100;" horiz-adv-x="1433" d="M-25 0v51l658 1397h172l651 -1397v-51h-387l-84 178h-536l-82 -178h-392zM377 1561v276h680v-276h-680zM569 492h297l-149 346z" />
<glyph unicode="&#x101;" horiz-adv-x="1146" d="M66 293q-7 180 98.5 273t284.5 93q136 0 221 -55v31q0 35 -21.5 59.5t-57.5 35t-67.5 14.5t-66.5 4q-168 0 -273 -54l-41 248q159 72 375 72q106 0 191 -20t154.5 -63.5t108 -121t38.5 -184.5v-318q0 -28 0.5 -41t4.5 -30.5t12.5 -24.5t24.5 -12.5t40 -5.5v-191 q-325 -76 -351 135q-38 -80 -127.5 -117.5t-189.5 -37.5q-143 0 -248.5 86.5t-109.5 224.5zM233 1155v277h680v-277h-680zM406 317q4 -34 29.5 -51.5t62.5 -17.5q62 0 116 32.5t54 90.5v20q-67 48 -156 45q-57 -5 -86.5 -35.5t-19.5 -83.5z" />
<glyph unicode="&#x102;" horiz-adv-x="1433" d="M-25 0v51l658 1397h172l651 -1397v-51h-387l-84 178h-536l-82 -178h-392zM281 1907h299q3 -50 46 -78.5t94 -28.5t94 28.5t46 78.5h295q0 -82 -29.5 -150.5t-79.5 -112t-115 -74t-137 -37t-144 0.5t-138 38t-117 75t-81.5 111.5t-32.5 148.5zM569 492h297l-149 346z" />
<glyph unicode="&#x103;" horiz-adv-x="1146" d="M66 293q-7 180 98.5 273t284.5 93q136 0 221 -55v31q0 35 -21.5 59.5t-57.5 35t-67.5 14.5t-66.5 4q-168 0 -273 -54l-41 248q159 72 375 72q106 0 191 -20t154.5 -63.5t108 -121t38.5 -184.5v-318q0 -28 0.5 -41t4.5 -30.5t12.5 -24.5t24.5 -12.5t40 -5.5v-191 q-325 -76 -351 135q-38 -80 -127.5 -117.5t-189.5 -37.5q-143 0 -248.5 86.5t-109.5 224.5zM145 1462h273q3 -47 42.5 -74t86.5 -27t86.5 27t42.5 74h268q0 -99 -43.5 -176.5t-113.5 -117t-154.5 -57.5t-169 1t-155.5 59t-116 117t-47 174zM406 317q4 -34 29.5 -51.5 t62.5 -17.5q62 0 116 32.5t54 90.5v20q-67 48 -156 45q-57 -5 -86.5 -35.5t-19.5 -83.5z" />
<glyph unicode="&#x104;" horiz-adv-x="1433" d="M-25 0v51l658 1397h172l651 -1397v-51h-125q-79 -20 -116 -88.5t-3 -124.5q17 -34 50 -45t71 -1t69.5 25.5t57.5 34.5l49 -217q-60 -40 -143 -63.5t-167 -24.5t-156 39t-101 119q-26 68 -16 133t45 119.5t94 101.5l-80 170h-536l-82 -178h-392zM569 492h297l-149 346z " />
<glyph unicode="&#x105;" horiz-adv-x="1144" d="M66 293q-7 180 98.5 273t284.5 93q136 0 221 -55v31q0 35 -21.5 59.5t-57.5 35t-67.5 14.5t-66.5 4q-168 0 -273 -54l-41 248q159 72 375 72q106 0 191 -20t154.5 -63.5t108 -121t38.5 -184.5v-318q0 -28 0.5 -41t4.5 -30.5t12.5 -24.5t24.5 -12.5t40 -5.5v-191 q-15 -3 -41.5 -7t-40.5 -7q-56 -23 -80 -73.5t2 -94.5q18 -33 62.5 -33.5t83 15.5t67.5 36l43 -192q-55 -36 -129.5 -55t-149 -16.5t-135.5 45t-80 122.5q-22 78 17 150.5t112 111.5q-71 38 -82 133q-38 -80 -127.5 -117.5t-189.5 -37.5q-143 0 -248.5 86.5t-109.5 224.5z M406 317q4 -34 29.5 -51.5t62.5 -17.5q62 0 116 32.5t54 90.5v20q-67 48 -156 45q-57 -5 -86.5 -35.5t-19.5 -83.5z" />
<glyph unicode="&#x106;" horiz-adv-x="1556" d="M80 715q0 144 41 265.5t111.5 206.5t164 144.5t199 88t217.5 28.5q91 0 178.5 -19.5t170.5 -62t149 -104.5t113 -154t63 -203h-361q-71 205 -313 205q-163 0 -260.5 -107t-97.5 -286q0 -161 99.5 -275t258.5 -114q121 0 205 57t112 170h361q-16 -119 -62.5 -215.5 t-112 -161.5t-149 -109t-172 -63.5t-182.5 -19.5q-140 0 -269.5 47t-234 135.5t-167 230t-62.5 316.5zM635 1559v32l168 371l321 -115v-30l-206 -258h-283z" />
<glyph unicode="&#x107;" horiz-adv-x="1153" d="M66 498q0 119 41 217t109 161t155.5 100t180 43.5t184 -17t166.5 -73.5t127.5 -135t66.5 -192h-330q-15 44 -47.5 72t-71 37t-80 -0.5t-75.5 -35t-56 -72t-22 -105.5q0 -60 22 -107.5t56 -73.5t76 -35t80.5 0.5t71 41t46.5 79.5h332q-13 -107 -65.5 -192.5t-127 -136.5 t-166.5 -75.5t-185 -19.5t-181 41.5t-156 98.5t-109.5 160.5t-41.5 218.5zM434 1114v29l162 340l311 -107v-26l-198 -236h-275z" />
<glyph unicode="&#x108;" horiz-adv-x="1556" d="M80 715q0 144 41 265.5t111.5 206.5t164 144.5t199 88t217.5 28.5q91 0 178.5 -19.5t170.5 -62t149 -104.5t113 -154t63 -203h-361q-71 205 -313 205q-163 0 -260.5 -107t-97.5 -286q0 -161 99.5 -275t258.5 -114q121 0 205 57t112 170h361q-16 -119 -62.5 -215.5 t-112 -161.5t-149 -109t-172 -63.5t-182.5 -19.5q-140 0 -269.5 47t-234 135.5t-167 230t-62.5 316.5zM330 1556v33l297 320h350l295 -320v-33h-336l-135 146l-131 -146h-340z" />
<glyph unicode="&#x109;" horiz-adv-x="1153" d="M66 498q0 119 41 217t109 161t155.5 100t180 43.5t184 -17t166.5 -73.5t127.5 -135t66.5 -192h-330q-15 44 -47.5 72t-71 37t-80 -0.5t-75.5 -35t-56 -72t-22 -105.5q0 -60 22 -107.5t56 -73.5t76 -35t80.5 0.5t71 41t46.5 79.5h332q-13 -107 -65.5 -192.5t-127 -136.5 t-166.5 -75.5t-185 -19.5t-181 41.5t-156 98.5t-109.5 160.5t-41.5 218.5zM170 1120v33l272 303h320l270 -303v-33h-307l-123 140l-121 -140h-311z" />
<glyph unicode="&#x10a;" horiz-adv-x="1556" d="M80 715q0 144 41 265.5t111.5 206.5t164 144.5t199 88t217.5 28.5q91 0 178.5 -19.5t170.5 -62t149 -104.5t113 -154t63 -203h-361q-71 205 -313 205q-163 0 -260.5 -107t-97.5 -286q0 -161 99.5 -275t258.5 -114q121 0 205 57t112 170h361q-16 -119 -62.5 -215.5 t-112 -161.5t-149 -109t-172 -63.5t-182.5 -19.5q-140 0 -269.5 47t-234 135.5t-167 230t-62.5 316.5zM610 1741q0 84 58 136t145 52q88 0 145.5 -51.5t57.5 -136.5t-57.5 -136t-145.5 -51q-87 0 -145 51.5t-58 135.5z" />
<glyph unicode="&#x10b;" horiz-adv-x="1153" d="M66 498q0 119 41 217t109 161t155.5 100t180 43.5t184 -17t166.5 -73.5t127.5 -135t66.5 -192h-330q-15 44 -47.5 72t-71 37t-80 -0.5t-75.5 -35t-56 -72t-22 -105.5q0 -60 22 -107.5t56 -73.5t76 -35t80.5 0.5t71 41t46.5 79.5h332q-13 -107 -65.5 -192.5t-127 -136.5 t-166.5 -75.5t-185 -19.5t-181 41.5t-156 98.5t-109.5 160.5t-41.5 218.5zM408 1296q0 76 54 122t132 46q81 0 133.5 -45.5t52.5 -122.5q0 -74 -52.5 -120t-133.5 -46q-77 0 -131.5 46.5t-54.5 119.5z" />
<glyph unicode="&#x10c;" horiz-adv-x="1556" d="M80 715q0 144 41 265.5t111.5 206.5t164 144.5t199 88t217.5 28.5q91 0 178.5 -19.5t170.5 -62t149 -104.5t113 -154t63 -203h-361q-71 205 -313 205q-163 0 -260.5 -107t-97.5 -286q0 -161 99.5 -275t258.5 -114q121 0 205 57t112 170h361q-16 -119 -62.5 -215.5 t-112 -161.5t-149 -109t-172 -63.5t-182.5 -19.5q-140 0 -269.5 47t-234 135.5t-167 230t-62.5 316.5zM362 1878v33h332l131 -144l129 144h334v-33l-291 -313h-344z" />
<glyph unicode="&#x10d;" horiz-adv-x="1153" d="M66 498q0 119 41 217t109 161t155.5 100t180 43.5t184 -17t166.5 -73.5t127.5 -135t66.5 -192h-330q-15 44 -47.5 72t-71 37t-80 -0.5t-75.5 -35t-56 -72t-22 -105.5q0 -60 22 -107.5t56 -73.5t76 -35t80.5 0.5t71 41t46.5 79.5h332q-13 -107 -65.5 -192.5t-127 -136.5 t-166.5 -75.5t-185 -19.5t-181 41.5t-156 98.5t-109.5 160.5t-41.5 218.5zM145 1436v32h324l131 -141l127 141h328v-32l-287 -308h-338z" />
<glyph unicode="&#x10e;" horiz-adv-x="1488" d="M156 0v1432h546q136 0 252.5 -40t199 -108.5t141 -159t86.5 -192.5t28 -209q2 -109 -25 -213.5t-85 -197t-140.5 -162t-200.5 -110t-256 -40.5h-546zM195 1864v30h321l129 -137l125 137h324v-30l-283 -305h-334zM530 338h168q108 0 186.5 56.5t114 141t35.5 183.5 q0 72 -22 138.5t-62.5 120t-106 86t-145.5 32.5h-168v-758z" />
<glyph unicode="&#x10f;" horiz-adv-x="1286" d="M68 492q0 90 25 172t68.5 146t106 111t134 70t155.5 19.5t168 -37.5v522h348v-1190q0 -68 8 -84q14 -28 74 -28v-193q-37 -9 -73 -14.5t-78 -8t-78 5t-66 22.5t-48 46t-19 74v12q-38 -77 -108.5 -119.5t-158.5 -44.5q-110 -2 -198 39t-144 113t-86 166t-30 201zM416 492 q0 -91 41 -151t127 -60q69 0 109 51t40 123v219q-88 35 -158.5 28t-114.5 -63t-44 -147zM1130 1294q0 85 57.5 137t145.5 52q86 0 143.5 -52t57.5 -137q0 -36 -14 -71l-97 -295h-202l53 186q-64 18 -104 65.5t-40 114.5z" />
<glyph unicode="&#x110;" horiz-adv-x="1511" d="M27 561v291h151v580h547q136 0 252.5 -40t199 -108.5t141 -159t86.5 -192.5t28 -209q2 -109 -25 -213.5t-85 -197t-140.5 -162t-200.5 -110t-256 -40.5h-547v561h-151zM553 338h168q108 0 186.5 56.5t114 141t35.5 183.5q0 72 -22 138.5t-62.5 120t-106 86t-145.5 32.5 h-168v-244h215v-291h-215v-223z" />
<glyph unicode="&#x111;" horiz-adv-x="1232" d="M68 492q0 90 25 172t68.5 146t106 111t134 70t155.5 19.5t168 -37.5v147h-186v232h186v143h348v-143h148v-232h-148v-815q0 -68 8 -84q14 -28 74 -28v-193q-37 -9 -73 -14.5t-78 -8t-78 5t-66 22.5t-48 46t-19 74v12q-38 -77 -108.5 -119.5t-158.5 -44.5q-110 -2 -198 39 t-144 113t-86 166t-30 201zM416 492q0 -91 41 -151t127 -60q69 0 109 51t40 123v219q-88 35 -158.5 28t-114.5 -63t-44 -147z" />
<glyph unicode="&#x112;" d="M154 0v1434h895v-326h-521v-205h480v-328h-480v-233h539v-342h-913zM270 1563v276h680v-276h-680z" />
<glyph unicode="&#x113;" horiz-adv-x="1126" d="M68 498q0 104 30 191t81 146t119 100t142 60t152 19q111 -2 198.5 -31.5t143.5 -82.5t87.5 -127.5t31.5 -165t-25 -195.5h-612q6 -47 28 -79t57 -48.5t73.5 -23.5t87.5 -7q86 0 182.5 19t150.5 44l39 -251q-198 -90 -395 -93q-254 0 -412.5 139.5t-158.5 385.5zM246 1155 v277h680v-277h-680zM418 621h319q7 62 -39 94.5t-108 32.5q-60 0 -110.5 -33.5t-61.5 -93.5z" />
<glyph unicode="&#x114;" d="M154 0v1434h895v-326h-521v-205h480v-328h-480v-233h539v-342h-913zM178 1905h295q3 -48 45.5 -75.5t93 -27.5t93 27t45.5 76h288q0 -103 -47 -183.5t-122 -121.5t-166 -60t-182.5 1t-167.5 61.5t-124.5 121.5t-50.5 181z" />
<glyph unicode="&#x115;" horiz-adv-x="1126" d="M68 498q0 104 30 191t81 146t119 100t142 60t152 19q111 -2 198.5 -31.5t143.5 -82.5t87.5 -127.5t31.5 -165t-25 -195.5h-612q6 -47 28 -79t57 -48.5t73.5 -23.5t87.5 -7q86 0 182.5 19t150.5 44l39 -251q-198 -90 -395 -93q-254 0 -412.5 139.5t-158.5 385.5zM190 1458 h267q3 -45 42 -71t85 -26t85 25.5t42 71.5h264q-1 -83 -35 -150t-88.5 -107.5t-125 -62.5t-143.5 -21.5t-143 23t-125.5 63.5t-89.5 107t-35 148zM418 621h319q7 62 -39 94.5t-108 32.5q-60 0 -110.5 -33.5t-61.5 -93.5z" />
<glyph unicode="&#x116;" d="M154 0v1434h895v-326h-521v-205h480v-328h-480v-233h539v-342h-913zM403 1718q0 85 58 137t145 52q88 0 145.5 -52t57.5 -137t-57.5 -135.5t-145.5 -50.5q-87 0 -145 51t-58 135z" />
<glyph unicode="&#x117;" horiz-adv-x="1126" d="M68 498q0 104 30 191t81 146t119 100t142 60t152 19q111 -2 198.5 -31.5t143.5 -82.5t87.5 -127.5t31.5 -165t-25 -195.5h-612q6 -47 28 -79t57 -48.5t73.5 -23.5t87.5 -7q86 0 182.5 19t150.5 44l39 -251q-198 -90 -395 -93q-254 0 -412.5 139.5t-158.5 385.5zM377 1307 q0 77 57.5 124.5t143.5 47.5q88 0 145 -47.5t57 -124.5q0 -78 -57 -126t-145 -48q-86 0 -143.5 48t-57.5 126zM418 621h319q7 62 -39 94.5t-108 32.5q-60 0 -110.5 -33.5t-61.5 -93.5z" />
<glyph unicode="&#x118;" d="M154 0v1434h895v-326h-521v-205h480v-328h-480v-233h539v-342h-197q-59 -38 -84 -98t2 -115q17 -34 53 -44t76.5 1t75.5 27.5t60 35.5l49 -217q-51 -34 -116.5 -58t-138.5 -31.5t-138 5.5t-115.5 60t-69.5 125q-23 87 9.5 167.5t103.5 141.5h-483z" />
<glyph unicode="&#x119;" horiz-adv-x="1128" d="M68 498q0 104 30 191t81 146t119 100t142 60t152 19q111 -2 198.5 -31.5t143.5 -82.5t87.5 -127.5t31.5 -165t-25 -195.5h-612q6 -47 28 -79t57 -48.5t73.5 -23.5t87.5 -7q86 0 182.5 19t150.5 44l39 -251q-64 -34 -143 -56q-59 -37 -88 -91.5t-2 -102.5q23 -40 72 -42 t92.5 16t78.5 44l46 -201q-46 -30 -106 -49.5t-126 -22t-125 12t-106 57.5t-66 111q-16 60 4.5 120.5t67.5 110.5q-252 0 -408.5 140t-156.5 385zM418 621h319q7 62 -39 94.5t-108 32.5q-60 0 -110.5 -33.5t-61.5 -93.5z" />
<glyph unicode="&#x11a;" d="M154 0v1434h895v-326h-521v-205h480v-328h-480v-233h539v-342h-913zM158 1866v32h323l131 -141l127 141h328v-32l-287 -307h-338z" />
<glyph unicode="&#x11b;" horiz-adv-x="1126" d="M68 498q0 104 30 191t81 146t119 100t142 60t152 19q111 -2 198.5 -31.5t143.5 -82.5t87.5 -127.5t31.5 -165t-25 -195.5h-612q6 -47 28 -79t57 -48.5t73.5 -23.5t87.5 -7q86 0 182.5 19t150.5 44l39 -251q-198 -90 -395 -93q-254 0 -412.5 139.5t-158.5 385.5zM145 1440 v30h312l127 -137l121 137h317v-30l-277 -301h-325zM418 621h319q7 62 -39 94.5t-108 32.5q-60 0 -110.5 -33.5t-61.5 -93.5z" />
<glyph unicode="&#x11c;" horiz-adv-x="1568" d="M78 715q0 178 63.5 321.5t169 232.5t235 136t269.5 47q110 0 213 -29t193.5 -86.5t157 -155t94.5 -223.5h-365q-46 85 -116.5 121.5t-176.5 36.5q-167 0 -262.5 -114.5t-95.5 -284.5q0 -180 97 -286.5t261 -106.5q116 0 188 37.5t121 136.5h-305v315h676 q18 -248 -39 -416q-38 -109 -106 -191t-154.5 -130t-182 -71t-198.5 -23q-111 0 -217 28.5t-200.5 89t-165.5 145.5t-112.5 206.5t-41.5 263.5zM328 1552v33l297 320h350l295 -320v-33h-336l-135 146l-131 -146h-340z" />
<glyph unicode="&#x11d;" horiz-adv-x="1191" d="M72 475q0 141 46 245t126.5 163t179.5 85.5t217 24.5q197 -3 432 -90v-930q0 -133 -40 -236t-108.5 -165.5t-160 -96.5t-195 -33.5t-213.5 28.5t-215 84l41 260q66 -35 137.5 -58.5t147 -28.5t135 14t97.5 79.5t38 159.5v16q-114 -43 -217.5 -45.5t-185 34t-141.5 103.5 t-91.5 166.5t-29.5 220.5zM174 1114v33l279 319h327l277 -319v-33h-316l-127 146l-122 -146h-318zM418 477q-2 -75 22.5 -127.5t68 -76t102 -22t122.5 29.5v409q-91 17 -127 17q-91 0 -139 -53.5t-49 -176.5z" />
<glyph unicode="&#x11e;" horiz-adv-x="1568" d="M78 715q0 178 63.5 321.5t169 232.5t235 136t269.5 47q110 0 213 -29t193.5 -86.5t157 -155t94.5 -223.5h-365q-46 85 -116.5 121.5t-176.5 36.5q-167 0 -262.5 -114.5t-95.5 -284.5q0 -180 97 -286.5t261 -106.5q116 0 188 37.5t121 136.5h-305v315h676 q18 -248 -39 -416q-38 -109 -106 -191t-154.5 -130t-182 -71t-198.5 -23q-111 0 -217 28.5t-200.5 89t-165.5 145.5t-112.5 206.5t-41.5 263.5zM352 1944h305q2 -41 32 -69t71.5 -34.5t82.5 0t71 34.5t32 69h301q0 -107 -49 -191t-127 -127t-173 -62.5t-190 1t-174 64 t-129.5 127t-52.5 188.5z" />
<glyph unicode="&#x11f;" horiz-adv-x="1191" d="M72 475q0 141 46 245t126.5 163t179.5 85.5t217 24.5q197 -3 432 -90v-930q0 -133 -40 -236t-108.5 -165.5t-160 -96.5t-195 -33.5t-213.5 28.5t-215 84l41 260q66 -35 137.5 -58.5t147 -28.5t135 14t97.5 79.5t38 159.5v16q-114 -43 -217.5 -45.5t-185 34t-141.5 103.5 t-91.5 166.5t-29.5 220.5zM203 1464h282q3 -48 44.5 -75.5t90 -27.5t89.5 27t43 76h278q-1 -118 -62.5 -203.5t-152.5 -123.5t-197.5 -37.5t-198 39.5t-153.5 124.5t-63 200.5zM418 477q-2 -75 22.5 -127.5t68 -76t102 -22t122.5 29.5v409q-91 17 -127 17q-91 0 -139 -53.5 t-49 -176.5z" />
<glyph unicode="&#x120;" horiz-adv-x="1568" d="M78 715q0 178 63.5 321.5t169 232.5t235 136t269.5 47q110 0 213 -29t193.5 -86.5t157 -155t94.5 -223.5h-365q-46 85 -116.5 121.5t-176.5 36.5q-167 0 -262.5 -114.5t-95.5 -284.5q0 -180 97 -286.5t261 -106.5q116 0 188 37.5t121 136.5h-305v315h676 q18 -248 -39 -416q-38 -109 -106 -191t-154.5 -130t-182 -71t-198.5 -23q-111 0 -217 28.5t-200.5 89t-165.5 145.5t-112.5 206.5t-41.5 263.5zM602 1743q0 80 60.5 131t148.5 51q91 0 150 -50.5t59 -131.5q0 -83 -58 -131.5t-151 -48.5q-89 0 -149 49t-60 131z" />
<glyph unicode="&#x121;" horiz-adv-x="1191" d="M72 475q0 141 46 245t126.5 163t179.5 85.5t217 24.5q197 -3 432 -90v-930q0 -133 -40 -236t-108.5 -165.5t-160 -96.5t-195 -33.5t-213.5 28.5t-215 84l41 260q66 -35 137.5 -58.5t147 -28.5t135 14t97.5 79.5t38 159.5v16q-114 -43 -217.5 -45.5t-185 34t-141.5 103.5 t-91.5 166.5t-29.5 220.5zM418 477q-2 -75 22.5 -127.5t68 -76t102 -22t122.5 29.5v409q-91 17 -127 17q-91 0 -139 -53.5t-49 -176.5zM453 1280q0 80 55 130t135 50q83 0 137 -49.5t54 -130.5q0 -79 -54 -127.5t-137 -48.5q-80 0 -135 49t-55 127z" />
<glyph unicode="&#x122;" horiz-adv-x="1568" d="M78 715q0 178 63.5 321.5t169 232.5t235 136t269.5 47q110 0 213 -29t193.5 -86.5t157 -155t94.5 -223.5h-365q-46 85 -116.5 121.5t-176.5 36.5q-167 0 -262.5 -114.5t-95.5 -284.5q0 -180 97 -286.5t261 -106.5q116 0 188 37.5t121 136.5h-305v315h676 q18 -248 -39 -416q-38 -109 -106 -191t-154.5 -130t-182 -71t-198.5 -23q-111 0 -217 28.5t-200.5 89t-165.5 145.5t-112.5 206.5t-41.5 263.5zM662 -279q0 76 51.5 122t128.5 46t128.5 -46t51.5 -122q0 -29 -12 -63l-78 -229h-182l41 131q-58 18 -93.5 60t-35.5 101z" />
<glyph unicode="&#x123;" horiz-adv-x="1191" d="M72 475q0 141 46 245t126.5 163t179.5 85.5t217 24.5q197 -3 432 -90v-930q0 -133 -40 -236t-108.5 -165.5t-160 -96.5t-195 -33.5t-213.5 28.5t-215 84l41 260q66 -35 137.5 -58.5t147 -28.5t135 14t97.5 79.5t38 159.5v16q-114 -43 -217.5 -45.5t-185 34t-141.5 103.5 t-91.5 166.5t-29.5 220.5zM418 477q-2 -75 22.5 -127.5t68 -76t102 -22t122.5 29.5v409q-91 17 -127 17q-91 0 -139 -53.5t-49 -176.5zM438 1266q0 30 15 67l92 271h196l-51 -172q62 -14 99.5 -58t37.5 -108q0 -77 -55.5 -124.5t-138.5 -47.5t-139 47.5t-56 124.5z" />
<glyph unicode="&#x124;" horiz-adv-x="1501" d="M154 0v1434h374v-519h445v519h375v-1434h-375v573h-445v-573h-374zM272 1546v33l297 319h351l294 -319v-33h-335l-136 146l-131 -146h-340z" />
<glyph unicode="&#x125;" horiz-adv-x="1241" d="M123 0v1495h350v-635q36 71 110.5 110.5t161.5 39.5q84 0 150 -22t109.5 -61t72 -96t41 -122t12.5 -144v-565h-352v565q1 81 -38.5 125.5t-98.5 44.5q-67 0 -117.5 -47.5t-50.5 -128.5v-559h-350zM160 1591v33l284 315h338l285 -315v-33h-324l-131 144l-125 -144h-327z " />
<glyph unicode="&#x126;" horiz-adv-x="1521" d="M49 1038v248h115v148h375v-148h444v148h375v-148h119v-248h-119v-1038h-375v541h-444v-541h-375v1038h-115zM539 883h444v155h-444v-155z" />
<glyph unicode="&#x127;" horiz-adv-x="1241" d="M6 1128v236h117v131h350v-131h156v-236h-156v-268q36 71 110.5 110.5t161.5 39.5q84 0 150 -22t109.5 -61t72 -96t41 -122t12.5 -144v-565h-352v565q1 81 -38.5 125.5t-98.5 44.5q-67 0 -117.5 -47.5t-50.5 -128.5v-559h-350v1128h-117z" />
<glyph unicode="&#x128;" horiz-adv-x="935" d="M59 1669q61 171 170.5 228t266.5 -11q6 -3 24.5 -11t28 -12t27 -10t28 -6.5t25.5 0.5t24.5 8t19 20t15.5 32l186 -88q-37 -157 -153 -225.5t-248 -4.5q-5 3 -24.5 12t-28.5 13t-28 11.5t-29.5 9t-27.5 4t-27.5 -1t-23 -9.5t-22 -18.5t-16.5 -30.5q-20 10 -87 42.5 t-100 47.5zM98 0v303h183v827h-166v304h706v-304h-166v-827h183v-303h-740z" />
<glyph unicode="&#x129;" horiz-adv-x="593" d="M-55 1229q52 167 148.5 223t232.5 -10q7 -3 30 -14.5t33.5 -16t30.5 -9t31.5 0.5t24 19.5t20.5 39.5q132 -72 161 -86q-32 -156 -132.5 -221.5t-217.5 -5.5q-6 3 -25.5 13t-28.5 14.5t-27 11.5t-28.5 8.5t-25.5 1t-25 -6.5t-20.5 -18.5t-17.5 -31.5q-30 15 -90.5 48 t-73.5 40zM123 0v987h348v-987h-348z" />
<glyph unicode="&#x12a;" horiz-adv-x="935" d="M98 0v303h183v827h-166v304h706v-304h-166v-827h183v-303h-740zM129 1571v276h680v-276h-680z" />
<glyph unicode="&#x12b;" horiz-adv-x="593" d="M14 1151v283h566v-283h-566zM123 0v987h348v-987h-348z" />
<glyph unicode="&#x12c;" horiz-adv-x="935" d="M47 1931h287q3 -50 45 -78.5t92 -28.5t92 28.5t45 78.5h285q-1 -93 -37.5 -168.5t-95.5 -121.5t-134.5 -70.5t-154.5 -24t-154.5 25.5t-135 71.5t-96.5 121t-38 166.5zM98 0v303h183v827h-166v304h706v-304h-166v-827h183v-303h-740z" />
<glyph unicode="&#x12d;" horiz-adv-x="593" d="M-70 1464h252q2 -38 26.5 -64t58.5 -32.5t68 -0.5t58.5 32t26.5 65h246q0 -87 -32 -157t-83 -113t-117 -66.5t-134.5 -23t-134.5 24t-118 66.5t-84 113t-33 156zM123 0v987h348v-987h-348z" />
<glyph unicode="&#x12e;" horiz-adv-x="935" d="M98 0v303h183v827h-166v304h706v-304h-166v-827h183v-303h-232q-59 -38 -84 -98t2 -115q17 -34 53 -44t76.5 1t74.5 27.5t60 35.5l50 -217q-49 -35 -115 -58.5t-138 -27.5t-136.5 11.5t-115 65t-69.5 126.5q-44 164 109 293h-275z" />
<glyph unicode="&#x12f;" horiz-adv-x="593" d="M20 -283q-42 163 103 287l2 969h346v-973h-125q-51 -38 -72 -96t5 -107q17 -34 52.5 -44t76.5 1.5t75 28t60 35.5l49 -217q-63 -45 -149.5 -68t-172.5 -19t-156.5 55.5t-93.5 147.5zM96 1251q0 54 22.5 96.5t58 64t78.5 32t86 0t78.5 -32t58 -64t22.5 -96.5 q0 -63 -30 -109.5t-75 -67t-97 -20.5t-97 20.5t-75 67t-30 109.5z" />
<glyph unicode="&#x130;" horiz-adv-x="935" d="M98 0v303h183v827h-166v304h706v-304h-166v-827h183v-303h-740zM246 1731q0 85 63.5 137.5t157.5 52.5t156.5 -52.5t62.5 -137.5q0 -86 -62 -137.5t-157 -51.5t-158 51.5t-63 137.5z" />
<glyph unicode="&#x131;" horiz-adv-x="593" d="M123 0v987h348v-987h-348z" />
<glyph unicode="&#x132;" horiz-adv-x="2220" d="M98 0v303h183v827h-166v304h706v-304h-166v-827h183v-303h-740zM983 473v186h348v-180q0 -83 53.5 -125.5t139.5 -42.5q83 0 131.5 42.5t48.5 125.5v633h-211v322h586v-961q0 -114 -45 -208.5t-121 -156t-176 -95t-211 -33.5q-151 0 -273 57t-196 170.5t-74 265.5z" />
<glyph unicode="&#x133;" horiz-adv-x="1179" d="M94 1251q0 54 22.5 96.5t58 64t78.5 32t86 0t78.5 -32t58 -64t22.5 -96.5q0 -63 -30 -109.5t-75 -67t-97 -20.5t-97 20.5t-75 67t-30 109.5zM121 0l2 973h346v-973h-348zM528 -518l11 256q106 -8 141 19.5t35 129.5v1096h344l-2 -1100q0 -503 -529 -401zM682 1251 q0 54 22 96.5t58 64t79 32t85.5 0t78.5 -32t58 -64t22 -96.5q0 -63 -30 -109.5t-74.5 -67t-97 -20.5t-97 20.5t-74.5 67t-30 109.5z" />
<glyph unicode="&#x134;" horiz-adv-x="1284" d="M47 473v186h348v-180q0 -83 53.5 -125.5t139.5 -42.5q83 0 131.5 42.5t48.5 125.5v633h-211v322h586v-961q0 -114 -45 -208.5t-121 -156t-176 -95t-211 -33.5q-151 0 -273 57t-196 170.5t-74 265.5zM373 1552v33l278 324h330l279 -324v-33h-316l-127 148l-125 -148h-319z " />
<glyph unicode="&#x135;" horiz-adv-x="587" d="M-109 1075v35l252 340h297l250 -340v-35h-284l-115 154l-111 -154h-289zM-63 -518l10 256q106 -8 141 19.5t35 129.5v1096h344l-2 -1100q0 -111 -25.5 -192.5t-72 -129t-112 -73t-145.5 -24t-173 17.5z" />
<glyph unicode="&#x136;" horiz-adv-x="1480" d="M154 0v1434h374v-562h27h32t31 0.5t34.5 2t30.5 4t30 6.5t24 10q46 23 70 83t59 208q14 55 38.5 99t66 82.5t98.5 58t136 24.5t179 -18v-252q-72 5 -115 -17.5t-59 -85.5q-37 -136 -78 -227t-98 -154q48 -74 189.5 -297t220.5 -344v-55h-424l-313 553q-43 -6 -179 -6 v-547h-374zM602 -254q0 76 51.5 122t128.5 46t129 -46t52 -122q0 -26 -13 -63l-88 -252h-182l51 153q-58 18 -93.5 60.5t-35.5 101.5z" />
<glyph unicode="&#x137;" horiz-adv-x="1173" d="M123 2v1495h346v-850h41q60 0 103.5 20t67.5 50t38 78t18 91.5t4 102.5h330q5 -169 -39.5 -289t-171.5 -202l258 -461v-35h-352l-199 385q-27 -12 -63 -12h-35v-373h-346zM426 -254q0 76 51.5 122t128.5 46t128.5 -46t51.5 -122q0 -28 -12 -63l-88 -252h-182l51 153 q-58 18 -93.5 60.5t-35.5 101.5z" />
<glyph unicode="&#x138;" horiz-adv-x="1167" d="M117 0v987h346v-350h41q60 0 103.5 21t67.5 52.5t38 81t18 94t4 103.5h330q2 -82 -5.5 -148.5t-29.5 -133t-66 -122.5t-110 -98l258 -452v-35h-352l-199 377q-27 -12 -63 -12h-35v-365h-346z" />
<glyph unicode="&#x139;" horiz-adv-x="1081" d="M154 0v1434h374v-1098h519v-336h-893zM178 1540v33l168 371l322 -115v-31l-207 -258h-283z" />
<glyph unicode="&#x13a;" horiz-adv-x="661" d="M111 391v1106h344v-1104q0 -94 44 -125t128 -18l10 -260q-93 -15 -173 -16t-145 24t-111.5 71.5t-71.5 128t-25 193.5zM129 1577v31l156 342l297 -107v-28l-191 -238h-262z" />
<glyph unicode="&#x13b;" horiz-adv-x="1081" d="M154 0v1434h374v-1098h519v-336h-893zM426 -254q0 76 51.5 122t128.5 46t128.5 -46t51.5 -122q0 -28 -12 -63l-88 -252h-182l51 153q-58 18 -93.5 60.5t-35.5 101.5z" />
<glyph unicode="&#x13c;" horiz-adv-x="661" d="M111 391v1106h344v-1104q0 -94 44 -125t128 -18l10 -260q-93 -15 -173 -16t-145 24t-111.5 71.5t-71.5 128t-25 193.5zM215 -270q0 72 49 115.5t123 43.5t122 -43.5t48 -115.5q0 -33 -12 -60l-82 -239h-174l49 145q-57 18 -90 57t-33 97z" />
<glyph unicode="&#x13d;" horiz-adv-x="1101" d="M154 0v1434h374v-1098h519v-336h-893zM672 1260q0 81 54 130.5t140 49.5q81 0 136 -50t55 -130q0 -32 -15 -70l-90 -281h-194l51 178q-61 14 -99 60.5t-38 112.5z" />
<glyph unicode="&#x13e;" horiz-adv-x="706" d="M111 391v1106h344v-1104q0 -94 44 -125t128 -18l10 -260q-93 -15 -173 -16t-145 24t-111.5 71.5t-71.5 128t-25 193.5zM512 1321q0 80 55 129t138 49q81 0 135.5 -49t54.5 -129q0 -36 -14 -68l-93 -278h-190l49 176q-59 14 -97 60t-38 110z" />
<glyph unicode="&#x13f;" horiz-adv-x="1087" d="M154 0v1434h374v-1098h519v-336h-893zM655 776q0 84 54.5 136.5t134.5 52.5q81 0 134.5 -52t53.5 -137t-53.5 -136.5t-134.5 -51.5q-80 0 -134.5 52t-54.5 136z" />
<glyph unicode="&#x140;" horiz-adv-x="911" d="M111 391v1106h344v-1104q0 -94 44 -125t128 -18l10 -260q-93 -15 -173 -16t-145 24t-111.5 71.5t-71.5 128t-25 193.5zM557 772q0 84 52.5 135t129.5 51t129 -51t52 -135q0 -83 -52 -133.5t-129 -50.5t-129.5 50.5t-52.5 133.5z" />
<glyph unicode="&#x141;" horiz-adv-x="1097" d="M37 461v299l133 35v639h375v-537l192 53v-299l-192 -53v-262h518v-336h-893v496z" />
<glyph unicode="&#x142;" horiz-adv-x="731" d="M37 457v299l135 37v704h344v-610l156 43v-299l-156 -43v-195q0 -94 44 -125t128 -18l10 -260q-93 -15 -173 -16t-145 24t-111.5 71.5t-71.5 128t-25 193.5v103z" />
<glyph unicode="&#x143;" horiz-adv-x="1546" d="M154 0v1440h116l748 -707v701h375v-1438h-111l-754 743v-739h-374zM551 1528v33l168 370l321 -114v-31l-206 -258h-283z" />
<glyph unicode="&#x144;" horiz-adv-x="1271" d="M70 799v190q46 11 96 17.5t109.5 4t105.5 -17t77.5 -50.5t33.5 -91q40 75 118 116.5t166 41.5q105 0 182 -34t121 -96t64 -140.5t18 -174.5v-565h-350v565q1 80 -40.5 124t-102.5 46q-67 0 -116.5 -46t-49.5 -130v-559h-348v686v9q0 27 -0.5 38.5t-4.5 27.5t-13 22 t-25 11t-41 5zM504 1122v31l155 342l297 -106v-29l-190 -238h-262z" />
<glyph unicode="&#x145;" horiz-adv-x="1546" d="M154 0v1440h116l748 -707v701h375v-1438h-111l-754 743v-739h-374zM690 -254q0 76 51.5 122t128.5 46t129 -46t52 -122q0 -26 -13 -63l-88 -252h-182l51 153q-58 18 -93.5 60.5t-35.5 101.5z" />
<glyph unicode="&#x146;" horiz-adv-x="1271" d="M70 799v190q46 11 96 17.5t109.5 4t105.5 -17t77.5 -50.5t33.5 -91q40 75 118 116.5t166 41.5q105 0 182 -34t121 -96t64 -140.5t18 -174.5v-565h-350v565q1 80 -40.5 124t-102.5 46q-67 0 -116.5 -46t-49.5 -130v-559h-348v686v9q0 27 -0.5 38.5t-4.5 27.5t-13 22 t-25 11t-41 5zM483 -254q0 76 52 122t129 46t128.5 -46t51.5 -122q0 -26 -13 -63l-88 -252h-182l51 153q-58 18 -93.5 60.5t-35.5 101.5z" />
<glyph unicode="&#x147;" horiz-adv-x="1546" d="M154 0v1440h116l748 -707v701h375v-1438h-111l-754 743v-739h-374zM274 1849v33h336l135 -145l132 145h340v-33l-297 -319h-351z" />
<glyph unicode="&#x148;" horiz-adv-x="1271" d="M70 799v190q46 11 96 17.5t109.5 4t105.5 -17t77.5 -50.5t33.5 -91q40 75 118 116.5t166 41.5q105 0 182 -34t121 -96t64 -140.5t18 -174.5v-565h-350v565q1 80 -40.5 124t-102.5 46q-67 0 -116.5 -46t-49.5 -130v-559h-348v686v9q0 27 -0.5 38.5t-4.5 27.5t-13 22 t-25 11t-41 5zM186 1403v33h336l135 -146l131 146h340v-33l-297 -320h-350z" />
<glyph unicode="&#x149;" horiz-adv-x="1271" d="M70 799v190q46 11 96 17.5t109.5 4t105.5 -17t77.5 -50.5t33.5 -91q40 75 118 116.5t166 41.5q105 0 182 -34t121 -96t64 -140.5t18 -174.5v-565h-350v565q1 80 -40.5 124t-102.5 46q-67 0 -116.5 -46t-49.5 -130v-559h-348v686v9q0 27 -0.5 38.5t-4.5 27.5t-13 22 t-25 11t-41 5z" />
<glyph unicode="&#x14a;" horiz-adv-x="1546" d="M154 0v1440h116l748 -707v701h375v-1432q0 -137 -34.5 -226.5t-98.5 -130.5t-155 -50.5t-204 14.5l10 250q104 -8 138 19.5t34 127.5v184l-555 549v-739h-374z" />
<glyph unicode="&#x14b;" horiz-adv-x="1265" d="M70 799v190q60 14 124.5 19.5t134.5 -1t115.5 -44t47.5 -103.5v-8q40 75 118 116.5t166 41.5q104 0 180 -34t119 -96t62.5 -140.5t17.5 -174.5v-588q0 -109 -26 -189t-72.5 -126t-112 -70.5t-145 -23.5t-170.5 16l10 232q101 -10 136.5 25.5t35.5 140.5v583 q1 80 -40.5 124t-102.5 46q-67 0 -116.5 -46t-49.5 -130v-559h-348v686v9q0 27 -0.5 38.5t-4.5 27.5t-13 22t-25 11t-41 5z" />
<glyph unicode="&#x14c;" horiz-adv-x="1626" d="M78 717q0 144 41 267t111.5 210t165 148t201.5 90.5t220 29.5q112 0 217 -29.5t198.5 -90.5t163.5 -148t111 -210t41 -267q0 -162 -54.5 -300.5t-151 -236t-233.5 -152.5t-298 -55q-115 0 -221.5 29t-200 90t-162.5 147.5t-109 209.5t-40 268zM453 717q0 -93 30 -168.5 t81 -122.5t115 -72.5t134 -25.5q68 0 131.5 25.5t115.5 72.5t83 122.5t31 168.5t-30.5 168.5t-81.5 122.5t-114 72.5t-131 25.5q-71 0 -135.5 -24.5t-116 -71t-82 -122.5t-30.5 -171zM481 1581v277h680v-277h-680z" />
<glyph unicode="&#x14d;" horiz-adv-x="1185" d="M68 498q0 125 45 227t119 164t168.5 96t192.5 34t192.5 -34t168.5 -96t119 -164t45 -227t-45 -227t-119 -164t-168.5 -96t-192.5 -34t-192.5 34t-168.5 96t-119 164t-45 227zM258 1155v277h680v-277h-680zM416 498q0 -59 19.5 -105.5t51 -70.5t69.5 -35t76 0t69.5 35 t51 70.5t19.5 105.5t-19.5 105.5t-51 70.5t-69.5 35t-76 0t-69.5 -35t-51 -70.5t-19.5 -105.5z" />
<glyph unicode="&#x14e;" horiz-adv-x="1626" d="M78 717q0 144 41 267t111.5 210t165 148t201.5 90.5t220 29.5q112 0 217 -29.5t198.5 -90.5t163.5 -148t111 -210t41 -267q0 -162 -54.5 -300.5t-151 -236t-233.5 -152.5t-298 -55q-115 0 -221.5 29t-200 90t-162.5 147.5t-109 209.5t-40 268zM360 1956h306q2 -41 32 -69 t71 -34.5t82 0t71 34.5t32 69h301q0 -107 -49 -191t-127 -127t-173 -62.5t-190 1t-174 64t-129.5 127t-52.5 188.5zM453 717q0 -93 30 -168.5t81 -122.5t115 -72.5t134 -25.5q68 0 131.5 25.5t115.5 72.5t83 122.5t31 168.5t-30.5 168.5t-81.5 122.5t-114 72.5t-131 25.5 q-71 0 -135.5 -24.5t-116 -71t-82 -122.5t-30.5 -171z" />
<glyph unicode="&#x14f;" horiz-adv-x="1185" d="M68 498q0 125 45 227t119 164t168.5 96t192.5 34t192.5 -34t168.5 -96t119 -164t45 -227t-45 -227t-119 -164t-168.5 -96t-192.5 -34t-192.5 34t-168.5 96t-119 164t-45 227zM168 1479h287q2 -39 30 -65t67 -32t78 0t67 32t30 65h285q0 -89 -36.5 -160.5t-95.5 -115.5 t-135 -67.5t-155 -23t-155 25t-135 68.5t-95.5 115t-36.5 158zM416 498q0 -59 19.5 -105.5t51 -70.5t69.5 -35t76 0t69.5 35t51 70.5t19.5 105.5t-19.5 105.5t-51 70.5t-69.5 35t-76 0t-69.5 -35t-51 -70.5t-19.5 -105.5z" />
<glyph unicode="&#x150;" horiz-adv-x="1626" d="M78 717q0 144 41 267t111.5 210t165 148t201.5 90.5t220 29.5q112 0 217 -29.5t198.5 -90.5t163.5 -148t111 -210t41 -267q0 -162 -54.5 -300.5t-151 -236t-233.5 -152.5t-298 -55q-115 0 -221.5 29t-200 90t-162.5 147.5t-109 209.5t-40 268zM424 1569v30l135 375 l311 -67v-29l-174 -309h-272zM453 717q0 -93 30 -168.5t81 -122.5t115 -72.5t134 -25.5q68 0 131.5 25.5t115.5 72.5t83 122.5t31 168.5t-30.5 168.5t-81.5 122.5t-114 72.5t-131 25.5q-71 0 -135.5 -24.5t-116 -71t-82 -122.5t-30.5 -171zM897 1569v30l135 347l309 -82v-31 l-174 -264h-270z" />
<glyph unicode="&#x151;" horiz-adv-x="1185" d="M68 498q0 125 45 227t119 164t168.5 96t192.5 34t192.5 -34t168.5 -96t119 -164t45 -227t-45 -227t-119 -164t-168.5 -96t-192.5 -34t-192.5 34t-168.5 96t-119 164t-45 227zM219 1133v28l127 355l295 -64v-27l-164 -292h-258zM416 498q0 -59 19.5 -105.5t51 -70.5 t69.5 -35t76 0t69.5 35t51 70.5t19.5 105.5t-19.5 105.5t-51 70.5t-69.5 35t-76 0t-69.5 -35t-51 -70.5t-19.5 -105.5zM666 1133v28l127 328l292 -78v-29l-163 -249h-256z" />
<glyph unicode="&#x152;" horiz-adv-x="1888" d="M80 713q0 145 39.5 267.5t108 209t161 147t199 89t221.5 26.5q103 0 190 -22h768v-326h-503v-205h460v-309h-460v-266h522v-324h-795q-98 -23 -203 -23q-143 0 -270 47t-225 136.5t-155.5 232t-57.5 320.5zM442 713q0 -176 108.5 -301t270.5 -125q68 0 127 22v793 q-61 21 -131 24q-159 0 -267 -119.5t-108 -293.5z" />
<glyph unicode="&#x153;" horiz-adv-x="1720" d="M68 494q0 126 44.5 229t116 166t163 96t184 28.5t182 -47t153.5 -120.5q53 83 140 123.5t190 40.5q100 0 178.5 -33t126.5 -90t73 -133t25 -163.5t-24 -180.5h-553q22 -146 193 -156q75 -7 167.5 13.5t155.5 49.5l45 -254q-189 -84 -373 -81q-115 0 -210 46t-146 146 q-36 -65 -92 -110t-121 -66t-136.5 -20.5t-140 21t-130.5 63.5t-109 103.5t-74.5 145.5t-27.5 183zM414 494q0 -58 19 -104t49.5 -69.5t67.5 -35t74 -0.5t67.5 34.5t49.5 69.5t19 105q0 69 -25.5 119t-64 73t-83.5 23t-83.5 -23t-64 -73t-25.5 -119zM1067 616h264 q6 57 -30 90t-89 33q-51 0 -91.5 -31.5t-53.5 -91.5z" />
<glyph unicode="&#x154;" horiz-adv-x="1425" d="M156 2v1434h630q125 0 226 -43.5t163 -116.5t95 -162t33 -186q-2 -127 -56 -237.5t-157 -180.5l280 -455v-53h-397l-246 449h-197v-449h-374zM485 1548v33l168 371l322 -115v-31l-207 -258h-283zM524 756h260q74 0 115 53.5t41 126.5t-40.5 123.5t-115.5 50.5h-260v-354z " />
<glyph unicode="&#x155;" horiz-adv-x="966" d="M68 801v190q46 11 95 17t106.5 4t103 -16.5t77.5 -50t37 -89.5q28 78 102.5 120t164.5 42q115 3 200 -60l-69 -282q-74 52 -170 49q-94 -5 -155.5 -63.5t-61.5 -165.5v-496h-342v688q0 65 -15 89t-73 24zM313 1114v31l160 356l309 -110v-29l-198 -248h-271z" />
<glyph unicode="&#x156;" horiz-adv-x="1423" d="M154 2v1434h630q125 0 226 -43.5t162.5 -116.5t94.5 -162t33 -186q-2 -127 -56 -237.5t-157 -180.5l281 -455v-53h-397l-246 449h-197v-449h-374zM522 756h260q74 0 115 53.5t41 126.5t-40.5 123.5t-115.5 50.5h-260v-354zM551 -254q0 76 51.5 122t128.5 46t128.5 -46 t51.5 -122q0 -28 -12 -63l-88 -252h-182l51 153q-58 18 -93.5 60.5t-35.5 101.5z" />
<glyph unicode="&#x157;" horiz-adv-x="966" d="M68 801v190q46 11 95 17t106.5 4t103 -16.5t77.5 -50t37 -89.5q28 78 102.5 120t164.5 42q115 3 200 -60l-69 -282q-74 52 -170 49q-94 -5 -155.5 -63.5t-61.5 -165.5v-496h-342v688q0 65 -15 89t-73 24zM150 -264q0 72 50 117t124 45t124 -45t50 -117q0 -33 -13 -62 l-84 -243h-176l49 147q-56 18 -90 59t-34 99z" />
<glyph unicode="&#x158;" horiz-adv-x="1425" d="M156 2v1434h630q125 0 226 -43.5t163 -116.5t95 -162t33 -186q-2 -127 -56 -237.5t-157 -180.5l280 -455v-53h-397l-246 449h-197v-449h-374zM203 1880v33h336l135 -146l131 146h340v-33l-297 -319h-350zM524 756h260q74 0 115 53.5t41 126.5t-40.5 123.5t-115.5 50.5 h-260v-354z" />
<glyph unicode="&#x159;" horiz-adv-x="966" d="M55 1438v30h316l125 -137l122 137h320v-30l-279 -303h-327zM68 801v190q46 11 95 17t106.5 4t103 -16.5t77.5 -50t37 -89.5q28 78 102.5 120t164.5 42q115 3 200 -60l-69 -282q-74 52 -170 49q-94 -5 -155.5 -63.5t-61.5 -165.5v-496h-342v688q0 65 -15 89t-73 24z" />
<glyph unicode="&#x15a;" horiz-adv-x="1329" d="M82 440h356q0 -70 67.5 -108.5t160.5 -38.5q86 0 152.5 37t66.5 98q0 28 -10 51t-23 37.5t-39 26t-43.5 17t-51.5 10t-49 5.5t-48 3q-83 5 -155.5 20.5t-142 48t-118.5 78.5t-79 115.5t-30 156.5q0 113 45.5 204t123.5 148t177 87t211 30q106 0 204 -30.5t177 -87 t125.5 -148t44.5 -203.5h-350q-1 69 -57 104.5t-138 35.5q-36 0 -66.5 -5.5t-61 -19t-48.5 -40.5t-18 -66q0 -67 52.5 -94.5t166.5 -39.5q71 -6 128 -14.5t118 -24.5t107 -38t88.5 -56t70 -77t43.5 -103t16 -133q0 -109 -50 -198t-133 -145t-186.5 -86t-215.5 -30 q-92 0 -178 18t-161.5 56t-131.5 93t-87.5 133.5t-29.5 172.5zM487 1571v33l168 370l322 -114v-31l-207 -258h-283z" />
<glyph unicode="&#x15b;" horiz-adv-x="1056" d="M68 313h340q0 -44 33 -66t81 -22q46 0 80.5 21t34.5 57q0 22 -8.5 36.5t-26 22.5t-33.5 11t-41 6q-53 6 -87 11t-85.5 16.5t-85 24.5t-72 36t-61.5 51.5t-38 70t-15 91.5q0 83 37.5 148.5t100 105.5t140 61t162.5 21q86 0 165 -22.5t141.5 -63.5t98.5 -106t32 -144h-306 q-4 35 -41 55.5t-82 18.5q-44 -2 -74 -19.5t-30 -46.5q-1 -10 0.5 -18.5t6.5 -14.5t9.5 -11t14 -8.5t15 -6t18 -4.5t17 -3t18 -2.5t16.5 -1.5q45 -5 73.5 -8.5t71 -10.5t70 -14.5t63 -21t57.5 -29t46 -38.5t37 -50.5t21 -63.5t7 -79q-3 -107 -70 -184t-166 -112.5 t-216 -35.5q-462 0 -469 342zM362 1112v31l160 352l305 -109v-28l-196 -246h-269z" />
<glyph unicode="&#x15c;" horiz-adv-x="1329" d="M82 440h356q0 -70 67.5 -108.5t160.5 -38.5q86 0 152.5 37t66.5 98q0 28 -10 51t-23 37.5t-39 26t-43.5 17t-51.5 10t-49 5.5t-48 3q-83 5 -155.5 20.5t-142 48t-118.5 78.5t-79 115.5t-30 156.5q0 113 45.5 204t123.5 148t177 87t211 30q106 0 204 -30.5t177 -87 t125.5 -148t44.5 -203.5h-350q-1 69 -57 104.5t-138 35.5q-36 0 -66.5 -5.5t-61 -19t-48.5 -40.5t-18 -66q0 -67 52.5 -94.5t166.5 -39.5q71 -6 128 -14.5t118 -24.5t107 -38t88.5 -56t70 -77t43.5 -103t16 -133q0 -109 -50 -198t-133 -145t-186.5 -86t-215.5 -30 q-92 0 -178 18t-161.5 56t-131.5 93t-87.5 133.5t-29.5 172.5zM207 1569v33l297 319h350l295 -319v-33h-336l-135 145l-131 -145h-340z" />
<glyph unicode="&#x15d;" horiz-adv-x="1056" d="M68 313h340q0 -44 33 -66t81 -22q46 0 80.5 21t34.5 57q0 22 -8.5 36.5t-26 22.5t-33.5 11t-41 6q-53 6 -87 11t-85.5 16.5t-85 24.5t-72 36t-61.5 51.5t-38 70t-15 91.5q0 83 37.5 148.5t100 105.5t140 61t162.5 21q86 0 165 -22.5t141.5 -63.5t98.5 -106t32 -144h-306 q-4 35 -41 55.5t-82 18.5q-44 -2 -74 -19.5t-30 -46.5q-1 -10 0.5 -18.5t6.5 -14.5t9.5 -11t14 -8.5t15 -6t18 -4.5t17 -3t18 -2.5t16.5 -1.5q45 -5 73.5 -8.5t71 -10.5t70 -14.5t63 -21t57.5 -29t46 -38.5t37 -50.5t21 -63.5t7 -79q-3 -107 -70 -184t-166 -112.5 t-216 -35.5q-462 0 -469 342zM115 1139v30l266 299h313l267 -299v-30h-304l-120 137l-117 -137h-305z" />
<glyph unicode="&#x15e;" horiz-adv-x="1333" d="M84 440h356q0 -70 67.5 -108.5t160.5 -38.5q86 0 152.5 37t66.5 98q0 28 -10 51t-23 37.5t-39 26t-43.5 17t-51.5 10t-49 5.5t-48 3q-83 5 -155.5 20.5t-142 48t-118.5 78.5t-79 115.5t-30 156.5q0 113 45.5 204t123.5 148t177 87t211 30q106 0 204 -30.5t177 -87 t125.5 -148t44.5 -203.5h-350q-1 69 -56.5 104.5t-137.5 35.5q-36 0 -67 -5.5t-61.5 -19t-48.5 -40.5t-18 -66q0 -67 52.5 -94.5t166.5 -39.5q71 -6 128 -14.5t118 -24.5t107 -38t88.5 -56t70 -77t43.5 -103t16 -133q0 -91 -34 -167t-94.5 -130t-135.5 -90t-164 -55 l-28 -115q99 -16 131.5 -85.5t5.5 -156.5q-21 -69 -82.5 -108t-137.5 -44.5t-155 11t-139 51.5l20 189q43 -29 116 -31.5t89 35.5q11 39 -33 60.5t-92 21.5l43 161q-100 10 -186.5 45t-154.5 92t-106 142t-36 188z" />
<glyph unicode="&#x15f;" horiz-adv-x="1062" d="M72 313h338q0 -28 24 -48t58 -25t67.5 -1.5t57.5 21t24 43.5q0 22 -8.5 36.5t-26 22.5t-33.5 11t-41 6q-40 5 -67 8.5t-68 11t-69 15t-63.5 20.5t-59.5 28.5t-49 37t-40 47.5t-24.5 60t-9.5 73q0 167 150 260q131 81 315 75q181 -6 300 -93q127 -94 118 -242h-306 q0 28 -23.5 46.5t-56.5 22.5t-66.5 0t-57 -21t-23.5 -40q-1 -13 1.5 -22.5t11 -16.5t15 -11t21 -7t21.5 -4.5t24 -3t21 -2.5q57 -6 95 -11t89.5 -16.5t85.5 -25.5t71 -38t58 -54.5t34.5 -74.5t12.5 -98q-4 -130 -94.5 -211t-230.5 -108l-17 -70q46 -6 78.5 -28.5t45 -53.5 t14 -67t-12.5 -70q-20 -63 -76 -99t-125.5 -41t-141 10t-126.5 46l19 172q40 -27 105.5 -28t80.5 32q7 25 -12.5 43.5t-47 25.5t-53.5 7l29 114q-74 8 -135.5 29.5t-113.5 59.5t-80.5 101t-26.5 146z" />
<glyph unicode="&#x160;" horiz-adv-x="1329" d="M82 440h356q0 -70 67.5 -108.5t160.5 -38.5q86 0 152.5 37t66.5 98q0 28 -10 51t-23 37.5t-39 26t-43.5 17t-51.5 10t-49 5.5t-48 3q-83 5 -155.5 20.5t-142 48t-118.5 78.5t-79 115.5t-30 156.5q0 113 45.5 204t123.5 148t177 87t211 30q106 0 204 -30.5t177 -87 t125.5 -148t44.5 -203.5h-350q-1 69 -57 104.5t-138 35.5q-36 0 -66.5 -5.5t-61 -19t-48.5 -40.5t-18 -66q0 -67 52.5 -94.5t166.5 -39.5q71 -6 128 -14.5t118 -24.5t107 -38t88.5 -56t70 -77t43.5 -103t16 -133q0 -109 -50 -198t-133 -145t-186.5 -86t-215.5 -30 q-92 0 -178 18t-161.5 56t-131.5 93t-87.5 133.5t-29.5 172.5zM199 1884v33h336l135 -145l131 145h340v-33l-297 -319h-350z" />
<glyph unicode="&#x161;" horiz-adv-x="1056" d="M68 313h340q0 -44 33 -66t81 -22q46 0 80.5 21t34.5 57q0 22 -8.5 36.5t-26 22.5t-33.5 11t-41 6q-53 6 -87 11t-85.5 16.5t-85 24.5t-72 36t-61.5 51.5t-38 70t-15 91.5q0 83 37.5 148.5t100 105.5t140 61t162.5 21q86 0 165 -22.5t141.5 -63.5t98.5 -106t32 -144h-306 q-4 35 -41 55.5t-82 18.5q-44 -2 -74 -19.5t-30 -46.5q-1 -10 0.5 -18.5t6.5 -14.5t9.5 -11t14 -8.5t15 -6t18 -4.5t17 -3t18 -2.5t16.5 -1.5q45 -5 73.5 -8.5t71 -10.5t70 -14.5t63 -21t57.5 -29t46 -38.5t37 -50.5t21 -63.5t7 -79q-3 -107 -70 -184t-166 -112.5 t-216 -35.5q-462 0 -469 342zM109 1415v31h303l123 -131l118 131h310v-31l-271 -287h-317z" />
<glyph unicode="&#x162;" horiz-adv-x="1142" d="M39 1106v328h1065v-328h-350v-1106h-58l-26 -106q99 -16 131.5 -85.5t5.5 -156.5q-21 -69 -82.5 -108t-137.5 -44.5t-155 11t-139 51.5l20 188q43 -29 116 -31.5t89 35.5q11 39 -33 60.5t-92 21.5l43 164h-45v1106h-352z" />
<glyph unicode="&#x163;" horiz-adv-x="946" d="M37 764v223h174l39 305h303v-305h301v-246h-301v-344q0 -64 31 -101t80.5 -45t101.5 -1.5t104 24.5l29 -260q-108 -29 -209 -37l-20 -83q99 -16 131.5 -85.5t5.5 -156.5q-21 -69 -82.5 -108t-137.5 -44.5t-155 11t-139 51.5l20 188q43 -29 116 -31.5t89 35.5 q11 39 -33 60.5t-92 21.5l45 170q-227 81 -227 383v352z" />
<glyph unicode="&#x164;" horiz-adv-x="1142" d="M39 1106v328h1065v-328h-350v-1106h-363v1106h-352zM102 1858v32h336l135 -145l132 145h339v-32l-296 -320h-351z" />
<glyph unicode="&#x165;" horiz-adv-x="1058" d="M33 764v223h174l39 305h303v-305h231v-246h-231v-344q0 -64 31 -101t80.5 -45t101.5 -1.5t104 24.5l29 -260q-88 -24 -169.5 -33.5t-160 -4t-142.5 33.5t-113 75t-76 124.5t-27 179.5v352zM778 1182q0 80 55 129t136 49q80 0 134 -49t54 -129q0 -30 -12 -68l-92 -274 h-191l51 174q-62 18 -98.5 61t-36.5 107z" />
<glyph unicode="&#x166;" horiz-adv-x="1142" d="M39 1106v328h1065v-328h-350v-324h161v-276h-161v-506h-363v506h-172v276h172v324h-352z" />
<glyph unicode="&#x167;" horiz-adv-x="946" d="M37 764v223h174l39 305h303v-305h301v-246h-301v-114h158v-240h-158v-6q0 -52 21 -85t53.5 -45t76.5 -11t84 10t82 24l29 -260q-107 -30 -202.5 -39.5t-186 5.5t-155.5 58.5t-104.5 128.5t-39.5 206v14h-131v240h131v114z" />
<glyph unicode="&#x168;" horiz-adv-x="1445" d="M141 473v961h375v-953q0 -84 61.5 -127t149.5 -43q84 0 145.5 43.5t61.5 126.5v953h371v-961q0 -117 -48 -212t-129.5 -155t-185 -92t-217.5 -32q-115 0 -219 32t-186 92t-130.5 155t-48.5 212zM313 1669q61 171 170.5 228t266.5 -11q6 -3 24.5 -11t28 -12t27 -10 t28 -6.5t25.5 0.5t24.5 8t19 20t15.5 32l186 -88q-37 -157 -153 -225.5t-248 -4.5q-5 3 -24.5 12t-28.5 13t-28 11.5t-29.5 9t-27.5 4t-27.5 -1t-23 -9.5t-22 -18.5t-16.5 -30.5q-20 10 -87 42.5t-100 47.5z" />
<glyph unicode="&#x169;" horiz-adv-x="1251" d="M113 428v559h352v-559q-4 -84 33.5 -127t95.5 -43q64 0 111 48.5t47 127.5v553h348v-696q0 -56 13 -76t69 -20v-191q-33 -8 -65.5 -14t-76 -10t-81 -2.5t-75 11t-64.5 28t-43.5 52t-16.5 78.5q-37 -75 -116 -118t-167 -43q-107 0 -180.5 33t-112.5 96t-55 138t-16 175z M229 1223q58 167 165 222.5t257 -11.5q6 -2 27.5 -11.5t31.5 -13.5t30 -9.5t31.5 -4t26.5 6t25 18t17 34.5q24 -12 85.5 -40.5t94.5 -45.5q-37 -152 -149 -217.5t-240 -5.5q-7 3 -28 13t-31 14.5t-30.5 12t-32.5 9t-29 1t-28 -7t-22.5 -19.5t-19.5 -33q-131 65 -181 88z" />
<glyph unicode="&#x16a;" horiz-adv-x="1445" d="M141 473v961h375v-953q0 -84 61.5 -127t149.5 -43q84 0 145.5 43.5t61.5 126.5v953h371v-961q0 -117 -48 -212t-129.5 -155t-185 -92t-217.5 -32q-115 0 -219 32t-186 92t-130.5 155t-48.5 212zM379 1573v276h680v-276h-680z" />
<glyph unicode="&#x16b;" horiz-adv-x="1251" d="M113 428v559h352v-559q-4 -84 33.5 -127t95.5 -43q64 0 111 48.5t47 127.5v553h348v-696q0 -56 13 -76t69 -20v-191q-33 -8 -65.5 -14t-76 -10t-81 -2.5t-75 11t-64.5 28t-43.5 52t-16.5 78.5q-37 -75 -116 -118t-167 -43q-107 0 -180.5 33t-112.5 96t-55 138t-16 175z M272 1155v277h680v-277h-680z" />
<glyph unicode="&#x16c;" horiz-adv-x="1445" d="M141 473v961h375v-953q0 -84 61.5 -127t149.5 -43q84 0 145.5 43.5t61.5 126.5v953h371v-961q0 -117 -48 -212t-129.5 -155t-185 -92t-217.5 -32q-115 0 -219 32t-186 92t-130.5 155t-48.5 212zM274 1915h306q2 -41 32 -69t71 -34.5t82 0t71 34.5t32 69h301 q0 -107 -49 -191t-127 -127t-173 -62.5t-190 1t-174 64t-129.5 127t-52.5 188.5z" />
<glyph unicode="&#x16d;" horiz-adv-x="1251" d="M113 428v559h352v-559q-4 -84 33.5 -127t95.5 -43q64 0 111 48.5t47 127.5v553h348v-696q0 -56 13 -76t69 -20v-191q-33 -8 -65.5 -14t-76 -10t-81 -2.5t-75 11t-64.5 28t-43.5 52t-16.5 78.5q-37 -75 -116 -118t-167 -43q-107 0 -180.5 33t-112.5 96t-55 138t-16 175z M186 1452h285q2 -38 30 -64t66 -32.5t76 -0.5t66 32t30 65h281q0 -100 -45.5 -178.5t-118.5 -118t-161 -58t-176.5 1t-162.5 60t-121 118t-49 175.5z" />
<glyph unicode="&#x16e;" horiz-adv-x="1445" d="M141 473v961h375v-953q0 -84 61.5 -127t149.5 -43q84 0 145.5 43.5t61.5 126.5v953h371v-961q0 -117 -48 -212t-129.5 -155t-185 -92t-217.5 -32q-115 0 -219 32t-186 92t-130.5 155t-48.5 212zM446 1755q0 61 23.5 110.5t62 80t88 47t101 16.5t101 -16.5t88 -47t62 -80 t23.5 -110.5q0 -62 -23.5 -112t-62 -80.5t-88 -47t-101 -16.5t-101 16.5t-88 47.5t-62 81t-23.5 111zM635 1755q0 -37 27 -58t60 -21t60 21t27 58t-27 58t-60 21t-60 -21t-27 -58z" />
<glyph unicode="&#x16f;" horiz-adv-x="1251" d="M113 428v559h352v-559q-4 -84 33.5 -127t95.5 -43q64 0 111 48.5t47 127.5v553h348v-696q0 -56 13 -76t69 -20v-191q-33 -8 -65.5 -14t-76 -10t-81 -2.5t-75 11t-64.5 28t-43.5 52t-16.5 78.5q-37 -75 -116 -118t-167 -43q-107 0 -180.5 33t-112.5 96t-55 138t-16 175z M338 1321q0 57 23 102.5t60.5 74t85.5 43.5t98 15t98 -15t85.5 -43.5t60.5 -74t23 -102.5q0 -58 -23 -104.5t-60.5 -75t-85.5 -44t-98 -15.5t-98 15.5t-85.5 44.5t-60.5 75.5t-23 103.5zM520 1321q0 -46 42.5 -65t85 0t42.5 65q0 44 -42.5 62.5t-85 0t-42.5 -62.5z" />
<glyph unicode="&#x170;" horiz-adv-x="1445" d="M141 473v961h375v-953q0 -84 61.5 -127t149.5 -43q84 0 145.5 43.5t61.5 126.5v953h371v-961q0 -117 -48 -212t-129.5 -155t-185 -92t-217.5 -32q-115 0 -219 32t-186 92t-130.5 155t-48.5 212zM330 1559v30l135 375l311 -68v-28l-174 -309h-272zM803 1559v30l135 346 l309 -82v-30l-174 -264h-270z" />
<glyph unicode="&#x171;" horiz-adv-x="1251" d="M113 428v559h352v-559q-4 -84 33.5 -127t95.5 -43q64 0 111 48.5t47 127.5v553h348v-696q0 -56 13 -76t69 -20v-191q-33 -8 -65.5 -14t-76 -10t-81 -2.5t-75 11t-64.5 28t-43.5 52t-16.5 78.5q-37 -75 -116 -118t-167 -43q-107 0 -180.5 33t-112.5 96t-55 138t-16 175z M240 1116v29l127 354l295 -63v-27l-166 -293h-256zM686 1116v29l127 328l293 -78v-29l-164 -250h-256z" />
<glyph unicode="&#x172;" horiz-adv-x="1447" d="M141 473v961h375v-953q0 -84 61.5 -127t149.5 -43q84 0 145.5 43.5t61.5 126.5v953h371v-961q0 -149 -74 -257t-203 -171q-49 -40 -67 -94t6 -103q17 -34 52.5 -44t76.5 1.5t75 28t60 35.5l49 -217q-49 -34 -115.5 -58t-140 -31.5t-138.5 4.5t-116 57.5t-68 121.5 q-33 126 43 236h-20q-115 0 -219 32t-186 92t-130.5 155t-48.5 212z" />
<glyph unicode="&#x173;" horiz-adv-x="1253" d="M113 428v559h352v-559q-4 -84 33.5 -127t95.5 -43q64 0 111 48.5t47 127.5v553h348v-680q0 -67 8 -83q14 -29 74 -29v-191q-92 -20 -170 -27q-43 -37 -58.5 -86.5t7.5 -93.5q17 -31 49.5 -40t69 1.5t68 25.5t56.5 34l45 -203q-58 -40 -138 -61.5t-159.5 -18.5t-144.5 51 t-86 138q-44 161 113 282q-74 39 -74 133v8q-37 -75 -116 -118t-167 -43q-107 0 -180.5 33t-112.5 96t-55 138t-16 175z" />
<glyph unicode="&#x174;" horiz-adv-x="1947" d="M12 1378v56h394l135 -392l108 -417h6l242 784h154l252 -784h6l100 417l133 392h393v-56l-512 -1392h-198l-248 655h-6l-238 -655h-209zM498 1561v32l297 320h350l295 -320v-32h-336l-135 145l-131 -145h-340z" />
<glyph unicode="&#x175;" horiz-adv-x="1562" d="M10 948v39h373l92 -237l57 -181h7l174 396h133l176 -396h8l57 181l89 237h376v-39l-422 -966h-118l-234 415l-229 -415h-119zM330 1128v33l282 301h332l279 -301v-33h-318l-129 140l-123 -140h-323z" />
<glyph unicode="&#x176;" horiz-adv-x="1312" d="M-12 1378v56h401l260 -476h17l260 476h397v-56l-479 -811v-567h-375v567zM186 1567v32l297 320h351l294 -320v-32h-335l-136 145l-131 -145h-340z" />
<glyph unicode="&#x177;" horiz-adv-x="1155" d="M2 948v39h373l211 -579h8l186 579h346v-39l-409 -1059q-53 -136 -111 -221t-134.5 -130t-173.5 -38t-222 64l30 223q110 -49 179 -19.5t110 150.5l27 82zM113 1112v33l297 319h350l295 -319v-33h-336l-135 145l-131 -145h-340z" />
<glyph unicode="&#x178;" horiz-adv-x="1312" d="M-12 1378v56h401l260 -476h17l260 476h397v-56l-479 -811v-567h-375v567zM186 1706q0 78 56 127t137 49t136.5 -49t55.5 -127t-55.5 -126t-136.5 -48q-82 0 -137.5 48t-55.5 126zM743 1706q0 78 55 127t138 49q81 0 135.5 -49t54.5 -127t-54.5 -126t-135.5 -48 q-83 0 -138 48t-55 126z" />
<glyph unicode="&#x179;" horiz-adv-x="1257" d="M49 0v53l578 1055h-527v326h1076v-56l-576 -1044h582v-334h-1133zM469 1561v32l168 371l321 -115v-30l-206 -258h-283z" />
<glyph unicode="&#x17a;" horiz-adv-x="999" d="M53 0v39l383 661h-346v287h832v-39l-375 -639h377v-309h-871zM340 1120v31l160 348l301 -108v-29l-195 -242h-266z" />
<glyph unicode="&#x17b;" horiz-adv-x="1257" d="M49 0v53l578 1055h-527v326h1076v-56l-576 -1044h582v-334h-1133zM432 1739q0 84 58 136t145 52q88 0 145.5 -51.5t57.5 -136.5t-57.5 -136t-145.5 -51q-87 0 -145 51.5t-58 135.5z" />
<glyph unicode="&#x17c;" horiz-adv-x="999" d="M53 0v39l383 661h-346v287h832v-39l-375 -639h377v-309h-871zM324 1280q0 80 55.5 130t136.5 50q83 0 139 -50t56 -130t-55.5 -129t-139.5 -49q-82 0 -137 49t-55 129z" />
<glyph unicode="&#x17d;" horiz-adv-x="1257" d="M49 0v53l578 1055h-527v326h1076v-56l-576 -1044h582v-334h-1133zM164 1874v33h336l135 -146l131 146h340v-33l-297 -320h-350z" />
<glyph unicode="&#x17e;" horiz-adv-x="999" d="M53 0v39l383 661h-346v287h832v-39l-375 -639h377v-309h-871zM111 1399v28h284l115 -124l113 124h288v-28l-252 -273h-299z" />
<glyph unicode="&#x17f;" horiz-adv-x="741" d="M51 741v246h174v105q0 90 19 160t53 116.5t82.5 77t104.5 44t124 14.5t136 -9t143 -29l-33 -258q-285 86 -285 -125v-1083h-350v741h-168z" />
<glyph unicode="&#x192;" horiz-adv-x="1155" d="M74 -436l30 260q43 -13 80.5 -20.5t80 -6.5t73 14.5t50.5 48t20 89.5v626h-281v248h281l2 252q0 102 26 180t73.5 125t110 75t139.5 33t157.5 -4.5t168.5 -33.5l-30 -258q-42 13 -79.5 20t-80 6t-72 -15t-49.5 -49t-20 -89v-242h286v-248h-286l-2 -634q0 -104 -26.5 -182 t-74.5 -125t-111 -74t-140.5 -32t-157.5 4t-168 32z" />
<glyph unicode="&#x1fa;" horiz-adv-x="1435" d="M-23 0v51l594 1262q-129 59 -129 192q0 54 23.5 97.5t62.5 70t88.5 41t101 14.5t101 -14.5t88.5 -41t62.5 -70t23.5 -97.5q0 -129 -125 -190l590 -1264v-51h-387l-84 178h-536l-82 -178h-392zM569 1761v25l162 280l311 -88v-22l-198 -195h-275zM571 492h297l-145 346h-8z M633 1503q0 -32 27 -50t60 -18t60 18t27 50q0 43 -43.5 61t-87 0t-43.5 -61z" />
<glyph unicode="&#x1fb;" horiz-adv-x="1146" d="M66 293q-7 180 98.5 273t284.5 93q136 0 221 -55v31q0 35 -21.5 59.5t-57.5 35t-67.5 14.5t-66.5 4q-168 0 -273 -54l-41 248q159 72 375 72q106 0 191 -20t154.5 -63.5t108 -121t38.5 -184.5v-318q0 -28 0.5 -41t4.5 -30.5t12.5 -24.5t24.5 -12.5t40 -5.5v-191 q-325 -76 -351 135q-38 -80 -127.5 -117.5t-189.5 -37.5q-143 0 -248.5 86.5t-109.5 224.5zM307 1276q0 73 41.5 126.5t103 77.5t134 24t134 -24t103 -77.5t41.5 -126.5t-41.5 -126.5t-103 -77.5t-134 -24t-134 24t-103 77.5t-41.5 126.5zM406 317q4 -34 29.5 -51.5 t62.5 -17.5q62 0 116 32.5t54 90.5v20q-67 48 -156 45q-57 -5 -86.5 -35.5t-19.5 -83.5zM412 1546v25l182 287l348 -89v-24l-223 -199h-307zM498 1276q0 -43 44 -61t88 0t44 61t-44 61t-88 0t-44 -61z" />
<glyph unicode="&#x1fc;" horiz-adv-x="1693" d="M-20 0v55l636 1375h957v-326h-467v-205h424v-309h-424v-266h485v-324h-803v313h-321l-129 -313h-358zM582 618h206l15 496h-4zM819 1534v33l168 370l322 -114v-31l-207 -258h-283z" />
<glyph unicode="&#x1fd;" horiz-adv-x="1628" d="M66 291q-7 179 98.5 271.5t284.5 92.5q135 0 223 -57v23q0 37 -23 64t-59.5 39.5t-71 18t-69.5 5.5q-74 0 -146.5 -18t-118.5 -40l-41 244q178 76 373 76q254 0 318 -152q39 73 126 112.5t177 39.5q105 -2 186 -34t130.5 -87.5t75 -131t25.5 -163t-24 -184.5h-574 q20 -163 199 -172q86 -4 185 15t157 48l41 -238q-209 -90 -385 -90q-246 0 -358 172q-146 -165 -373 -165q-141 0 -246.5 86t-109.5 225zM406 315q4 -35 29.5 -53t62.5 -18q64 0 118 32.5t54 90.5v20q-76 50 -158 47q-56 -5 -84.5 -35.5t-21.5 -83.5zM662 1116v31l159 352 l305 -108v-29l-196 -246h-268zM961 616h278q6 58 -30 91.5t-93 33.5q-53 5 -98.5 -28.5t-56.5 -96.5z" />
<glyph unicode="&#x1fe;" horiz-adv-x="1619" d="M78 717q0 145 41 268t111.5 209t164.5 146.5t200 89t218 28.5q145 0 248 -39l80 137h350v-34l-160 -265q211 -201 211 -540q0 -145 -41 -268t-111 -209t-163.5 -146.5t-199.5 -89.5t-218 -29q-122 0 -225 33l-84 -139q-38 0 -109 -0.5t-129.5 -0.5t-109.5 1v39l153 256 q-227 201 -227 553zM453 717q0 -134 65 -234l369 615q-37 6 -76 6q-68 0 -131 -25t-114.5 -72t-82 -122t-30.5 -168zM651 1579v33l168 370l322 -114v-31l-207 -258h-283zM758 334q36 -4 55 -4q66 0 128.5 25.5t113.5 72.5t81.5 122t30.5 167q0 125 -51 215z" />
<glyph unicode="&#x1ff;" horiz-adv-x="1181" d="M68 498q0 84 20.5 158.5t57 130t86 101t107.5 72t122.5 43.5t130 15t129.5 -14l55 110h268l-106 -213q180 -149 180 -403q0 -83 -20 -156.5t-56 -129t-85 -100.5t-106.5 -72.5t-121 -44.5t-128 -16t-128.5 11l-51 -105h-268l102 201q-188 144 -188 412zM401 498 q0 -70 21 -113l174 344q-80 0 -137.5 -60.5t-57.5 -170.5zM422 1124v31l160 350l301 -108v-29l-195 -244h-266zM596 266q77 0 133.5 62t56.5 170q0 50 -18 106z" />
<glyph unicode="&#x218;" horiz-adv-x="1329" d="M82 440h356q0 -70 67.5 -108.5t160.5 -38.5q86 0 152.5 37t66.5 98q0 28 -10 51t-23 37.5t-39 26t-43.5 17t-51.5 10t-49 5.5t-48 3q-83 5 -155.5 20.5t-142 48t-118.5 78.5t-79 115.5t-30 156.5q0 113 45.5 204t123.5 148t177 87t211 30q106 0 204 -30.5t177 -87 t125.5 -148t44.5 -203.5h-350q-1 69 -57 104.5t-138 35.5q-36 0 -66.5 -5.5t-61 -19t-48.5 -40.5t-18 -66q0 -67 52.5 -94.5t166.5 -39.5q71 -6 128 -14.5t118 -24.5t107 -38t88.5 -56t70 -77t43.5 -103t16 -133q0 -109 -50 -198t-133 -145t-186.5 -86t-215.5 -30 q-92 0 -178 18t-161.5 56t-131.5 93t-87.5 133.5t-29.5 172.5zM487 -264q0 52 26.5 90t67 55t87 17t87 -17t67 -55t26.5 -90q0 -24 -21 -86l-79 -221h-183l51 153q-129 40 -129 154z" />
<glyph unicode="&#x219;" horiz-adv-x="1056" d="M68 313h340q0 -44 33 -66t81 -22q46 0 80.5 21t34.5 57q0 22 -8.5 36.5t-26 22.5t-33.5 11t-41 6q-53 6 -87 11t-85.5 16.5t-85 24.5t-72 36t-61.5 51.5t-38 70t-15 91.5q0 83 37.5 148.5t100 105.5t140 61t162.5 21q86 0 165 -22.5t141.5 -63.5t98.5 -106t32 -144h-306 q-4 35 -41 55.5t-82 18.5q-44 -2 -74 -19.5t-30 -46.5q-1 -10 0.5 -18.5t6.5 -14.5t9.5 -11t14 -8.5t15 -6t18 -4.5t17 -3t18 -2.5t16.5 -1.5q45 -5 73.5 -8.5t71 -10.5t70 -14.5t63 -21t57.5 -29t46 -38.5t37 -50.5t21 -63.5t7 -79q-3 -107 -70 -184t-166 -112.5 t-216 -35.5q-462 0 -469 342zM377 -283q0 43 19 76t48.5 50.5t66 25.5t73 0t66 -25.5t48.5 -50.5t19 -76q0 -23 -21 -79l-73 -209h-174l51 145q-56 14 -89.5 51t-33.5 92z" />
<glyph unicode="&#x21a;" horiz-adv-x="1142" d="M39 1106v328h1065v-328h-350v-1106h-363v1106h-352zM393 -264q0 52 26.5 90t67 55t87 17t87 -17t67 -55t26.5 -90q0 -24 -21 -86l-80 -221h-182l51 153q-129 40 -129 154z" />
<glyph unicode="&#x21b;" horiz-adv-x="942" d="M33 764v223h174l39 305h303v-305h301v-246h-301v-344q0 -64 31 -101t80.5 -45t101.5 -1.5t104 24.5l29 -260q-88 -24 -169.5 -33.5t-160 -4t-142.5 33.5t-113 75t-76 124.5t-27 179.5v352zM365 -283q0 43 19 76t48.5 50.5t66 25.5t73 0t66 -25.5t48.5 -50.5t19 -76 q0 -23 -21 -79l-74 -209h-174l51 145q-56 14 -89 51t-33 92z" />
<glyph unicode="&#x2c6;" horiz-adv-x="1087" d="M70 1083v33l297 320h350l295 -320v-33h-336l-135 146l-131 -146h-340z" />
<glyph unicode="&#x2c7;" horiz-adv-x="1087" d="M70 1403v33h336l135 -146l131 146h340v-33l-297 -320h-350z" />
<glyph unicode="&#x2d8;" horiz-adv-x="1083" d="M88 1434h305q2 -41 32 -69t71.5 -34.5t82.5 0t71 34.5t32 69h301q0 -107 -49 -191t-127 -127t-173 -62.5t-190 1t-174 64t-129.5 127t-52.5 188.5z" />
<glyph unicode="&#x2d9;" horiz-adv-x="657" d="M96 1272q0 84 58 136t145 52q88 0 145.5 -51.5t57.5 -136.5t-57.5 -136t-145.5 -51q-87 0 -145 51.5t-58 135.5z" />
<glyph unicode="&#x2da;" horiz-adv-x="776" d="M109 1249q0 81 40.5 140t101.5 86t132 27t132 -27t101.5 -86t40.5 -140q0 -82 -40.5 -142t-101.5 -86.5t-132 -26.5t-132 27t-101.5 87t-40.5 141zM297 1249q0 -37 27 -58t60 -21t60 21t27 58t-27 58t-60 21t-60 -21t-27 -58z" />
<glyph unicode="&#x2db;" horiz-adv-x="745" d="M106 -293q-46 176 134 313h243q-72 -34 -110.5 -104t-7.5 -129q17 -34 53 -44t76.5 1t74.5 27.5t60 35.5l49 -217q-50 -35 -116 -58.5t-137.5 -27.5t-135.5 11.5t-114 65t-69 126.5z" />
<glyph unicode="&#x2dc;" horiz-adv-x="1030" d="M80 1223q61 171 170 228t266 -11q6 -3 24.5 -11t28 -12t27 -10t28.5 -7t25.5 0t24.5 8t19.5 20t15.5 32l186 -88q-37 -157 -153 -225t-248 -4q-5 2 -25 11.5t-28.5 13t-27.5 11.5t-30 9.5t-27.5 4t-27.5 -1t-23.5 -9.5t-22 -18.5t-16.5 -30.5q-22 10 -87.5 42.5 t-98.5 47.5z" />
<glyph unicode="&#x2dd;" horiz-adv-x="1060" d="M78 1067v31l135 375l311 -68v-29l-174 -309h-272zM551 1067v31l135 346l309 -82v-31l-174 -264h-270z" />
<glyph unicode="&#x401;" d="M154 0v1434h895v-326h-521v-205h480v-328h-480v-233h539v-342h-913zM156 1716q0 74 53.5 121t130.5 47t130.5 -47t53.5 -121q0 -73 -53.5 -119.5t-130.5 -46.5t-130.5 46.5t-53.5 119.5zM688 1716q0 74 52.5 121t131.5 47q77 0 130 -47t53 -121q0 -73 -53 -119.5 t-130 -46.5q-79 0 -131.5 46t-52.5 120z" />
<glyph unicode="&#x402;" horiz-adv-x="1566" d="M39 1110v324h1161v-324h-446v-330q34 68 134 109t193 41q206 0 310 -122t104 -323v-333q0 -111 -25.5 -193t-72 -129.5t-112 -72.5t-145.5 -24t-173 17l10 256q105 -8 137.5 19.5t32.5 130.5v329q0 80 -52 124t-124 46q-81 2 -147.5 -46.5t-69.5 -121.5v-487h-363v1110 h-352z" />
<glyph unicode="&#x403;" horiz-adv-x="1077" d="M154 0v1434h893v-328h-521v-1106h-372zM440 1561v32l183 340l313 -114v-31l-219 -227h-277z" />
<glyph unicode="&#x404;" horiz-adv-x="1554" d="M78 717q0 142 40 263.5t109 207t161.5 146t197 89.5t215.5 29q116 0 225 -32.5t204.5 -96.5t162 -172t86.5 -246h-361q-74 211 -317 211q-124 0 -215 -65.5t-115 -182.5h473v-309h-467q31 -114 123.5 -177t214.5 -63q120 -2 206.5 57.5t113.5 172.5h362 q-15 -118 -62 -214t-113 -160.5t-150.5 -108t-173.5 -63t-183 -19.5q-111 -1 -217 28t-200.5 89t-165.5 145.5t-112.5 207t-41.5 263.5z" />
<glyph unicode="&#x405;" horiz-adv-x="1329" d="M82 440h356q0 -70 67.5 -108.5t160.5 -38.5q86 0 152.5 37t66.5 98q0 28 -10 51t-23 37.5t-39 26t-43.5 17t-51.5 10t-49 5.5t-48 3q-83 5 -155.5 20.5t-142 48t-118.5 78.5t-79 115.5t-30 156.5q0 113 45.5 204t123.5 148t177 87t211 30q106 0 204 -30.5t177 -87 t125.5 -148t44.5 -203.5h-350q-1 69 -57 104.5t-138 35.5q-36 0 -66.5 -5.5t-61 -19t-48.5 -40.5t-18 -66q0 -67 52.5 -94.5t166.5 -39.5q71 -6 128 -14.5t118 -24.5t107 -38t88.5 -56t70 -77t43.5 -103t16 -133q0 -109 -50 -198t-133 -145t-186.5 -86t-215.5 -30 q-92 0 -178 18t-161.5 56t-131.5 93t-87.5 133.5t-29.5 172.5z" />
<glyph unicode="&#x406;" horiz-adv-x="935" d="M98 0v303h183v827h-166v304h706v-304h-166v-827h183v-303h-740z" />
<glyph unicode="&#x407;" horiz-adv-x="935" d="M23 1716q0 78 55.5 127t136.5 49t137 -49t56 -127t-55.5 -126t-137.5 -48q-81 0 -136.5 48t-55.5 126zM98 0v303h183v827h-166v304h706v-304h-166v-827h183v-303h-740zM545 1716q0 78 54.5 127t137.5 49q81 0 136 -49t55 -127t-55 -126t-136 -48q-83 0 -137.5 48 t-54.5 126z" />
<glyph unicode="&#x408;" horiz-adv-x="1284" d="M47 473v186h348v-180q0 -83 53.5 -125.5t139.5 -42.5q83 0 131.5 42.5t48.5 125.5v633h-211v322h586v-961q0 -114 -45 -208.5t-121 -156t-176 -95t-211 -33.5q-151 0 -273 57t-196 170.5t-74 265.5z" />
<glyph unicode="&#x409;" horiz-adv-x="2050" d="M29 8l6 268q83 -7 124 7.5t57.5 52t25.5 119.5l100 979h938v-463h217q111 0 203.5 -33t152 -89t101 -128.5t50 -153t-1 -161t-51.5 -153t-102 -129t-152.5 -90t-203.5 -34.5h-569v1100h-254l-56 -658q-9 -106 -27 -181t-50 -129t-74.5 -84.5t-107.5 -44.5t-142 -12 t-184 17zM1280 330q11 0 105.5 -1.5t107.5 1.5q43 0 77 17.5t51.5 45t25.5 60.5t-0.5 66t-26 60.5t-51 44.5t-76.5 17h-213v-311z" />
<glyph unicode="&#x40a;" horiz-adv-x="2043" d="M154 0v1434h374v-486h381v486h365v-478h217q111 0 203.5 -32.5t152.5 -87.5t101.5 -126.5t50 -150.5t-1 -158.5t-51.5 -151t-102.5 -127t-153 -88.5t-203.5 -34h-578v606h-381v-606h-374zM1274 330q11 0 105.5 -1.5t107.5 1.5q43 0 77 17t51.5 43t25.5 57.5t-0.5 63 t-26 57.5t-51 42.5t-76.5 16.5h-213v-297z" />
<glyph unicode="&#x40b;" horiz-adv-x="1566" d="M39 1110v324h1161v-324h-446v-330q34 68 134 109t193 41q206 0 310 -122t104 -323v-485h-348v485q0 80 -52 124t-124 46q-81 2 -147.5 -46.5t-69.5 -121.5v-487h-363v1110h-352z" />
<glyph unicode="&#x40c;" horiz-adv-x="1480" d="M154 0v1434h374v-562h27h32t31 0.5t34.5 2t30.5 4t30 6.5t24 10q46 23 70 83t59 208q14 55 38.5 99t66 82.5t98.5 58t136 24.5t179 -18v-252q-72 5 -115 -17.5t-59 -85.5q-37 -136 -78 -227t-98 -154q48 -74 189.5 -297t220.5 -344v-55h-424l-313 553q-43 -6 -179 -6 v-547h-374zM592 1561v32l182 340l313 -114v-31l-219 -227h-276z" />
<glyph unicode="&#x40e;" horiz-adv-x="1331" d="M10 1386v48h412l272 -551h13l241 551h398v-39l-519 -1057q-56 -129 -116 -207.5t-143 -121.5t-193 -36t-258 62l49 264q55 -20 93 -26.5t75 1t66 38.5t55 87l49 103zM346 1853l203 21q6 -109 133 -109q65 0 100.5 25t44.5 84q48 -3 203 -21q-6 -164 -93.5 -248.5 t-250.5 -84.5q-159 0 -247.5 85t-92.5 248z" />
<glyph unicode="&#x40f;" horiz-adv-x="1499" d="M154 0v1434h374v-1096h443v1096h375v-1434h-412v-268h-361v268h-419z" />
<glyph unicode="&#x410;" horiz-adv-x="1433" d="M-25 0v51l658 1397h172l651 -1397v-51h-387l-84 178h-536l-82 -178h-392zM569 492h297l-149 346z" />
<glyph unicode="&#x411;" horiz-adv-x="1363" d="M154 0v1434h1030v-328h-664v-186h264q126 0 225.5 -34.5t162 -95.5t94.5 -142t32 -177q0 -97 -33 -181t-95.5 -149.5t-161.5 -103t-224 -37.5h-630zM520 328h262q72 0 112 42t40 99q0 59 -40 99t-112 40h-262v-280z" />
<glyph unicode="&#x412;" horiz-adv-x="1380" d="M156 8v1432h632q201 0 327 -121.5t126 -319.5q0 -67 -33 -136t-86 -111q86 -43 132 -125t46 -183q0 -191 -120 -313.5t-334 -122.5h-690zM530 334h289q51 0 78.5 31.5t32.5 78.5q3 52 -28 89.5t-85 37.5h-287v-237zM530 874h232q51 0 79.5 33.5t30.5 79.5q2 51 -27 89 t-83 38h-232v-240z" />
<glyph unicode="&#x413;" horiz-adv-x="1077" d="M154 0v1434h893v-328h-521v-1106h-372z" />
<glyph unicode="&#x414;" horiz-adv-x="1601" d="M59 -168v485h54q80 1 108 39.5t41 143.5l109 934h989v-1117h143v-485h-303v168h-856v-168h-285zM565 309h422v803h-291l-65 -625q-9 -131 -66 -178z" />
<glyph unicode="&#x415;" d="M154 0v1434h895v-326h-521v-205h480v-328h-480v-233h539v-342h-913z" />
<glyph unicode="&#x416;" horiz-adv-x="2160" d="M41 0v55q154 243 410 641q-57 60 -93 150t-73 237q-31 125 -187 95v252q450 102 518 -246q12 -62 24.5 -106.5t43.5 -98.5t74 -78q37 -24 137 -24v557h371v-557q102 0 139 24q26 15 47.5 41t35 52.5t26 65t18.5 63t14 61.5q66 348 516 246v-252q-68 13 -118 -8t-68 -87 q-37 -146 -72.5 -236.5t-91.5 -150.5q154 -243 410 -641v-55h-424q-30 52 -141.5 249t-170.5 302q-90 -8 -120 -8v-543h-371v543q-33 0 -119 8q-144 -252 -313 -551h-422z" />
<glyph unicode="&#x417;" horiz-adv-x="1212" d="M59 467h326q0 -83 55.5 -133.5t137.5 -50.5q89 0 137.5 48t48.5 115q0 65 -49 113.5t-137 48.5h-111v299h106q65 0 102.5 39.5t37.5 89.5q0 58 -40 93.5t-98 35.5q-54 0 -94.5 -26t-40.5 -68h-329q-4 97 31.5 172.5t101 122t150 70.5t181.5 24q114 0 207 -35.5 t151.5 -94.5t90 -132.5t31.5 -153.5q0 -74 -33 -147.5t-94 -118.5q109 -58 159 -144.5t50 -209.5q0 -96 -35 -177.5t-103 -143t-176 -96t-245 -34.5q-241 0 -380 127.5t-139 366.5z" />
<glyph unicode="&#x418;" horiz-adv-x="1546" d="M154 -4v1438h374v-701l748 707h117v-1440h-375v739l-754 -743h-110z" />
<glyph unicode="&#x419;" horiz-adv-x="1546" d="M154 -4h110l754 743v-739h375v1440h-117l-748 -707v701h-374v-1438zM494 1843l202 21q6 -109 133 -109q65 0 101 25t45 84q48 -3 203 -21q-6 -164 -93.5 -249t-250.5 -85q-159 0 -247.5 85.5t-92.5 248.5z" />
<glyph unicode="&#x41a;" horiz-adv-x="1480" d="M154 0v1434h374v-562h27h32t31 0.5t34.5 2t30.5 4t30 6.5t24 10q46 23 70 83t59 208q14 55 38.5 99t66 82.5t98.5 58t136 24.5t179 -18v-252q-72 5 -115 -17.5t-59 -85.5q-37 -136 -78 -227t-98 -154q48 -74 189.5 -297t220.5 -344v-55h-424l-313 553q-43 -6 -179 -6 v-547h-374z" />
<glyph unicode="&#x41b;" horiz-adv-x="1507" d="M29 8l6 268q83 -7 124 7.5t57.5 52t25.5 119.5l100 979h1012v-1434h-373v1100h-311l-56 -658q-9 -106 -27 -181t-50 -129t-74.5 -84.5t-107.5 -44.5t-142 -12t-184 17z" />
<glyph unicode="&#x41c;" horiz-adv-x="1710" d="M154 0v1438h133l569 -621l567 621h133v-1438h-374v662l-305 -320h-43l-306 320v-662h-374z" />
<glyph unicode="&#x41d;" horiz-adv-x="1501" d="M154 0v1434h374v-519h445v519h375v-1434h-375v573h-445v-573h-374z" />
<glyph unicode="&#x41e;" horiz-adv-x="1626" d="M78 717q0 144 41 267t111.5 210t165 148t201.5 90.5t220 29.5q112 0 217 -29.5t198.5 -90.5t163.5 -148t111 -210t41 -267q0 -162 -54.5 -300.5t-151 -236t-233.5 -152.5t-298 -55q-115 0 -221.5 29t-200 90t-162.5 147.5t-109 209.5t-40 268zM453 717q0 -93 30 -168.5 t81 -122.5t115 -72.5t134 -25.5q68 0 131.5 25.5t115.5 72.5t83 122.5t31 168.5t-30.5 168.5t-81.5 122.5t-114 72.5t-131 25.5q-71 0 -135.5 -24.5t-116 -71t-82 -122.5t-30.5 -171z" />
<glyph unicode="&#x41f;" horiz-adv-x="1499" d="M154 0v1434h1192v-1434h-375v1096h-443v-1096h-374z" />
<glyph unicode="&#x420;" horiz-adv-x="1347" d="M156 2v1434h632q125 0 226 -46t163.5 -122.5t95 -172t30.5 -198.5q0 -100 -33.5 -192.5t-96 -167.5t-162.5 -119.5t-223 -44.5h-258v-371h-374zM524 698h264q70 0 113 63t43 146q0 82 -41.5 142.5t-114.5 60.5h-264v-412z" />
<glyph unicode="&#x421;" horiz-adv-x="1556" d="M80 715q0 144 41 265.5t111.5 206.5t164 144.5t199 88t217.5 28.5q91 0 178.5 -19.5t170.5 -62t149 -104.5t113 -154t63 -203h-361q-71 205 -313 205q-163 0 -260.5 -107t-97.5 -286q0 -161 99.5 -275t258.5 -114q121 0 205 57t112 170h361q-16 -119 -62.5 -215.5 t-112 -161.5t-149 -109t-172 -63.5t-182.5 -19.5q-140 0 -269.5 47t-234 135.5t-167 230t-62.5 316.5z" />
<glyph unicode="&#x422;" horiz-adv-x="1142" d="M39 1106v328h1065v-328h-350v-1106h-363v1106h-352z" />
<glyph unicode="&#x423;" horiz-adv-x="1331" d="M10 1386v48h412l272 -551h13l241 551h398v-39l-519 -1057q-56 -129 -116 -207.5t-143 -121.5t-193 -36t-258 62l49 264q55 -20 93 -26.5t75 1t66 38.5t55 87l49 103z" />
<glyph unicode="&#x424;" horiz-adv-x="1847" d="M66 719q0 140 53 250.5t145.5 181.5t213 110t261.5 44v135h351v-135q147 -5 266.5 -41.5t212 -105t143.5 -180.5t51 -259q0 -118 -35 -214t-96 -162t-147 -111.5t-185 -68t-213 -26.5v-141h-346v141q-142 5 -262.5 43t-213.5 108t-146 180.5t-53 250.5zM440 719 q0 -246 305 -266v530q-65 -2 -116 -15.5t-95.5 -41.5t-69 -80.5t-24.5 -126.5zM1083 453q63 4 113 17.5t96 42t71.5 80.5t25.5 126q0 253 -306 264v-530z" />
<glyph unicode="&#x425;" horiz-adv-x="1415" d="M18 0v53l465 707l-415 618v56h405l232 -392h8l231 392h404v-56l-414 -618l463 -707v-53h-418l-264 449h-13l-262 -449h-422z" />
<glyph unicode="&#x426;" horiz-adv-x="1562" d="M154 0v1434h374v-1096h414v1096h377v-1117h145v-479h-301v162h-1009z" />
<glyph unicode="&#x427;" horiz-adv-x="1339" d="M61 1212v220h377v-220q0 -65 2 -109.5t9 -88t18 -70t31 -50t47 -35t66 -18t88 -5t114 9.5v586h371v-1432h-371v500q-407 -46 -579.5 116.5t-172.5 595.5z" />
<glyph unicode="&#x428;" horiz-adv-x="2123" d="M154 0v1434h374v-1096h346v1096h375v-1096h346v1096h375v-1434h-1816z" />
<glyph unicode="&#x429;" horiz-adv-x="2213" d="M154 0v1434h376v-1096h347v1096h372v-1096h346v1096h373v-1117h148v-479h-301v162h-1661z" />
<glyph unicode="&#x42a;" horiz-adv-x="1462" d="M59 1120v314h582v-428h264q111 0 203.5 -34.5t152.5 -92.5t101.5 -133t50.5 -158t0 -166.5t-50.5 -159t-101.5 -134t-152.5 -93t-203.5 -35.5h-631v1120h-215zM641 330q28 0 81.5 -1t98 -1t82.5 2q44 0 77.5 19.5t50.5 50t24.5 67.5t-1 73.5t-26 67t-51 49.5t-74.5 19 h-262v-346z" />
<glyph unicode="&#x42b;" horiz-adv-x="2013" d="M154 0v1434h364v-428h264q111 0 203.5 -34.5t152.5 -92.5t101.5 -133t50.5 -158t0 -166.5t-50.5 -159t-101.5 -134t-152.5 -93t-203.5 -35.5h-628zM518 330q28 0 82 -1t98.5 -1t83.5 2q43 0 77 19.5t50.5 50t24 67.5t-1 73.5t-26 67t-50.5 49.5t-74 19h-264v-346zM1487 0 v1434h373v-1434h-373z" />
<glyph unicode="&#x42c;" horiz-adv-x="1339" d="M154 0v1434h364v-428h264q111 0 203.5 -34.5t152.5 -92.5t101.5 -133t50.5 -158t0 -166.5t-50.5 -159t-101.5 -134t-152.5 -93t-203.5 -35.5h-628zM518 330q28 0 82 -1t98.5 -1t83.5 2q43 0 77 19.5t50.5 50t24 67.5t-1 73.5t-26 67t-50.5 49.5t-74 19h-264v-346z" />
<glyph unicode="&#x42d;" horiz-adv-x="1554" d="M57 549h363q27 -113 113 -172.5t206 -57.5q122 0 214.5 63t123.5 177h-467v309h473q-24 117 -114.5 182.5t-214.5 65.5q-244 0 -318 -211h-360q20 138 86.5 246t162 172t204.5 96.5t225 32.5q111 0 215.5 -29t197 -89.5t161.5 -146t109 -207t40 -263.5t-41.5 -263.5 t-113 -207t-166 -145.5t-200.5 -89t-217 -28q-94 0 -183 19.5t-173.5 63t-150.5 108t-113 160.5t-62 214z" />
<glyph unicode="&#x42e;" horiz-adv-x="2250" d="M154 0v1434h374v-519h197q25 108 77 198.5t121.5 154t154.5 107.5t177.5 65t188.5 20q111 -1 216 -31t198.5 -91t163 -147.5t110.5 -208.5t41 -265q0 -146 -41.5 -269.5t-112.5 -211t-165 -148.5t-200 -90.5t-218 -28.5q-127 2 -245 41.5t-216.5 113t-167.5 190 t-90 261.5h-189v-575h-374zM1079 717q0 -95 30.5 -171.5t82 -124t115 -72.5t133.5 -25q69 0 132 25t114 72.5t81.5 124t30.5 171.5q0 93 -31 168.5t-83 121.5t-115.5 70.5t-132.5 24.5q-70 0 -133.5 -24.5t-114 -71.5t-80 -121.5t-29.5 -167.5z" />
<glyph unicode="&#x42f;" horiz-adv-x="1423" d="M55 0v53l281 457q-103 70 -157 180.5t-56 237.5q0 97 33 186t94.5 161t162.5 115.5t226 43.5h631v-1434h-375v451h-197l-245 -451h-398zM485 936q0 -73 41 -126.5t115 -53.5h260v352h-260q-75 0 -115.5 -49.5t-40.5 -122.5z" />
<glyph unicode="&#x430;" horiz-adv-x="1146" d="M66 293q-7 180 98.5 273t284.5 93q136 0 221 -55v31q0 35 -21.5 59.5t-57.5 35t-67.5 14.5t-66.5 4q-168 0 -273 -54l-41 248q159 72 375 72q106 0 191 -20t154.5 -63.5t108 -121t38.5 -184.5v-318q0 -28 0.5 -41t4.5 -30.5t12.5 -24.5t24.5 -12.5t40 -5.5v-191 q-325 -76 -351 135q-38 -80 -127.5 -117.5t-189.5 -37.5q-143 0 -248.5 86.5t-109.5 224.5zM406 317q4 -34 29.5 -51.5t62.5 -17.5q62 0 116 32.5t54 90.5v20q-67 48 -156 45q-57 -5 -86.5 -35.5t-19.5 -83.5z" />
<glyph unicode="&#x431;" horiz-adv-x="1224" d="M82.5 619q-0.5 97 14.5 191t51.5 179t90.5 156.5t134.5 127.5t181.5 89q20 7 32 11.5t31 13t30 16t23.5 19t17 23t4.5 27.5t-7 33h313q27 -65 18.5 -123.5t-37.5 -106.5t-80 -89t-108.5 -70.5t-123.5 -50.5q-95 -30 -144 -71.5t-75 -129.5q43 44 107.5 74t123.5 33 q117 6 211.5 -34.5t152 -113t86.5 -163.5t25 -189q-5 -96 -40.5 -183t-98.5 -157.5t-163 -112t-222 -41.5q-122 -1 -217 32t-158 94.5t-101 140.5t-55 178q-17 100 -17.5 197zM428 477q1 -50 18 -89.5t45.5 -63t63 -35t72.5 -10.5q80 0 135.5 50t54.5 148q-1 92 -60.5 144.5 t-138.5 52.5q-78 0 -134.5 -54.5t-55.5 -142.5z" />
<glyph unicode="&#x432;" horiz-adv-x="1107" d="M123 -2v995h409q51 0 86 -1t87 -7t87.5 -16t75.5 -30t64.5 -48.5t40.5 -71.5t16 -98q0 -60 -34.5 -114t-96.5 -72q80 -28 129 -94.5t49 -151.5q0 -55 -13.5 -99t-36 -74t-57 -52t-69.5 -34.5t-81.5 -20t-85 -9.5t-87.5 -2h-483zM459 252h110q21 0 33.5 0.5t33 4.5 t32.5 11.5t21 22.5t9 37q0 28 -11.5 46t-32.5 25.5t-40 10t-45 2.5h-110v-160zM459 616h94q96 0 96 66q0 42 -26 56t-70 14h-94v-136z" />
<glyph unicode="&#x433;" horiz-adv-x="921" d="M123 0v987h756v-303h-416v-684h-340z" />
<glyph unicode="&#x434;" horiz-adv-x="1282" d="M39 268h12q29 0 51.5 5t38 12t27 21t18 26t12 34t8 37.5t6.5 44t7 46.5l82 493h780v-719h129l-12 -465h-295v197h-559v-197h-295zM483 268h262v432h-165l-33 -262q-19 -131 -64 -170z" />
<glyph unicode="&#x435;" horiz-adv-x="1126" d="M68 498q0 104 30 191t81 146t119 100t142 60t152 19q111 -2 198.5 -31.5t143.5 -82.5t87.5 -127.5t31.5 -165t-25 -195.5h-612q6 -47 28 -79t57 -48.5t73.5 -23.5t87.5 -7q86 0 182.5 19t150.5 44l39 -251q-198 -90 -395 -93q-254 0 -412.5 139.5t-158.5 385.5zM418 621 h319q7 62 -39 94.5t-108 32.5q-60 0 -110.5 -33.5t-61.5 -93.5z" />
<glyph unicode="&#x436;" horiz-adv-x="1658" d="M49 0v37l254 461q-65 40 -106.5 96t-57 117t-19.5 132.5t5 143.5h328q-3 -48 -5 -96.5t9 -93t31.5 -79t61.5 -55t99 -20.5h13v346h331v-346h17q57 0 97.5 20.5t60 55t30.5 79t9 93t-5 96.5h332q9 -72 5 -143.5t-20 -132.5t-58.5 -117t-108.5 -96l256 -461v-37h-353 l-186 387q-35 -14 -59 -14h-17v-373h-331v373h-13q-29 0 -61 14l-189 -387h-350z" />
<glyph unicode="&#x437;" horiz-adv-x="1030" d="M70 51l16 268q54 -22 164 -49t196 -28q150 0 150 80q0 65 -89 72q-15 1 -54 1h-170v228h153q23 0 38.5 2t33 7.5t26.5 19.5t9 36q0 72 -125 72q-65 0 -159 -18t-146 -44l-15 236q66 35 169 55.5t214 20.5q86 0 159 -14t136 -45t99 -87t36 -133q0 -71 -36 -123.5 t-105 -72.5q88 -28 141.5 -95t53.5 -157q0 -85 -38.5 -147.5t-105.5 -97.5t-146 -51t-173 -16q-117 0 -233.5 23t-198.5 57z" />
<glyph unicode="&#x438;" horiz-adv-x="1226" d="M123 -2v989h336v-424l545 428h100v-991h-336v438l-557 -440h-88z" />
<glyph unicode="&#x439;" horiz-adv-x="1226" d="M123 -2h88l557 440v-438h336v991h-100l-545 -428v424h-336v-989zM319 1399l197 20q6 -104 129 -104q63 0 97.5 23.5t43.5 80.5q62 -4 197 -20q-6 -160 -91 -242t-243 -82q-155 0 -240.5 82.5t-89.5 241.5z" />
<glyph unicode="&#x43a;" horiz-adv-x="1173" d="M123 2v985h346v-340h41q60 0 103.5 20t67.5 50t38 78t18 91.5t4 102.5h330q5 -171 -38 -292.5t-169 -202.5l254 -457v-35h-352l-195 381q-18 -8 -67 -8h-35v-373h-346z" />
<glyph unicode="&#x43b;" horiz-adv-x="1257" d="M35 0l8 250q55 -5 87.5 0t50.5 27.5t24.5 50.5t11.5 84l64 575h854v-987h-342v680h-211l-23 -281q-8 -97 -23 -165.5t-43 -118.5t-65.5 -78t-96 -40.5t-128.5 -11t-168 14.5z" />
<glyph unicode="&#x43c;" horiz-adv-x="1357" d="M123 4v983h102l453 -409l455 409h102v-983h-334v375l-211 -178h-26l-207 178v-375h-334z" />
<glyph unicode="&#x43d;" horiz-adv-x="1230" d="M123 0v987h336v-325h311v325h338v-987h-338v362h-311v-362h-336z" />
<glyph unicode="&#x43e;" horiz-adv-x="1181" d="M66 498q0 125 44.5 226.5t118.5 164t166.5 96t192.5 33.5q80 0 156 -20.5t144 -63t118.5 -103t80 -146.5t29.5 -187t-29 -186.5t-79 -146t-117 -103.5t-142 -63.5t-155 -21.5q-101 -1 -194 32.5t-168.5 96t-120.5 164.5t-45 228zM414 498q0 -103 53.5 -160t126.5 -55 q72 2 124 58.5t52 156.5t-52 156.5t-124 58.5q-73 2 -126.5 -55t-53.5 -160z" />
<glyph unicode="&#x43f;" horiz-adv-x="1228" d="M123 0v987h983v-987h-348v680h-283v-680h-352z" />
<glyph unicode="&#x440;" horiz-adv-x="1232" d="M76 801v190q42 10 84.5 16t94.5 4.5t91 -15t65.5 -47.5t26.5 -87v-8q40 79 117.5 121.5t167.5 42.5q140 -3 242 -75.5t151 -186.5t49 -254q0 -90 -25.5 -172.5t-69.5 -147t-106.5 -111.5t-134.5 -70.5t-155.5 -19t-167.5 38.5v-526h-348v1190q0 70 -9 87q-14 30 -73 30z M498 317q63 -28 121 -30t101.5 21t69 73t25.5 121q0 85 -44 149t-124 60q-68 0 -108.5 -52.5t-40.5 -121.5v-220z" />
<glyph unicode="&#x441;" horiz-adv-x="1153" d="M66 498q0 126 45.5 228t121.5 165t169 96t194 33q89 0 171.5 -26.5t151.5 -77t116.5 -132t60.5 -182.5h-330q-18 55 -60.5 84t-95.5 29q-78 2 -137 -56t-59 -161q0 -100 56.5 -158.5t131.5 -60.5q55 -2 100.5 30t63.5 94h332q-13 -103 -61 -186t-119.5 -134t-156.5 -77.5 t-177 -25.5q-100 1 -191 34.5t-165 95.5t-118 163t-44 225z" />
<glyph unicode="&#x442;" horiz-adv-x="956" d="M45 684v303h866v-303h-264v-680h-338v680h-264z" />
<glyph unicode="&#x443;" horiz-adv-x="1155" d="M2 948v39h373l211 -579h8l186 579h346v-39l-409 -1059q-53 -136 -111 -221t-134.5 -130t-173.5 -38t-222 64l30 223q110 -49 179 -19.5t110 150.5l27 82z" />
<glyph unicode="&#x444;" horiz-adv-x="1703" d="M72 494q0 142 45 254.5t126 177.5t193 80.5t246 -37.5v522h342v-522q134 52 246 37t192.5 -80t125 -177.5t44.5 -254.5q0 -141 -44.5 -252.5t-125 -176.5t-192.5 -79.5t-246 37.5v-525h-342v525q-134 -53 -246 -37.5t-193 79.5t-126 176t-45 253zM422 494 q0 -139 72 -192.5t198 1.5v381q-126 53 -198 1t-72 -191zM1018 303q122 -55 194 -1t72 192q0 139 -72 191t-194 -1v-381z" />
<glyph unicode="&#x445;" horiz-adv-x="1107" d="M20 0v39l336 485l-282 424v39h332l143 -223h8l137 223h357v-39l-299 -446l325 -463v-39h-340l-174 274h-8l-174 -274h-361z" />
<glyph unicode="&#x446;" horiz-adv-x="1257" d="M123 0v987h334v-682h270v682h334v-719h127l-19 -461h-286v193h-760z" />
<glyph unicode="&#x447;" horiz-adv-x="1150" d="M57 760v227h351v-227q0 -67 23 -112.5t62 -64.5t89.5 -16t105.5 29v391h340v-987h-348v303q-109 -27 -203 -29t-171.5 30.5t-133 91t-85.5 151.5t-30 213z" />
<glyph unicode="&#x448;" horiz-adv-x="1716" d="M123 0v987h334v-682h233v682h336v-682h234v682h333v-987h-1470z" />
<glyph unicode="&#x449;" horiz-adv-x="1792" d="M123 0v987h336v-682h235v682h334v-682h232v682h335v-719h127l-16 -465h-291v197h-1292z" />
<glyph unicode="&#x44a;" horiz-adv-x="1189" d="M45 705v282h530v-272h132q93 0 171 -20.5t139 -62.5t95.5 -112.5t34.5 -163.5q0 -91 -35 -160.5t-97 -111.5t-140 -63t-170 -21h-463v705h-197zM575 258h125q58 0 84.5 28t26.5 70q0 43 -26.5 72t-84.5 29h-125v-199z" />
<glyph unicode="&#x44b;" horiz-adv-x="1632" d="M123 0v987h334v-272h131q93 0 171 -20.5t139 -62.5t95.5 -112.5t34.5 -163.5q0 -91 -35 -160.5t-97 -111.5t-140 -63t-170 -21h-463zM457 258h125q58 0 84 28t26 70q0 44 -26 72.5t-84 28.5h-125v-199zM1186 0v987h323v-987h-323z" />
<glyph unicode="&#x44c;" horiz-adv-x="1069" d="M123 0v987h334v-272h131q93 0 171 -20.5t139 -62.5t95.5 -112.5t34.5 -163.5q0 -91 -35 -160.5t-97 -111.5t-140 -63t-170 -21h-463zM457 258h125q58 0 84 28t26 70q0 44 -26 72.5t-84 28.5h-125v-199z" />
<glyph unicode="&#x44d;" horiz-adv-x="1163" d="M55 399h334q18 -61 67.5 -93t108.5 -32q121 0 164 109h-231v219h231q-46 107 -164 107q-58 0 -108.5 -28.5t-69.5 -82.5h-330q13 102 61 183t118 130.5t154 75.5t175 25q100 -1 193.5 -34t170 -95t123 -163t46.5 -226q0 -126 -46.5 -227.5t-123 -164t-170 -96 t-193.5 -33.5q-91 0 -176.5 27.5t-156 79t-118 134t-59.5 185.5z" />
<glyph unicode="&#x44e;" horiz-adv-x="1708" d="M123 0v987h338v-325h153q34 115 113.5 196.5t180 119.5t212.5 38q101 0 193.5 -34t166.5 -97.5t118 -164.5t44 -226q0 -126 -45.5 -228t-121 -164.5t-168.5 -96t-193 -32.5q-181 0 -324.5 100.5t-187.5 286.5h-141v-360h-338zM938 494q0 -100 53 -157.5t125 -57.5 q70 0 123 57t53 158q0 100 -52.5 157.5t-123.5 57.5q-73 0 -125.5 -56.5t-52.5 -158.5z" />
<glyph unicode="&#x44f;" horiz-adv-x="1169" d="M53 0v37l211 313q-73 45 -118.5 122.5t-45.5 162.5q0 91 40 169t124.5 130t198.5 53h584v-987h-353v281h-90l-180 -281h-371zM453 629q0 -37 29.5 -63.5t84.5 -26.5h127v184h-127q-56 0 -85 -27.5t-29 -66.5z" />
<glyph unicode="&#x451;" horiz-adv-x="1126" d="M68 498q0 104 30 191t81 146t119 100t142 60t152 19q111 -2 198.5 -31.5t143.5 -82.5t87.5 -127.5t31.5 -165t-25 -195.5h-612q6 -47 28 -79t57 -48.5t73.5 -23.5t87.5 -7q86 0 182.5 19t150.5 44l39 -251q-198 -90 -395 -93q-254 0 -412.5 139.5t-158.5 385.5zM150 1278 q0 72 51.5 118t126.5 46t126.5 -46t51.5 -118t-51.5 -116t-126.5 -44t-126.5 44t-51.5 116zM418 621h319q7 62 -39 94.5t-108 32.5q-60 0 -110.5 -33.5t-61.5 -93.5zM666 1278q0 72 51 118t127 46q75 0 125.5 -46t50.5 -118t-50.5 -116t-125.5 -44q-77 0 -127.5 44 t-50.5 116z" />
<glyph unicode="&#x452;" horiz-adv-x="1241" d="M-20 1133v231h143v131h350v-131h258v-231h-258v-273q36 71 110.5 110.5t161.5 39.5q84 0 150 -22t109.5 -61t72 -96t41 -122t12.5 -144v-426q0 -131 -37 -221.5t-103.5 -134.5t-159 -57.5t-203.5 8.5v260q98 -6 127.5 21.5t29.5 127.5v422q-4 81 -44.5 125.5t-98.5 44.5 q-67 0 -117.5 -47.5t-50.5 -128.5v-559h-350v1133h-143z" />
<glyph unicode="&#x453;" horiz-adv-x="921" d="M123 0v987h756v-303h-416v-684h-340zM344 1120v31l156 344l299 -106v-29l-193 -240h-262z" />
<glyph unicode="&#x454;" horiz-adv-x="1163" d="M66 494q0 101 30.5 186.5t82 145.5t120 102.5t144.5 62.5t155 21q91 1 175 -25t154 -75.5t118 -130.5t61 -183h-330q-19 54 -69.5 82.5t-108.5 28.5q-118 0 -164 -107h232v-219h-232q43 -109 164 -109q59 0 108.5 32t67.5 93h334q-12 -103 -59.5 -185.5t-118 -134 t-156 -79t-176.5 -27.5q-79 0 -155 20.5t-144.5 63t-120 103t-82 147t-30.5 187.5z" />
<glyph unicode="&#x455;" horiz-adv-x="1056" d="M68 313h340q0 -44 33 -66t81 -22q46 0 80.5 21t34.5 57q0 22 -8.5 36.5t-26 22.5t-33.5 11t-41 6q-53 6 -87 11t-85.5 16.5t-85 24.5t-72 36t-61.5 51.5t-38 70t-15 91.5q0 83 37.5 148.5t100 105.5t140 61t162.5 21q86 0 165 -22.5t141.5 -63.5t98.5 -106t32 -144h-306 q-4 35 -41 55.5t-82 18.5q-44 -2 -74 -19.5t-30 -46.5q-1 -10 0.5 -18.5t6.5 -14.5t9.5 -11t14 -8.5t15 -6t18 -4.5t17 -3t18 -2.5t16.5 -1.5q45 -5 73.5 -8.5t71 -10.5t70 -14.5t63 -21t57.5 -29t46 -38.5t37 -50.5t21 -63.5t7 -79q-3 -107 -70 -184t-166 -112.5 t-216 -35.5q-462 0 -469 342z" />
<glyph unicode="&#x456;" horiz-adv-x="593" d="M96 1251q0 94 61 146.5t144 50.5q81 -2 140 -54t59 -143q0 -93 -59 -144.5t-140 -53.5q-83 -2 -144 51t-61 147zM123 0l2 973h346v-973h-348z" />
<glyph unicode="&#x457;" horiz-adv-x="593" d="M-111 1286q0 74 53 121t130 47q79 0 131.5 -47t52.5 -121q0 -76 -52 -121t-132 -45q-78 0 -130.5 45t-52.5 121zM123 0v987h348v-987h-348zM342 1286q0 74 51.5 121t130.5 47t131 -47t52 -121q0 -76 -51.5 -121t-131.5 -45t-131 45t-51 121z" />
<glyph unicode="&#x458;" horiz-adv-x="587" d="M-63 -518l10 256q106 -8 141 19.5t35 129.5v1096h344l-2 -1100q0 -111 -25.5 -192.5t-72 -129t-112 -73t-145.5 -24t-173 17.5zM88 1264q0 93 60 144.5t141 51.5q82 0 142.5 -51.5t60.5 -144.5t-59 -145t-140 -54q-83 -2 -144 51.5t-61 147.5z" />
<glyph unicode="&#x459;" horiz-adv-x="1642" d="M35 0l8 250q55 -5 87.5 0t50.5 27.5t24.5 50.5t11.5 84l64 575h796v-272h84q93 0 171 -20.5t139.5 -62.5t96 -112.5t34.5 -163.5q0 -91 -35.5 -160.5t-97.5 -111.5t-140 -63t-170 -21h-416v680h-161l-23 -281q-8 -97 -23 -165.5t-43 -118.5t-65.5 -78t-96 -40.5 t-128.5 -11t-168 14.5zM1077 258h78q59 0 87 28.5t28 69.5q0 43 -28 72t-87 29h-78v-199z" />
<glyph unicode="&#x45a;" horiz-adv-x="1613" d="M123 0v987h336v-293h256v293h334v-282h84q94 0 171.5 -19t139 -59t95.5 -109t34 -162q0 -91 -35.5 -160.5t-97.5 -111.5t-140 -63t-170 -21h-415v395h-256v-395h-336zM1049 258h77q59 0 87 28.5t28 69.5q0 90 -115 90h-77v-188z" />
<glyph unicode="&#x45b;" horiz-adv-x="1241" d="M-16 1133v231h139v131h350v-131h258v-231h-258v-273q36 71 110.5 110.5t161.5 39.5q84 0 150 -22t109.5 -61t72 -96t41 -122t12.5 -144v-565h-346v565q-4 81 -44.5 125.5t-98.5 44.5q-67 0 -117.5 -47.5t-50.5 -128.5v-559h-350v1133h-139z" />
<glyph unicode="&#x45c;" horiz-adv-x="1173" d="M123 2v985h346v-340h41q60 0 103.5 20t67.5 50t38 78t18 91.5t4 102.5h330q5 -171 -38 -292.5t-169 -202.5l254 -457v-35h-352l-195 381q-18 -8 -67 -8h-35v-373h-346zM457 1120v31l155 344l299 -106v-29l-192 -240h-262z" />
<glyph unicode="&#x45e;" horiz-adv-x="1155" d="M2 948v39h373l211 -579h8l186 579h346v-39l-409 -1059q-53 -136 -111 -221t-134.5 -130t-173.5 -38t-222 64l30 223q110 -49 179 -19.5t110 150.5l27 82zM244 1415l196 21q6 -105 129 -105q63 0 98 23.5t44 81.5q44 -3 196 -21q-6 -160 -91 -241.5t-243 -81.5 q-155 0 -240 82t-89 241z" />
<glyph unicode="&#x45f;" horiz-adv-x="1228" d="M123 0v987h348v-680h283v680h352v-987h-332v-184h-321v184h-330z" />
<glyph unicode="&#x490;" horiz-adv-x="1077" d="M154 0v1434h600v196h293v-524h-521v-1106h-372z" />
<glyph unicode="&#x491;" horiz-adv-x="921" d="M123 0v987h493v182h263v-485h-416v-684h-340z" />
<glyph unicode="&#x1e80;" horiz-adv-x="1947" d="M12 1378v56h394l135 -392l108 -417h6l242 784h154l252 -784h6l100 417l133 392h393v-56l-512 -1392h-198l-248 655h-6l-238 -655h-209zM633 1804v31l321 115l168 -371v-33h-282z" />
<glyph unicode="&#x1e81;" horiz-adv-x="1562" d="M10 948v39h373l92 -237l57 -181h7l174 396h133l176 -396h8l57 181l89 237h376v-39l-422 -966h-118l-234 415l-229 -415h-119zM498 1350v28l307 111l162 -356v-31h-271z" />
<glyph unicode="&#x1e82;" horiz-adv-x="1947" d="M12 1378v56h394l135 -392l108 -417h6l242 784h154l252 -784h6l100 417l133 392h393v-56l-512 -1392h-198l-248 655h-6l-238 -655h-209zM797 1532v33l168 370l321 -114v-31l-207 -258h-282z" />
<glyph unicode="&#x1e83;" horiz-adv-x="1562" d="M10 948v39h373l92 -237l57 -181h7l174 396h133l176 -396h8l57 181l89 237h376v-39l-422 -966h-118l-234 415l-229 -415h-119zM606 1094v32l164 359l311 -111v-31l-200 -249h-275z" />
<glyph unicode="&#x1e84;" horiz-adv-x="1947" d="M12 1378v56h394l135 -392l108 -417h6l242 784h154l252 -784h6l100 417l133 392h393v-56l-512 -1392h-198l-248 655h-6l-238 -655h-209zM504 1733q0 78 55.5 127t136.5 49t137 -49t56 -127t-55.5 -126t-137.5 -48q-81 0 -136.5 48t-55.5 126zM1061 1733q0 78 54.5 127 t137.5 49q81 0 136 -49t55 -127t-55 -126t-136 -48q-83 0 -137.5 48t-54.5 126z" />
<glyph unicode="&#x1e85;" horiz-adv-x="1562" d="M10 948v39h373l92 -237l57 -181h7l174 396h133l176 -396h8l57 181l89 237h376v-39l-422 -966h-118l-234 415l-229 -415h-119zM303 1286q0 78 56 127t137 49t136.5 -49t55.5 -127t-55.5 -126t-136.5 -48q-82 0 -137.5 48t-55.5 126zM860 1286q0 78 55 127t138 49 q81 0 135.5 -49t54.5 -127t-54.5 -126t-135.5 -48q-83 0 -138 48t-55 126z" />
<glyph unicode="&#x1ef2;" horiz-adv-x="1312" d="M-12 1378v56h401l260 -476h17l260 476h397v-56l-479 -811v-567h-375v567zM317 1790v31l322 114l168 -370v-33h-283z" />
<glyph unicode="&#x1ef3;" horiz-adv-x="1155" d="M2 948v39h373l211 -579h8l186 579h346v-39l-409 -1059q-53 -136 -111 -221t-134.5 -130t-173.5 -38t-222 64l30 223q110 -49 179 -19.5t110 150.5l27 82zM242 1362v29l307 110l162 -356v-31h-271z" />
<glyph unicode="&#x2000;" horiz-adv-x="1033" />
<glyph unicode="&#x2001;" horiz-adv-x="2066" />
<glyph unicode="&#x2002;" horiz-adv-x="1033" />
<glyph unicode="&#x2003;" horiz-adv-x="2066" />
<glyph unicode="&#x2004;" horiz-adv-x="688" />
<glyph unicode="&#x2005;" horiz-adv-x="516" />
<glyph unicode="&#x2006;" horiz-adv-x="344" />
<glyph unicode="&#x2007;" horiz-adv-x="344" />
<glyph unicode="&#x2008;" horiz-adv-x="258" />
<glyph unicode="&#x2009;" horiz-adv-x="413" />
<glyph unicode="&#x200a;" horiz-adv-x="114" />
<glyph unicode="&#x2010;" horiz-adv-x="972" d="M117 532v299h739v-299h-739z" />
<glyph unicode="&#x2011;" horiz-adv-x="972" d="M117 532v299h739v-299h-739z" />
<glyph unicode="&#x2012;" horiz-adv-x="972" d="M117 532v299h739v-299h-739z" />
<glyph unicode="&#x2013;" horiz-adv-x="1116" d="M117 532v299h882v-299h-882z" />
<glyph unicode="&#x2014;" horiz-adv-x="1296" d="M117 532v299h1063v-299h-1063z" />
<glyph unicode="&#x2018;" horiz-adv-x="575" d="M88 1075q0 37 14 72l97 295h202l-53 -187q64 -18 104 -65.5t40 -114.5q0 -85 -57.5 -136.5t-145.5 -51.5q-87 0 -144 51.5t-57 136.5z" />
<glyph unicode="&#x2019;" horiz-adv-x="577" d="M88 1264q0 85 57.5 136.5t145.5 51.5q87 0 144 -51.5t57 -136.5q0 -34 -15 -72l-96 -295h-203l53 186q-64 18 -103.5 66t-39.5 115z" />
<glyph unicode="&#x201a;" horiz-adv-x="602" d="M98 150q0 85 57.5 136.5t145.5 51.5q87 0 144 -51.5t57 -136.5q0 -34 -15 -72l-96 -295h-203l54 186q-64 18 -104 66t-40 115z" />
<glyph unicode="&#x201c;" horiz-adv-x="1083" d="M88 1075q0 37 14 72l97 295h202l-53 -187q64 -18 104 -65.5t40 -114.5q0 -85 -57.5 -136.5t-145.5 -51.5q-87 0 -144 51.5t-57 136.5zM596 1075q0 37 14 72l97 295h202l-53 -187q64 -18 103.5 -65.5t39.5 -114.5q0 -85 -57 -136.5t-145 -51.5q-87 0 -144 51.5t-57 136.5z " />
<glyph unicode="&#x201d;" horiz-adv-x="1093" d="M88 1264q0 85 57.5 136.5t145.5 51.5q87 0 144 -51.5t57 -136.5q0 -34 -15 -72l-96 -295h-203l53 186q-64 18 -103.5 66t-39.5 115zM604 1264q0 85 57.5 136.5t145.5 51.5q87 0 144 -51.5t57 -136.5q0 -34 -15 -72l-96 -295h-203l54 186q-64 18 -104 66t-40 115z" />
<glyph unicode="&#x201e;" horiz-adv-x="1107" d="M98 150q0 85 57.5 136.5t145.5 51.5q87 0 144 -51.5t57 -136.5q0 -34 -15 -72l-96 -295h-203l54 186q-64 18 -104 66t-40 115zM604 150q0 85 57.5 136.5t145.5 51.5q87 0 144 -51.5t57 -136.5q0 -34 -15 -72l-96 -295h-203l54 186q-64 18 -104 66t-40 115z" />
<glyph unicode="&#x2020;" horiz-adv-x="989" d="M72 715v293h264v452h315v-452h267v-293h-267v-901h-315v901h-264z" />
<glyph unicode="&#x2021;" horiz-adv-x="1081" d="M102 231v287h277v260h-277v287h277v395h315v-395h285v-287h-285v-260h285v-287h-285v-417h-315v417h-277z" />
<glyph unicode="&#x2022;" horiz-adv-x="995" d="M143 735q0 147 104 238.5t251 91.5q151 0 252.5 -91t101.5 -239q0 -145 -101.5 -235t-252.5 -90q-147 0 -251 90.5t-104 234.5z" />
<glyph unicode="&#x2026;" horiz-adv-x="1755" d="M98 150q0 84 58 136t145 52q88 0 145.5 -51.5t57.5 -136.5t-57.5 -136t-145.5 -51q-87 0 -145 51.5t-58 135.5zM672 150q0 85 57.5 136.5t144.5 51.5q88 0 145.5 -51.5t57.5 -136.5t-57.5 -136t-145.5 -51q-87 0 -144.5 51.5t-57.5 135.5zM1251 150q0 84 58 136t145 52 q88 0 145.5 -51.5t57.5 -136.5t-57.5 -136t-145.5 -51q-87 0 -145 51.5t-58 135.5z" />
<glyph unicode="&#x202f;" horiz-adv-x="413" />
<glyph unicode="&#x2030;" horiz-adv-x="2809" d="M70 1090q0 91 33 165.5t86.5 120t122 70t140.5 24.5t140.5 -24.5t122 -70t86.5 -120t33 -165.5t-33 -165.5t-86.5 -120t-122 -70t-140.5 -24.5t-140.5 24.5t-122 70t-86.5 120t-33 165.5zM348 1090q0 -43 15.5 -75t38.5 -46.5t50.5 -14.5t50.5 14.5t38.5 46.5t15.5 75 q0 65 -32.5 102t-72 37t-72 -37t-32.5 -102zM465 0l704 1432h338l-706 -1432h-336zM1141 338q0 91 32.5 165.5t86.5 120t122.5 70t139.5 24.5t139.5 -24.5t122.5 -70t86.5 -120t32.5 -165.5t-32.5 -165.5t-86.5 -120t-122.5 -70t-139.5 -24.5t-139.5 24.5t-122.5 70 t-86.5 120t-32.5 165.5zM1415 338q0 -44 15.5 -77t39 -47.5t51 -14.5t51 14.5t39 47.5t15.5 77q0 43 -15.5 75t-39 46.5t-51 14.5t-51 -14.5t-39 -46.5t-15.5 -75zM1980 338q0 91 32.5 165.5t86.5 120t122.5 70t139.5 24.5t139.5 -24.5t122.5 -70t86.5 -120t32.5 -165.5 t-32.5 -165.5t-86.5 -120t-122.5 -70t-139.5 -24.5t-139.5 24.5t-122.5 70t-86.5 120t-32.5 165.5zM2255 338q0 -38 11.5 -68t30 -45.5t41 -23t45.5 0t41.5 23t30 45.5t11.5 68q0 37 -11.5 66.5t-30 45t-41.5 22.5t-45.5 0t-41 -22.5t-30 -45t-11.5 -66.5z" />
<glyph unicode="&#x2039;" horiz-adv-x="669" d="M86 709l324 520l153 -78l-192 -442l192 -437l-153 -79z" />
<glyph unicode="&#x203a;" horiz-adv-x="669" d="M106 272l193 437l-193 442l154 78l324 -520l-324 -516z" />
<glyph unicode="&#x2044;" horiz-adv-x="1089" d="M-23 -123l783 1616h358l-782 -1616h-359z" />
<glyph unicode="&#x205f;" horiz-adv-x="516" />
<glyph unicode="&#x20ac;" horiz-adv-x="1341" d="M84 502v166h131q-3 67 4 118h-135v164h160q44 161 152 276t245 168.5t291 53.5q160 0 295 -55l-109 -291q-78 35 -174 35q-101 0 -182 -49.5t-129 -137.5h375l-54 -164h-372q-10 -67 -2 -118h333l-55 -166h-242q90 -197 326 -197q124 0 207 57l123 -303 q-156 -75 -340 -75q-275 0 -457 132.5t-237 385.5h-154z" />
<glyph unicode="&#x2116;" horiz-adv-x="2754" d="M172 0v1440h117l747 -707v701h375v-1438h-111l-753 743v-739h-375zM1632 498q0 125 44.5 226.5t118.5 164t166.5 96t192.5 33.5q80 0 156 -20.5t144 -63t119 -103t80.5 -146.5t29.5 -187t-29 -186.5t-79 -146t-117 -103.5t-142 -63.5t-155 -21.5t-156.5 19.5t-144 63.5 t-118.5 103.5t-80.5 147t-29.5 187.5zM1980 498q0 -103 54 -160t127 -55q72 2 124 58.5t52 156.5t-52 156.5t-124 58.5q-73 2 -127 -55t-54 -160z" />
<glyph unicode="&#x2122;" horiz-adv-x="1562" d="M139 1231v205h531v-205h-150v-367h-229v367h-152zM745 864v572h113l221 -213l219 213h113v-572h-229v180l-99 -92h-10l-98 92v-180h-230z" />
<glyph unicode="&#x2190;" horiz-adv-x="1564" d="M92 682v49l641 598l221 -209l-297 -243l762 14v-369l-755 15l288 -246l-221 -209z" />
<glyph unicode="&#x2191;" horiz-adv-x="1480" d="M111 727l598 641h49l600 -639l-209 -221l-246 289l15 -756h-369l14 762l-244 -297z" />
<glyph unicode="&#x2192;" horiz-adv-x="1579" d="M133 522v369l762 -14l-297 243l221 209l641 -598v-49l-639 -600l-221 209l289 246z" />
<glyph unicode="&#x2193;" horiz-adv-x="1445" d="M98 680l209 221l246 -289l-14 756h368l-14 -762l244 297l209 -221l-598 -641h-50z" />
<glyph unicode="&#x2194;" horiz-adv-x="2025" d="M84 682v49l618 578l216 -203l-287 -236h755l-286 236l215 203l618 -578v-49l-616 -580l-215 203l280 238h-747l280 -238l-215 -203z" />
<glyph unicode="&#x2195;" horiz-adv-x="1421" d="M121 483l201 207l237 -268v649l-237 -268l-201 207l575 592h49l574 -594l-201 -207l-235 274v-657l235 274l201 -207l-574 -594h-49z" />
<glyph unicode="&#x2196;" horiz-adv-x="1505" d="M211 1182l35 35l876 -31l8 -303l-382 37l548 -529l-260 -260l-524 545l31 -379l-303 10z" />
<glyph unicode="&#x2197;" horiz-adv-x="1449" d="M133 391l549 529l-383 -37l8 303l877 31l35 -35l-29 -875l-303 -10l31 379l-525 -545z" />
<glyph unicode="&#x2198;" horiz-adv-x="1505" d="M154 1044l260 261l524 -545l-31 379l303 -11l29 -874l-35 -35l-876 31l-9 303l383 -37z" />
<glyph unicode="&#x2199;" horiz-adv-x="1505" d="M266 254l29 874l303 11l-31 -379l525 545l260 -261l-549 -528l383 37l-8 -303l-877 -31z" />
<glyph unicode="&#x2212;" horiz-adv-x="1148" d="M133 573v299h883v-299h-883z" />
<glyph unicode="&#x25fc;" horiz-adv-x="983" d="M0 0v983h983v-983h-983z" />
<glyph horiz-adv-x="448" />
</font>
</defs>
</svg>
